<svg xmlns="http://www.w3.org/2000/svg" viewBox="0 0 1919.58 1079.76"><defs><style>.cls-1{isolation:isolate;}.cls-2{fill:none;}.cls-3{fill:#fff;}.cls-4{fill:#afafaf;}.cls-11,.cls-5{fill:#4c227b;}.cls-6,.cls-8{fill:#a673cd;}.cls-7{fill:#c785bc;}.cls-10,.cls-11,.cls-7,.cls-8{opacity:0.5;mix-blend-mode:multiply;}.cls-9{fill:#a45f86;}.cls-10{fill:#0086bd;}.cls-12{fill:#70168a;}</style></defs><title>Asset 29</title><g class="cls-1"><g id="Layer_2" data-name="Layer 2"><g id="background"><rect class="cls-2" width="1919.58" height="1079.76"/></g><g id="small_satellite" data-name="small satellite"><path class="cls-3" d="M903.26,703.22a.51.51,0,0,1-1-.1.51.51,0,0,1,.56-.46A.5.5,0,0,1,903.26,703.22Z"/><path class="cls-3" d="M917.94,687.93a.52.52,0,0,1-.56.46.51.51,0,0,1-.46-.56.5.5,0,0,1,.56-.46A.51.51,0,0,1,917.94,687.93Z"/><path class="cls-3" d="M924.06,703.46a1.21,1.21,0,1,1-1.08-1.38A1.25,1.25,0,0,1,924.06,703.46Z"/><path class="cls-4" d="M920.72,685.2,911,678.54c.54-.79,3.15.06,5.83,1.9S921.26,684.41,920.72,685.2Z"/><path class="cls-5" d="M920.72,685.2c-.54.79-3.15-.06-5.83-1.9s-4.4-4-3.86-4.76,3.15.06,5.83,1.9S921.26,684.41,920.72,685.2Z"/><path class="cls-3" d="M924.5,679.68h0a1.11,1.11,0,0,0-.11-.88,5,5,0,0,0-.53-.86,7.82,7.82,0,0,0-.56-.65c-.25-.27-.54-.55-.85-.83a18.54,18.54,0,0,0-1.86-1.46c-2.59-1.77-5.11-2.62-5.77-2h0L911,678.54c.54-.79,3.15.06,5.83,1.9a18.52,18.52,0,0,1,1.86,1.45c.31.29.6.57.85.84s.4.44.56.64a5,5,0,0,1,.53.86c.19.41.31.74.15,1l3.82-5.44h-.09v-.08Z"/><polygon class="cls-6" points="901.15 690.87 878.63 674.15 884.93 664.67 908.28 680.13 901.15 690.87"/><path class="cls-3" d="M919.76,683.9a10.23,10.23,0,0,0-2.09-2.13c-.35-.28-.74-.57-1.14-.85-2.41-1.65-4.72-2.45-5.18-1.8L900.87,694.4l8.71,6,10.49-15.28C920.24,684.85,920.11,684.42,919.76,683.9Z"/><path class="cls-7" d="M909.8,701.1c-.45.66-3-.3-5.66-2.13s-4.48-3.86-4-4.52,3,.3,5.66,2.14S910.26,700.45,909.8,701.1Z"/><path class="cls-8" d="M910,702.44c-.54.79-3.57-.35-6.77-2.55s-5.36-4.62-4.82-5.4,3.57.36,6.77,2.55S910.58,701.66,910,702.44Z"/><path class="cls-5" d="M923.86,677.94l-3.73,5.43c-.16-.2-.35-.42-.56-.64l3.73-5.44A7.82,7.82,0,0,1,923.86,677.94Z"/><path class="cls-5" d="M919.46,683.3l-10.69,16.1c-.17-.21-.35-.43-.56-.65l10.69-16.09C919.11,682.88,919.3,683.1,919.46,683.3Z"/><path class="cls-6" d="M905.54,700.17a.34.34,0,0,0,0-.29,1.12,1.12,0,0,0-.16-.27l-.17-.21-.27-.27a4.8,4.8,0,0,0-.59-.45c-.81-.56-1.83-.81-1.83-.59h0v-.43h-.09l-1.22,2.06c.19-.26,1,.1,1.87.68a4.33,4.33,0,0,1,.59.51c.1.09.2.21.28.29l.17.22a1.21,1.21,0,0,1,.16.29.51.51,0,0,1,0,.4l1.26-1.75h0l0-.11Z"/><path class="cls-3" d="M903.13,700.44a10.6,10.6,0,0,0-14.74,2.75l17.48,12A10.61,10.61,0,0,0,903.13,700.44Z"/><path class="cls-6" d="M905.11,714.67l-1.35-.93c3.14-4.58,2.58-10.48-1.15-13.61.23.13.47.28.7.43C907.62,703.52,908.43,709.84,905.11,714.67Z"/><path class="cls-9" d="M906,715.27c-.54.78-4.84-1.24-9.65-4.52a.71.71,0,0,0-.14-.1l-.54-.38c-4.58-3.2-7.8-6.33-7.28-7.08s4.59,1.13,9.23,4.24l.55.38.14.09C903.1,711.21,906.53,714.49,906,715.27Z"/><path class="cls-5" d="M905.87,715.45c-.53.78-4.83-1.24-9.64-4.53l-.14-.09-.54-.38c-4.58-3.21-7.81-6.33-7.29-7.09s4.6,1.13,9.24,4.25l.55.37.13.1C903,711.38,906.41,714.67,905.87,715.45Z"/><path class="cls-3" d="M898.31,707.9l-2.2,3.2-.68-.47,2.19-3.2.55.38Z"/><path class="cls-3" d="M896.59,711.63a1.11,1.11,0,1,1-.28-1.55A1.12,1.12,0,0,1,896.59,711.63Z"/><rect class="cls-10" x="903.99" y="686.05" width="4.09" height="0.6" transform="translate(-172.37 1045.54) rotate(-55.57)"/><polygon class="cls-6" points="913.04 698.63 934.63 715.9 942.42 703.24 919.94 688.07 913.04 698.63"/><polygon class="cls-11" points="913.04 698.63 934.63 715.9 940.18 706.88 916.13 693.89 913.04 698.63"/><polygon class="cls-11" points="878.63 674.15 901.15 690.87 905.71 684.01 880.71 671.02 878.63 674.15"/><rect class="cls-10" x="913.19" y="692.36" width="4.09" height="0.6" transform="translate(-173.49 1056.12) rotate(-55.58)"/><path class="cls-12" d="M913.39,681.56a.9.9,0,1,0-.9.9A.9.9,0,0,0,913.39,681.56Z"/><circle class="cls-12" cx="910.15" cy="684.71" r="1.08"/><path class="cls-12" d="M909.43,688a1.44,1.44,0,1,0-1.44,1.44A1.44,1.44,0,0,0,909.43,688Z"/><circle class="cls-12" cx="905.92" cy="690.83" r="0.81"/><circle class="cls-12" cx="904.57" cy="692.99" r="0.81"/></g></g></g></svg>