<svg xmlns="http://www.w3.org/2000/svg" viewBox="0 0 1919.58 1079.76"><defs><style>.cls-1{fill:none;}.cls-2{fill:#a673cd;}.cls-3{fill:#4c227b;}</style></defs><title>Asset 31</title><g id="Layer_2" data-name="Layer 2"><g id="background"><rect class="cls-1" width="1919.58" height="1079.76"/></g><g id="big_moon" data-name="big moon"><path class="cls-2" d="M1038.14,346.29a33.67,33.67,0,1,1-47.57,2.29A33.69,33.69,0,0,1,1038.14,346.29Z"/><path class="cls-3" d="M1001.56,387.76c2.47,2.24,3.24,5.4,1.74,7.06s-4.73,1.19-7.2-1.05-3.25-5.4-1.74-7.06S999.09,385.52,1001.56,387.76Z"/><path class="cls-3" d="M995,363.55a4.42,4.42,0,1,1-6.24.3A4.41,4.41,0,0,1,995,363.55Z"/><path class="cls-3" d="M1040.34,372.89a4.42,4.42,0,1,1-6.24.3A4.41,4.41,0,0,1,1040.34,372.89Z"/><path class="cls-3" d="M1014.51,383.15a3,3,0,1,1-4.29.21A3,3,0,0,1,1014.51,383.15Z"/><path class="cls-3" d="M1013.48,398.12a1.52,1.52,0,1,1-2.14.11A1.52,1.52,0,0,1,1013.48,398.12Z"/><path class="cls-3" d="M1009.77,365.69a1.52,1.52,0,1,1-2.14.11A1.52,1.52,0,0,1,1009.77,365.69Z"/><path class="cls-3" d="M1015,346a1.51,1.51,0,1,1-2.14.1A1.52,1.52,0,0,1,1015,346Z"/></g></g></svg>