<svg xmlns="http://www.w3.org/2000/svg" viewBox="0 0 1919.58 1079.76"><defs><style>.cls-1{fill:none;}.cls-2{fill:#fcbf3a;}.cls-3{fill:#eaeaea;}.cls-4{opacity:0.5;}.cls-5{fill:#9e9ed0;}</style></defs><title>Asset 32</title><g id="Layer_2" data-name="Layer 2"><g id="background"><rect class="cls-1" width="1919.58" height="1079.76"/></g><g id="constellation"><path class="cls-2" d="M1484.13,469.05a6.64,6.64,0,1,1,6.93-6.39A6.66,6.66,0,0,1,1484.13,469.05Z"/><path class="cls-3" d="M1546.16,478.07a6.64,6.64,0,1,1,6.93-6.38A6.65,6.65,0,0,1,1546.16,478.07Z"/><path class="cls-3" d="M1417.25,427.3a6.64,6.64,0,1,1,6.93-6.39A6.67,6.67,0,0,1,1417.25,427.3Z"/><path class="cls-2" d="M1595.28,414.72a6.64,6.64,0,1,1,6.93-6.38A6.67,6.67,0,0,1,1595.28,414.72Z"/><g class="cls-4"><line class="cls-5" x1="1581.65" y1="408.91" x2="1430.91" y2="418.97"/><path class="cls-5" d="M1429.81,418.92a1.1,1.1,0,0,1,1-1.05l150.73-10.06a1.1,1.1,0,0,1,.15,2.2L1431,420.07a1.1,1.1,0,0,1-1.17-1Z"/></g><g class="cls-4"><line class="cls-5" x1="1586.64" y1="417.02" x2="1552.19" y2="461.08"/><path class="cls-5" d="M1551.09,461a1.08,1.08,0,0,1,.23-.63l34.45-44.06a1.1,1.1,0,0,1,1.74,1.35l-34.46,44.07a1.1,1.1,0,0,1-1.54.18A1.06,1.06,0,0,1,1551.09,461Z"/></g><g class="cls-4"><line class="cls-5" x1="1534.8" y1="469.89" x2="1497.15" y2="464.26"/><path class="cls-5" d="M1496.05,464.22a.49.49,0,0,1,0-.12,1.1,1.1,0,0,1,1.25-.93L1535,468.8a1.1,1.1,0,0,1-.32,2.18L1497,465.35A1.1,1.1,0,0,1,1496.05,464.22Z"/></g></g></g></svg>