<svg xmlns="http://www.w3.org/2000/svg" xmlns:xlink="http://www.w3.org/1999/xlink" viewBox="0 0 1919.58 1081.44"><defs><style>.cls-1{fill:none;}.cls-2{fill:#321c7f;}.cls-2,.cls-88{opacity:0.69;}.cls-3{fill:url(#Degradado_sin_nombre_73);}.cls-4{fill:url(#Degradado_sin_nombre_73-2);}.cls-5{fill:url(#Degradado_sin_nombre_73-3);}.cls-6{fill:url(#Degradado_sin_nombre_73-4);}.cls-7{fill:url(#Degradado_sin_nombre_73-5);}.cls-8{fill:url(#Degradado_sin_nombre_73-6);}.cls-9{fill:url(#Degradado_sin_nombre_73-7);}.cls-10{fill:url(#Degradado_sin_nombre_73-8);}.cls-11{fill:url(#Degradado_sin_nombre_73-9);}.cls-12{fill:url(#Degradado_sin_nombre_73-10);}.cls-13{fill:url(#Degradado_sin_nombre_73-11);}.cls-14{fill:url(#Degradado_sin_nombre_73-12);}.cls-15{fill:url(#Degradado_sin_nombre_73-13);}.cls-16{fill:url(#Degradado_sin_nombre_73-14);}.cls-17{fill:url(#Degradado_sin_nombre_73-15);}.cls-18{fill:url(#Degradado_sin_nombre_73-16);}.cls-19{fill:url(#Degradado_sin_nombre_73-17);}.cls-101,.cls-102,.cls-103,.cls-104,.cls-108,.cls-109,.cls-110,.cls-111,.cls-115,.cls-116,.cls-117,.cls-121,.cls-122,.cls-123,.cls-126,.cls-127,.cls-128,.cls-129,.cls-130,.cls-133,.cls-135,.cls-148,.cls-149,.cls-150,.cls-151,.cls-154,.cls-155,.cls-156,.cls-157,.cls-160,.cls-161,.cls-162,.cls-163,.cls-166,.cls-167,.cls-168,.cls-169,.cls-171,.cls-172,.cls-173,.cls-174,.cls-175,.cls-20,.cls-21,.cls-22,.cls-23,.cls-24,.cls-25,.cls-26,.cls-27,.cls-28,.cls-29,.cls-30,.cls-31,.cls-32,.cls-33,.cls-34,.cls-35,.cls-36,.cls-37,.cls-38,.cls-39,.cls-40,.cls-41,.cls-42,.cls-43,.cls-44,.cls-45,.cls-46,.cls-47,.cls-48,.cls-49,.cls-50,.cls-51,.cls-56,.cls-57,.cls-58,.cls-59,.cls-60,.cls-67,.cls-68,.cls-69,.cls-70,.cls-71,.cls-72,.cls-73,.cls-81,.cls-82,.cls-83,.cls-84,.cls-85,.cls-86,.cls-87,.cls-94,.cls-95,.cls-96,.cls-97{opacity:0.56;}.cls-20{fill:url(#Degradado_sin_nombre_65);}.cls-21{fill:url(#Degradado_sin_nombre_65-2);}.cls-22{fill:url(#Degradado_sin_nombre_65-3);}.cls-23{fill:url(#Degradado_sin_nombre_65-4);}.cls-24{fill:url(#Degradado_sin_nombre_65-5);}.cls-25{fill:url(#Degradado_sin_nombre_65-6);}.cls-26{fill:url(#Degradado_sin_nombre_65-7);}.cls-27{fill:url(#Degradado_sin_nombre_65-8);}.cls-28{fill:url(#Degradado_sin_nombre_65-9);}.cls-29{fill:url(#Degradado_sin_nombre_65-10);}.cls-30{fill:url(#Degradado_sin_nombre_65-11);}.cls-31{fill:url(#Degradado_sin_nombre_65-12);}.cls-32{fill:url(#Degradado_sin_nombre_65-13);}.cls-33{fill:url(#Degradado_sin_nombre_65-14);}.cls-34{fill:url(#Degradado_sin_nombre_65-15);}.cls-35{fill:url(#Degradado_sin_nombre_65-16);}.cls-36{fill:url(#Degradado_sin_nombre_65-17);}.cls-37{fill:url(#Degradado_sin_nombre_65-18);}.cls-38{fill:url(#Degradado_sin_nombre_65-19);}.cls-39{fill:url(#Degradado_sin_nombre_65-20);}.cls-40{fill:url(#Degradado_sin_nombre_65-21);}.cls-41{fill:url(#Degradado_sin_nombre_65-22);}.cls-42{fill:url(#Degradado_sin_nombre_65-23);}.cls-43{fill:url(#Degradado_sin_nombre_65-24);}.cls-44{fill:url(#Degradado_sin_nombre_65-25);}.cls-45{fill:url(#Degradado_sin_nombre_65-26);}.cls-46{fill:url(#Degradado_sin_nombre_65-27);}.cls-47{fill:url(#Degradado_sin_nombre_65-28);}.cls-48{fill:url(#Degradado_sin_nombre_65-29);}.cls-49{fill:url(#Degradado_sin_nombre_65-30);}.cls-50{fill:url(#Degradado_sin_nombre_65-31);}.cls-51{fill:url(#Degradado_sin_nombre_65-32);}.cls-52{fill:url(#Degradado_sin_nombre_73-18);}.cls-53{fill:url(#Degradado_sin_nombre_73-19);}.cls-54{fill:url(#Degradado_sin_nombre_73-20);}.cls-55{fill:url(#Degradado_sin_nombre_73-21);}.cls-56{fill:url(#Degradado_sin_nombre_65-33);}.cls-57{fill:url(#Degradado_sin_nombre_65-34);}.cls-58{fill:url(#Degradado_sin_nombre_65-35);}.cls-59{fill:url(#Degradado_sin_nombre_65-36);}.cls-60{fill:url(#Degradado_sin_nombre_65-37);}.cls-61{fill:url(#Degradado_sin_nombre_73-22);}.cls-62{fill:url(#Degradado_sin_nombre_73-23);}.cls-63{fill:url(#Degradado_sin_nombre_73-24);}.cls-64{fill:url(#Degradado_sin_nombre_73-25);}.cls-65{fill:url(#Degradado_sin_nombre_73-26);}.cls-66{fill:url(#Degradado_sin_nombre_73-27);}.cls-67{fill:url(#Degradado_sin_nombre_65-38);}.cls-68{fill:url(#Degradado_sin_nombre_65-39);}.cls-69{fill:url(#Degradado_sin_nombre_65-40);}.cls-70{fill:url(#Degradado_sin_nombre_65-41);}.cls-71{fill:url(#Degradado_sin_nombre_65-42);}.cls-72{fill:url(#Degradado_sin_nombre_65-43);}.cls-73{fill:url(#Degradado_sin_nombre_65-44);}.cls-74{fill:url(#Degradado_sin_nombre_73-28);}.cls-75{fill:url(#Degradado_sin_nombre_73-29);}.cls-76{fill:url(#Degradado_sin_nombre_73-30);}.cls-77{fill:url(#Degradado_sin_nombre_73-31);}.cls-78{fill:url(#Degradado_sin_nombre_73-32);}.cls-79{fill:url(#Degradado_sin_nombre_73-33);}.cls-80{fill:url(#Degradado_sin_nombre_73-34);}.cls-81{fill:url(#Degradado_sin_nombre_65-45);}.cls-82{fill:url(#Degradado_sin_nombre_65-46);}.cls-83{fill:url(#Degradado_sin_nombre_65-47);}.cls-84{fill:url(#Degradado_sin_nombre_65-48);}.cls-85{fill:url(#Degradado_sin_nombre_65-49);}.cls-86{fill:url(#Degradado_sin_nombre_65-50);}.cls-87{fill:url(#Degradado_sin_nombre_65-51);}.cls-88{fill:#4c227b;}.cls-89{fill:url(#Degradado_sin_nombre_73-35);}.cls-90{fill:url(#Degradado_sin_nombre_73-36);}.cls-91{fill:url(#Degradado_sin_nombre_73-37);}.cls-92{fill:url(#Degradado_sin_nombre_73-38);}.cls-93{fill:url(#Degradado_sin_nombre_73-39);}.cls-94{fill:url(#Degradado_sin_nombre_65-52);}.cls-95{fill:url(#Degradado_sin_nombre_65-53);}.cls-96{fill:url(#Degradado_sin_nombre_65-54);}.cls-97{fill:url(#Degradado_sin_nombre_65-55);}.cls-98{fill:url(#Degradado_sin_nombre_73-40);}.cls-99{fill:url(#Degradado_sin_nombre_73-41);}.cls-100{fill:url(#Degradado_sin_nombre_73-42);}.cls-101{fill:url(#Degradado_sin_nombre_65-56);}.cls-102{fill:url(#Degradado_sin_nombre_65-57);}.cls-103{fill:url(#Degradado_sin_nombre_65-58);}.cls-104{fill:url(#Degradado_sin_nombre_65-59);}.cls-105{fill:url(#Degradado_sin_nombre_73-43);}.cls-106{fill:url(#Degradado_sin_nombre_73-44);}.cls-107{fill:url(#Degradado_sin_nombre_73-45);}.cls-108{fill:url(#Degradado_sin_nombre_65-60);}.cls-109{fill:url(#Degradado_sin_nombre_65-61);}.cls-110{fill:url(#Degradado_sin_nombre_65-62);}.cls-111{fill:url(#Degradado_sin_nombre_65-63);}.cls-112{fill:url(#Degradado_sin_nombre_73-46);}.cls-113{fill:url(#Degradado_sin_nombre_73-47);}.cls-114{fill:url(#Degradado_sin_nombre_73-48);}.cls-115{fill:url(#Degradado_sin_nombre_65-64);}.cls-116{fill:url(#Degradado_sin_nombre_65-65);}.cls-117{fill:url(#Degradado_sin_nombre_65-66);}.cls-118{fill:url(#Degradado_sin_nombre_73-49);}.cls-119{fill:url(#Degradado_sin_nombre_73-50);}.cls-120{fill:url(#Degradado_sin_nombre_73-51);}.cls-121{fill:url(#Degradado_sin_nombre_65-67);}.cls-122{fill:url(#Degradado_sin_nombre_65-68);}.cls-123{fill:url(#Degradado_sin_nombre_65-69);}.cls-124{fill:url(#Degradado_sin_nombre_73-52);}.cls-125{fill:url(#Degradado_sin_nombre_73-53);}.cls-126{fill:url(#Degradado_sin_nombre_65-70);}.cls-127{fill:url(#Degradado_sin_nombre_65-71);}.cls-128{fill:url(#Degradado_sin_nombre_65-72);}.cls-129{fill:url(#Degradado_sin_nombre_65-73);}.cls-130{fill:url(#Degradado_sin_nombre_65-74);}.cls-131{fill:url(#Degradado_sin_nombre_73-54);}.cls-132{fill:url(#Degradado_sin_nombre_73-55);}.cls-133{fill:url(#Degradado_sin_nombre_65-75);}.cls-134{fill:url(#Degradado_sin_nombre_73-56);}.cls-135{fill:url(#Degradado_sin_nombre_65-76);}.cls-136{fill:url(#Degradado_sin_nombre_73-57);}.cls-137{fill:url(#Degradado_sin_nombre_73-58);}.cls-138{fill:url(#Degradado_sin_nombre_73-59);}.cls-139{fill:url(#Degradado_sin_nombre_73-60);}.cls-140{fill:url(#Degradado_sin_nombre_73-61);}.cls-141{fill:url(#Degradado_sin_nombre_73-62);}.cls-142{fill:url(#Degradado_sin_nombre_73-63);}.cls-143{fill:url(#Degradado_sin_nombre_73-64);}.cls-144{fill:url(#Degradado_sin_nombre_73-65);}.cls-145{fill:url(#Degradado_sin_nombre_73-66);}.cls-146{fill:url(#Degradado_sin_nombre_73-67);}.cls-147{fill:url(#Degradado_sin_nombre_73-68);}.cls-148{fill:url(#Degradado_sin_nombre_65-77);}.cls-149{fill:url(#Degradado_sin_nombre_65-78);}.cls-150{fill:url(#Degradado_sin_nombre_65-79);}.cls-151{fill:url(#Degradado_sin_nombre_65-80);}.cls-152{fill:url(#Degradado_sin_nombre_73-69);}.cls-153{fill:url(#Degradado_sin_nombre_73-70);}.cls-154{fill:url(#Degradado_sin_nombre_65-81);}.cls-155{fill:url(#Degradado_sin_nombre_65-82);}.cls-156{fill:url(#Degradado_sin_nombre_65-83);}.cls-157{fill:url(#Degradado_sin_nombre_65-84);}.cls-158{fill:url(#Degradado_sin_nombre_73-71);}.cls-159{fill:url(#Degradado_sin_nombre_73-72);}.cls-160{fill:url(#Degradado_sin_nombre_65-85);}.cls-161{fill:url(#Degradado_sin_nombre_65-86);}.cls-162{fill:url(#Degradado_sin_nombre_65-87);}.cls-163{fill:url(#Degradado_sin_nombre_65-88);}.cls-164{fill:url(#Degradado_sin_nombre_73-73);}.cls-165{fill:url(#Degradado_sin_nombre_73-74);}.cls-166{fill:url(#Degradado_sin_nombre_65-89);}.cls-167{fill:url(#Degradado_sin_nombre_65-90);}.cls-168{fill:url(#Degradado_sin_nombre_65-91);}.cls-169{fill:url(#Degradado_sin_nombre_65-92);}.cls-170{fill:url(#Degradado_sin_nombre_73-75);}.cls-171{fill:url(#Degradado_sin_nombre_65-93);}.cls-172{fill:url(#Degradado_sin_nombre_65-94);}.cls-173{fill:url(#Degradado_sin_nombre_65-95);}.cls-174{fill:url(#Degradado_sin_nombre_65-96);}.cls-175{fill:url(#Degradado_sin_nombre_65-97);}</style><linearGradient id="Degradado_sin_nombre_73" x1="666.95" y1="339.4" x2="674.96" y2="346.08" gradientUnits="userSpaceOnUse"><stop offset="0" stop-color="#486bea"/><stop offset="0.07" stop-color="#445bd1"/><stop offset="0.21" stop-color="#3c3ba2"/><stop offset="0.34" stop-color="#362580"/><stop offset="0.44" stop-color="#32176b"/><stop offset="0.51" stop-color="#311263"/><stop offset="0.6" stop-color="#311262" stop-opacity="0.94"/><stop offset="0.7" stop-color="#30115f" stop-opacity="0.78"/><stop offset="0.83" stop-color="#2f105b" stop-opacity="0.51"/><stop offset="0.96" stop-color="#2e0e55" stop-opacity="0.14"/><stop offset="1" stop-color="#2d0d53" stop-opacity="0"/></linearGradient><linearGradient id="Degradado_sin_nombre_73-2" x1="935.81" y1="461.57" x2="943.82" y2="468.25" xlink:href="#Degradado_sin_nombre_73"/><linearGradient id="Degradado_sin_nombre_73-3" x1="853.46" y1="418.77" x2="861.47" y2="425.46" xlink:href="#Degradado_sin_nombre_73"/><linearGradient id="Degradado_sin_nombre_73-4" x1="864.7" y1="555.58" x2="872.71" y2="562.26" xlink:href="#Degradado_sin_nombre_73"/><linearGradient id="Degradado_sin_nombre_73-5" x1="646.88" y1="403.21" x2="654.89" y2="409.9" xlink:href="#Degradado_sin_nombre_73"/><linearGradient id="Degradado_sin_nombre_73-6" x1="1130.65" y1="332.16" x2="1138.66" y2="338.85" xlink:href="#Degradado_sin_nombre_73"/><linearGradient id="Degradado_sin_nombre_73-7" x1="1233.89" y1="380.68" x2="1241.9" y2="387.36" xlink:href="#Degradado_sin_nombre_73"/><linearGradient id="Degradado_sin_nombre_73-8" x1="854.97" y1="482.02" x2="862.98" y2="488.7" xlink:href="#Degradado_sin_nombre_73"/><linearGradient id="Degradado_sin_nombre_73-9" x1="532.81" y1="632.64" x2="540.82" y2="639.33" xlink:href="#Degradado_sin_nombre_73"/><linearGradient id="Degradado_sin_nombre_73-10" x1="605.56" y1="711.46" x2="613.57" y2="718.15" xlink:href="#Degradado_sin_nombre_73"/><linearGradient id="Degradado_sin_nombre_73-11" x1="711.1" y1="547.4" x2="719.11" y2="554.08" xlink:href="#Degradado_sin_nombre_73"/><linearGradient id="Degradado_sin_nombre_73-12" x1="1007.77" y1="436.26" x2="1015.78" y2="442.94" xlink:href="#Degradado_sin_nombre_73"/><linearGradient id="Degradado_sin_nombre_73-13" x1="907.12" y1="331.85" x2="915.13" y2="338.53" xlink:href="#Degradado_sin_nombre_73"/><linearGradient id="Degradado_sin_nombre_73-14" x1="766.53" y1="237.41" x2="774.54" y2="244.1" xlink:href="#Degradado_sin_nombre_73"/><linearGradient id="Degradado_sin_nombre_73-15" x1="606.63" y1="298.58" x2="614.64" y2="305.26" xlink:href="#Degradado_sin_nombre_73"/><linearGradient id="Degradado_sin_nombre_73-16" x1="488.59" y1="350.88" x2="496.6" y2="357.57" xlink:href="#Degradado_sin_nombre_73"/><linearGradient id="Degradado_sin_nombre_73-17" x1="1196.81" y1="439.52" x2="1204.82" y2="446.21" xlink:href="#Degradado_sin_nombre_73"/><linearGradient id="Degradado_sin_nombre_65" x1="908.68" y1="484.93" x2="914.3" y2="491.74" gradientUnits="userSpaceOnUse"><stop offset="0" stop-color="#c91b5e"/><stop offset="0.58" stop-color="#300d5d"/><stop offset="1" stop-color="#2d0d53" stop-opacity="0"/></linearGradient><linearGradient id="Degradado_sin_nombre_65-2" x1="928" y1="472.16" x2="933.62" y2="478.98" xlink:href="#Degradado_sin_nombre_65"/><linearGradient id="Degradado_sin_nombre_65-3" x1="922.45" y1="459.67" x2="928.07" y2="466.49" xlink:href="#Degradado_sin_nombre_65"/><linearGradient id="Degradado_sin_nombre_65-4" x1="798.05" y1="370.88" x2="803.67" y2="377.7" xlink:href="#Degradado_sin_nombre_65"/><linearGradient id="Degradado_sin_nombre_65-5" x1="658.39" y1="415.28" x2="664.02" y2="422.09" xlink:href="#Degradado_sin_nombre_65"/><linearGradient id="Degradado_sin_nombre_65-6" x1="646.37" y1="302.44" x2="651.99" y2="309.26" xlink:href="#Degradado_sin_nombre_65"/><linearGradient id="Degradado_sin_nombre_65-7" x1="566.37" y1="289.03" x2="571.99" y2="295.85" xlink:href="#Degradado_sin_nombre_65"/><linearGradient id="Degradado_sin_nombre_65-8" x1="700.48" y1="573.43" x2="706.1" y2="580.25" xlink:href="#Degradado_sin_nombre_65"/><linearGradient id="Degradado_sin_nombre_65-9" x1="646.37" y1="667.77" x2="651.99" y2="674.59" xlink:href="#Degradado_sin_nombre_65"/><linearGradient id="Degradado_sin_nombre_65-10" x1="573.77" y1="616.9" x2="579.39" y2="623.72" xlink:href="#Degradado_sin_nombre_65"/><linearGradient id="Degradado_sin_nombre_65-11" x1="535.38" y1="488.34" x2="541" y2="495.16" xlink:href="#Degradado_sin_nombre_65"/><linearGradient id="Degradado_sin_nombre_65-12" x1="1175.87" y1="430.07" x2="1181.49" y2="436.89" xlink:href="#Degradado_sin_nombre_65"/><linearGradient id="Degradado_sin_nombre_65-13" x1="1066.27" y1="392.15" x2="1071.89" y2="398.97" xlink:href="#Degradado_sin_nombre_65"/><linearGradient id="Degradado_sin_nombre_65-14" x1="957.6" y1="413.89" x2="963.22" y2="420.71" xlink:href="#Degradado_sin_nombre_65"/><linearGradient id="Degradado_sin_nombre_65-15" x1="871.58" y1="375.04" x2="877.2" y2="381.86" xlink:href="#Degradado_sin_nombre_65"/><linearGradient id="Degradado_sin_nombre_65-16" x1="991.36" y1="262.21" x2="996.98" y2="269.02" xlink:href="#Degradado_sin_nombre_65"/><linearGradient id="Degradado_sin_nombre_65-17" x1="1231.36" y1="260.82" x2="1236.99" y2="267.64" xlink:href="#Degradado_sin_nombre_65"/><linearGradient id="Degradado_sin_nombre_65-18" x1="1353.45" y1="268.22" x2="1359.07" y2="275.04" xlink:href="#Degradado_sin_nombre_65"/><linearGradient id="Degradado_sin_nombre_65-19" x1="1365.57" y1="357.01" x2="1371.2" y2="363.83" xlink:href="#Degradado_sin_nombre_65"/><linearGradient id="Degradado_sin_nombre_65-20" x1="1325.38" y1="302.55" x2="1331" y2="309.37" xlink:href="#Degradado_sin_nombre_65"/><linearGradient id="Degradado_sin_nombre_65-21" x1="1368.26" y1="281.88" x2="1373.88" y2="288.7" xlink:href="#Degradado_sin_nombre_65"/><linearGradient id="Degradado_sin_nombre_65-22" x1="796.27" y1="729.05" x2="801.89" y2="735.87" xlink:href="#Degradado_sin_nombre_65"/><linearGradient id="Degradado_sin_nombre_65-23" x1="993.06" y1="698.43" x2="998.68" y2="705.24" xlink:href="#Degradado_sin_nombre_65"/><linearGradient id="Degradado_sin_nombre_65-24" x1="975.45" y1="633.34" x2="981.07" y2="640.16" xlink:href="#Degradado_sin_nombre_65"/><linearGradient id="Degradado_sin_nombre_65-25" x1="868.25" y1="507.76" x2="873.87" y2="514.58" xlink:href="#Degradado_sin_nombre_65"/><linearGradient id="Degradado_sin_nombre_65-26" x1="1080.35" y1="489.39" x2="1085.97" y2="496.2" xlink:href="#Degradado_sin_nombre_65"/><linearGradient id="Degradado_sin_nombre_65-27" x1="1068.87" y1="511.59" x2="1074.49" y2="518.41" xlink:href="#Degradado_sin_nombre_65"/><linearGradient id="Degradado_sin_nombre_65-28" x1="982.34" y1="585.87" x2="987.96" y2="592.68" xlink:href="#Degradado_sin_nombre_65"/><linearGradient id="Degradado_sin_nombre_65-29" x1="735.78" y1="631.04" x2="741.4" y2="637.86" xlink:href="#Degradado_sin_nombre_65"/><linearGradient id="Degradado_sin_nombre_65-30" x1="565.03" y1="519.25" x2="570.65" y2="526.07" xlink:href="#Degradado_sin_nombre_65"/><linearGradient id="Degradado_sin_nombre_65-31" x1="658.44" y1="248.95" x2="664.07" y2="255.77" xlink:href="#Degradado_sin_nombre_65"/><linearGradient id="Degradado_sin_nombre_65-32" x1="945.74" y1="282.64" x2="951.36" y2="289.46" xlink:href="#Degradado_sin_nombre_65"/><linearGradient id="Degradado_sin_nombre_73-18" x1="318.39" y1="654.9" x2="326.4" y2="661.59" xlink:href="#Degradado_sin_nombre_73"/><linearGradient id="Degradado_sin_nombre_73-19" x1="204.32" y1="884.33" x2="212.33" y2="891.02" xlink:href="#Degradado_sin_nombre_73"/><linearGradient id="Degradado_sin_nombre_73-20" x1="277.08" y1="963.15" x2="285.08" y2="969.84" xlink:href="#Degradado_sin_nombre_73"/><linearGradient id="Degradado_sin_nombre_73-21" x1="108.59" y1="736.46" x2="116.6" y2="743.15" xlink:href="#Degradado_sin_nombre_73"/><linearGradient id="Degradado_sin_nombre_65-33" x1="329.91" y1="666.96" x2="335.53" y2="673.78" xlink:href="#Degradado_sin_nombre_65"/><linearGradient id="Degradado_sin_nombre_65-34" x1="150.61" y1="825.31" x2="156.23" y2="832.13" xlink:href="#Degradado_sin_nombre_65"/><linearGradient id="Degradado_sin_nombre_65-35" x1="245.28" y1="868.59" x2="250.9" y2="875.41" xlink:href="#Degradado_sin_nombre_65"/><linearGradient id="Degradado_sin_nombre_65-36" x1="206.9" y1="740.03" x2="212.52" y2="746.85" xlink:href="#Degradado_sin_nombre_65"/><linearGradient id="Degradado_sin_nombre_65-37" x1="155.31" y1="894.94" x2="160.93" y2="901.76" xlink:href="#Degradado_sin_nombre_65"/><linearGradient id="Degradado_sin_nombre_73-22" x1="116.78" y1="90.15" x2="124.79" y2="96.84" xlink:href="#Degradado_sin_nombre_73"/><linearGradient id="Degradado_sin_nombre_73-23" x1="303.28" y1="169.53" x2="311.29" y2="176.21" xlink:href="#Degradado_sin_nombre_73"/><linearGradient id="Degradado_sin_nombre_73-24" x1="314.53" y1="306.33" x2="322.53" y2="313.02" xlink:href="#Degradado_sin_nombre_73"/><linearGradient id="Degradado_sin_nombre_73-25" x1="96.7" y1="153.97" x2="104.71" y2="160.65" xlink:href="#Degradado_sin_nombre_73"/><linearGradient id="Degradado_sin_nombre_73-26" x1="304.79" y1="232.77" x2="312.8" y2="239.46" xlink:href="#Degradado_sin_nombre_73"/><linearGradient id="Degradado_sin_nombre_73-27" x1="160.93" y1="298.15" x2="168.94" y2="304.84" xlink:href="#Degradado_sin_nombre_73"/><linearGradient id="Degradado_sin_nombre_65-38" x1="247.88" y1="121.64" x2="253.5" y2="128.45" xlink:href="#Degradado_sin_nombre_65"/><linearGradient id="Degradado_sin_nombre_65-39" x1="108.22" y1="166.03" x2="113.84" y2="172.85" xlink:href="#Degradado_sin_nombre_65"/><linearGradient id="Degradado_sin_nombre_65-40" x1="150.3" y1="324.19" x2="155.92" y2="331.01" xlink:href="#Degradado_sin_nombre_65"/><linearGradient id="Degradado_sin_nombre_65-41" x1="321.4" y1="125.8" x2="327.03" y2="132.62" xlink:href="#Degradado_sin_nombre_65"/><linearGradient id="Degradado_sin_nombre_65-42" x1="318.07" y1="258.52" x2="323.69" y2="265.34" xlink:href="#Degradado_sin_nombre_65"/><linearGradient id="Degradado_sin_nombre_65-43" x1="185.6" y1="381.8" x2="191.23" y2="388.62" xlink:href="#Degradado_sin_nombre_65"/><linearGradient id="Degradado_sin_nombre_65-44" x1="108.27" y1="-0.29" x2="113.89" y2="6.52" xlink:href="#Degradado_sin_nombre_65"/><linearGradient id="Degradado_sin_nombre_73-28" x1="1572.62" y1="127.43" x2="1580.63" y2="134.11" xlink:href="#Degradado_sin_nombre_73"/><linearGradient id="Degradado_sin_nombre_73-29" x1="1759.12" y1="206.8" x2="1767.13" y2="213.49" xlink:href="#Degradado_sin_nombre_73"/><linearGradient id="Degradado_sin_nombre_73-30" x1="1770.37" y1="343.61" x2="1778.37" y2="350.29" xlink:href="#Degradado_sin_nombre_73"/><linearGradient id="Degradado_sin_nombre_73-31" x1="1552.54" y1="191.24" x2="1560.55" y2="197.92" xlink:href="#Degradado_sin_nombre_73"/><linearGradient id="Degradado_sin_nombre_73-32" x1="1760.63" y1="270.05" x2="1768.64" y2="276.73" xlink:href="#Degradado_sin_nombre_73"/><linearGradient id="Degradado_sin_nombre_73-33" x1="1616.77" y1="335.43" x2="1624.77" y2="342.11" xlink:href="#Degradado_sin_nombre_73"/><linearGradient id="Degradado_sin_nombre_73-34" x1="1672.2" y1="25.44" x2="1680.21" y2="32.12" xlink:href="#Degradado_sin_nombre_73"/><linearGradient id="Degradado_sin_nombre_65-45" x1="1703.71" y1="158.91" x2="1709.34" y2="165.73" xlink:href="#Degradado_sin_nombre_65"/><linearGradient id="Degradado_sin_nombre_65-46" x1="1564.06" y1="203.3" x2="1569.68" y2="210.12" xlink:href="#Degradado_sin_nombre_65"/><linearGradient id="Degradado_sin_nombre_65-47" x1="1606.14" y1="361.46" x2="1611.76" y2="368.28" xlink:href="#Degradado_sin_nombre_65"/><linearGradient id="Degradado_sin_nombre_65-48" x1="1777.24" y1="163.07" x2="1782.87" y2="169.89" xlink:href="#Degradado_sin_nombre_65"/><linearGradient id="Degradado_sin_nombre_65-49" x1="1773.91" y1="295.79" x2="1779.53" y2="302.61" xlink:href="#Degradado_sin_nombre_65"/><linearGradient id="Degradado_sin_nombre_65-50" x1="1641.44" y1="419.07" x2="1647.07" y2="425.89" xlink:href="#Degradado_sin_nombre_65"/><linearGradient id="Degradado_sin_nombre_65-51" x1="1564.11" y1="36.98" x2="1569.73" y2="43.8" xlink:href="#Degradado_sin_nombre_65"/><linearGradient id="Degradado_sin_nombre_73-35" x1="1510.46" y1="30.64" x2="1518.47" y2="37.33" xlink:href="#Degradado_sin_nombre_73"/><linearGradient id="Degradado_sin_nombre_73-36" x1="1521.71" y1="167.45" x2="1529.72" y2="174.13" xlink:href="#Degradado_sin_nombre_73"/><linearGradient id="Degradado_sin_nombre_73-37" x1="1303.88" y1="15.08" x2="1311.89" y2="21.77" xlink:href="#Degradado_sin_nombre_73"/><linearGradient id="Degradado_sin_nombre_73-38" x1="1511.97" y1="93.89" x2="1519.98" y2="100.57" xlink:href="#Degradado_sin_nombre_73"/><linearGradient id="Degradado_sin_nombre_73-39" x1="1368.11" y1="159.27" x2="1376.12" y2="165.95" xlink:href="#Degradado_sin_nombre_73"/><linearGradient id="Degradado_sin_nombre_65-52" x1="1315.4" y1="27.15" x2="1321.02" y2="33.96" xlink:href="#Degradado_sin_nombre_65"/><linearGradient id="Degradado_sin_nombre_65-53" x1="1357.48" y1="185.3" x2="1363.1" y2="192.12" xlink:href="#Degradado_sin_nombre_65"/><linearGradient id="Degradado_sin_nombre_65-54" x1="1525.25" y1="119.63" x2="1530.88" y2="126.45" xlink:href="#Degradado_sin_nombre_65"/><linearGradient id="Degradado_sin_nombre_65-55" x1="1392.79" y1="242.91" x2="1398.41" y2="249.73" xlink:href="#Degradado_sin_nombre_65"/><linearGradient id="Degradado_sin_nombre_73-40" x1="452.98" y1="36.04" x2="460.99" y2="42.73" xlink:href="#Degradado_sin_nombre_73"/><linearGradient id="Degradado_sin_nombre_73-41" x1="517.2" y1="180.23" x2="525.21" y2="186.91" xlink:href="#Degradado_sin_nombre_73"/><linearGradient id="Degradado_sin_nombre_73-42" x1="243.18" y1="117.6" x2="251.18" y2="124.29" xlink:href="#Degradado_sin_nombre_73"/><linearGradient id="Degradado_sin_nombre_65-56" x1="604.15" y1="3.71" x2="609.77" y2="10.53" xlink:href="#Degradado_sin_nombre_65"/><linearGradient id="Degradado_sin_nombre_65-57" x1="464.49" y1="48.11" x2="470.11" y2="54.92" xlink:href="#Degradado_sin_nombre_65"/><linearGradient id="Degradado_sin_nombre_65-58" x1="341.48" y1="121.17" x2="347.1" y2="127.99" xlink:href="#Degradado_sin_nombre_65"/><linearGradient id="Degradado_sin_nombre_65-59" x1="371.13" y1="152.08" x2="376.75" y2="158.9" xlink:href="#Degradado_sin_nombre_65"/><linearGradient id="Degradado_sin_nombre_73-43" x1="945.96" y1="32.86" x2="953.96" y2="39.55" xlink:href="#Degradado_sin_nombre_73"/><linearGradient id="Degradado_sin_nombre_73-44" x1="1010.18" y1="177.05" x2="1018.19" y2="183.74" xlink:href="#Degradado_sin_nombre_73"/><linearGradient id="Degradado_sin_nombre_73-45" x1="736.15" y1="114.42" x2="744.16" y2="121.11" xlink:href="#Degradado_sin_nombre_73"/><linearGradient id="Degradado_sin_nombre_65-60" x1="1097.13" y1="0.53" x2="1102.75" y2="7.35" xlink:href="#Degradado_sin_nombre_65"/><linearGradient id="Degradado_sin_nombre_65-61" x1="957.47" y1="44.93" x2="963.09" y2="51.75" xlink:href="#Degradado_sin_nombre_65"/><linearGradient id="Degradado_sin_nombre_65-62" x1="834.46" y1="117.99" x2="840.08" y2="124.81" xlink:href="#Degradado_sin_nombre_65"/><linearGradient id="Degradado_sin_nombre_65-63" x1="864.11" y1="148.9" x2="869.73" y2="155.72" xlink:href="#Degradado_sin_nombre_65"/><linearGradient id="Degradado_sin_nombre_73-46" x1="689.78" y1="97.33" x2="697.79" y2="104.02" xlink:href="#Degradado_sin_nombre_73"/><linearGradient id="Degradado_sin_nombre_73-47" x1="607.42" y1="54.54" x2="615.43" y2="61.22" xlink:href="#Degradado_sin_nombre_73"/><linearGradient id="Degradado_sin_nombre_73-48" x1="608.93" y1="117.78" x2="616.94" y2="124.47" xlink:href="#Degradado_sin_nombre_73"/><linearGradient id="Degradado_sin_nombre_65-64" x1="681.96" y1="107.92" x2="687.59" y2="114.74" xlink:href="#Degradado_sin_nombre_65"/><linearGradient id="Degradado_sin_nombre_65-65" x1="676.41" y1="95.44" x2="682.04" y2="102.26" xlink:href="#Degradado_sin_nombre_65"/><linearGradient id="Degradado_sin_nombre_65-66" x1="711.56" y1="49.66" x2="717.18" y2="56.47" xlink:href="#Degradado_sin_nombre_65"/><linearGradient id="Degradado_sin_nombre_73-49" x1="520.52" y1="930.23" x2="528.53" y2="936.91" xlink:href="#Degradado_sin_nombre_73"/><linearGradient id="Degradado_sin_nombre_73-50" x1="438.16" y1="887.43" x2="446.17" y2="894.12" xlink:href="#Degradado_sin_nombre_73"/><linearGradient id="Degradado_sin_nombre_73-51" x1="439.67" y1="950.68" x2="447.68" y2="957.36" xlink:href="#Degradado_sin_nombre_73"/><linearGradient id="Degradado_sin_nombre_65-67" x1="512.7" y1="940.82" x2="518.33" y2="947.63" xlink:href="#Degradado_sin_nombre_65"/><linearGradient id="Degradado_sin_nombre_65-68" x1="507.16" y1="928.33" x2="512.78" y2="935.15" xlink:href="#Degradado_sin_nombre_65"/><linearGradient id="Degradado_sin_nombre_65-69" x1="542.3" y1="882.55" x2="547.92" y2="889.37" xlink:href="#Degradado_sin_nombre_65"/><linearGradient id="Degradado_sin_nombre_73-52" x1="785.75" y1="844.86" x2="793.76" y2="851.55" xlink:href="#Degradado_sin_nombre_73"/><linearGradient id="Degradado_sin_nombre_73-53" x1="849.98" y1="989.05" x2="857.99" y2="995.73" xlink:href="#Degradado_sin_nombre_73"/><linearGradient id="Degradado_sin_nombre_65-70" x1="936.93" y1="812.53" x2="942.55" y2="819.35" xlink:href="#Degradado_sin_nombre_65"/><linearGradient id="Degradado_sin_nombre_65-71" x1="797.27" y1="856.93" x2="802.89" y2="863.74" xlink:href="#Degradado_sin_nombre_65"/><linearGradient id="Degradado_sin_nombre_65-72" x1="839.35" y1="1015.08" x2="844.97" y2="1021.9" xlink:href="#Degradado_sin_nombre_65"/><linearGradient id="Degradado_sin_nombre_65-73" x1="674.26" y1="929.99" x2="679.88" y2="936.81" xlink:href="#Degradado_sin_nombre_65"/><linearGradient id="Degradado_sin_nombre_65-74" x1="703.9" y1="960.9" x2="709.53" y2="967.72" xlink:href="#Degradado_sin_nombre_65"/><linearGradient id="Degradado_sin_nombre_73-54" x1="145.77" y1="489.12" x2="153.78" y2="495.81" xlink:href="#Degradado_sin_nombre_73"/><linearGradient id="Degradado_sin_nombre_73-55" x1="144.97" y1="997.05" x2="152.98" y2="1003.73" xlink:href="#Degradado_sin_nombre_73"/><linearGradient id="Degradado_sin_nombre_65-75" x1="156.48" y1="1009.11" x2="162.1" y2="1015.93" xlink:href="#Degradado_sin_nombre_65"/><linearGradient id="Degradado_sin_nombre_73-56" x1="375.17" y1="918.95" x2="383.18" y2="925.64" xlink:href="#Degradado_sin_nombre_73"/><linearGradient id="Degradado_sin_nombre_65-76" x1="408.37" y1="938.75" x2="413.99" y2="945.57" xlink:href="#Degradado_sin_nombre_65"/><linearGradient id="Degradado_sin_nombre_73-57" x1="551.83" y1="1015.94" x2="559.84" y2="1022.63" xlink:href="#Degradado_sin_nombre_73"/><linearGradient id="Degradado_sin_nombre_73-58" x1="364.75" y1="607.91" x2="372.76" y2="614.59" xlink:href="#Degradado_sin_nombre_73"/><linearGradient id="Degradado_sin_nombre_73-59" x1="320.22" y1="574.17" x2="328.23" y2="580.86" xlink:href="#Degradado_sin_nombre_73"/><linearGradient id="Degradado_sin_nombre_73-60" x1="197.42" y1="554.6" x2="205.43" y2="561.29" xlink:href="#Degradado_sin_nombre_73"/><linearGradient id="Degradado_sin_nombre_73-61" x1="191.66" y1="837.35" x2="199.67" y2="844.03" xlink:href="#Degradado_sin_nombre_73"/><linearGradient id="Degradado_sin_nombre_73-62" x1="150.19" y1="795.48" x2="158.2" y2="802.17" xlink:href="#Degradado_sin_nombre_73"/><linearGradient id="Degradado_sin_nombre_73-63" x1="294.78" y1="775.5" x2="302.79" y2="782.19" xlink:href="#Degradado_sin_nombre_73"/><linearGradient id="Degradado_sin_nombre_73-64" x1="406.07" y1="754.92" x2="414.08" y2="761.6" xlink:href="#Degradado_sin_nombre_73"/><linearGradient id="Degradado_sin_nombre_73-65" x1="535.53" y1="661.81" x2="543.54" y2="668.5" xlink:href="#Degradado_sin_nombre_73"/><linearGradient id="Degradado_sin_nombre_73-66" x1="673.6" y1="858.46" x2="681.61" y2="865.15" xlink:href="#Degradado_sin_nombre_73"/><linearGradient id="Degradado_sin_nombre_73-67" x1="336.61" y1="352.52" x2="344.62" y2="359.21" xlink:href="#Degradado_sin_nombre_73"/><linearGradient id="Degradado_sin_nombre_73-68" x1="436.19" y1="250.53" x2="444.2" y2="257.22" xlink:href="#Degradado_sin_nombre_73"/><linearGradient id="Degradado_sin_nombre_65-77" x1="467.71" y1="384.01" x2="473.33" y2="390.82" xlink:href="#Degradado_sin_nombre_65"/><linearGradient id="Degradado_sin_nombre_65-78" x1="316.03" y1="315.56" x2="321.65" y2="322.38" xlink:href="#Degradado_sin_nombre_65"/><linearGradient id="Degradado_sin_nombre_65-79" x1="328.1" y1="262.08" x2="333.72" y2="268.89" xlink:href="#Degradado_sin_nombre_65"/><linearGradient id="Degradado_sin_nombre_65-80" x1="533.76" y1="162.02" x2="539.38" y2="168.84" xlink:href="#Degradado_sin_nombre_65"/><linearGradient id="Degradado_sin_nombre_73-69" x1="1546.19" y1="978.6" x2="1554.2" y2="985.28" xlink:href="#Degradado_sin_nombre_73"/><linearGradient id="Degradado_sin_nombre_73-70" x1="1645.77" y1="876.61" x2="1653.78" y2="883.29" xlink:href="#Degradado_sin_nombre_73"/><linearGradient id="Degradado_sin_nombre_65-81" x1="1677.29" y1="1010.08" x2="1682.91" y2="1016.9" xlink:href="#Degradado_sin_nombre_65"/><linearGradient id="Degradado_sin_nombre_65-82" x1="1525.6" y1="941.64" x2="1531.23" y2="948.45" xlink:href="#Degradado_sin_nombre_65"/><linearGradient id="Degradado_sin_nombre_65-83" x1="1537.68" y1="888.15" x2="1543.3" y2="894.97" xlink:href="#Degradado_sin_nombre_65"/><linearGradient id="Degradado_sin_nombre_65-84" x1="1743.34" y1="788.1" x2="1748.96" y2="794.91" xlink:href="#Degradado_sin_nombre_65"/><linearGradient id="Degradado_sin_nombre_73-71" x1="1622.77" y1="715.41" x2="1630.78" y2="722.09" xlink:href="#Degradado_sin_nombre_73"/><linearGradient id="Degradado_sin_nombre_73-72" x1="1722.36" y1="613.42" x2="1730.36" y2="620.1" xlink:href="#Degradado_sin_nombre_73"/><linearGradient id="Degradado_sin_nombre_65-85" x1="1753.87" y1="746.89" x2="1759.49" y2="753.71" xlink:href="#Degradado_sin_nombre_65"/><linearGradient id="Degradado_sin_nombre_65-86" x1="1602.19" y1="678.45" x2="1607.81" y2="685.26" xlink:href="#Degradado_sin_nombre_65"/><linearGradient id="Degradado_sin_nombre_65-87" x1="1614.26" y1="624.96" x2="1619.89" y2="631.78" xlink:href="#Degradado_sin_nombre_65"/><linearGradient id="Degradado_sin_nombre_65-88" x1="1819.93" y1="524.91" x2="1825.55" y2="531.72" xlink:href="#Degradado_sin_nombre_65"/><linearGradient id="Degradado_sin_nombre_73-73" x1="1146.81" y1="997.4" x2="1154.82" y2="1004.09" xlink:href="#Degradado_sin_nombre_73"/><linearGradient id="Degradado_sin_nombre_73-74" x1="1246.39" y1="895.41" x2="1254.4" y2="902.1" xlink:href="#Degradado_sin_nombre_73"/><linearGradient id="Degradado_sin_nombre_65-89" x1="1277.91" y1="1028.89" x2="1283.53" y2="1035.7" xlink:href="#Degradado_sin_nombre_65"/><linearGradient id="Degradado_sin_nombre_65-90" x1="1126.23" y1="960.44" x2="1131.85" y2="967.26" xlink:href="#Degradado_sin_nombre_65"/><linearGradient id="Degradado_sin_nombre_65-91" x1="1138.3" y1="906.96" x2="1143.92" y2="913.77" xlink:href="#Degradado_sin_nombre_65"/><linearGradient id="Degradado_sin_nombre_65-92" x1="1343.96" y1="806.9" x2="1349.58" y2="813.72" xlink:href="#Degradado_sin_nombre_65"/><linearGradient id="Degradado_sin_nombre_73-75" x1="1517.37" y1="338.99" x2="1525.38" y2="345.67" xlink:href="#Degradado_sin_nombre_73"/><linearGradient id="Degradado_sin_nombre_65-93" x1="1548.89" y1="472.46" x2="1554.51" y2="479.28" xlink:href="#Degradado_sin_nombre_65"/><linearGradient id="Degradado_sin_nombre_65-94" x1="1397.2" y1="404.02" x2="1402.83" y2="410.84" xlink:href="#Degradado_sin_nombre_65"/><linearGradient id="Degradado_sin_nombre_65-95" x1="1409.28" y1="350.53" x2="1414.9" y2="357.35" xlink:href="#Degradado_sin_nombre_65"/><linearGradient id="Degradado_sin_nombre_65-96" x1="1614.94" y1="250.48" x2="1620.56" y2="257.3" xlink:href="#Degradado_sin_nombre_65"/><linearGradient id="Degradado_sin_nombre_65-97" x1="1581.22" y1="586.19" x2="1586.84" y2="593.01" xlink:href="#Degradado_sin_nombre_65"/></defs><title>Asset 36</title><g id="Layer_2" data-name="Layer 2"><g id="background"><rect class="cls-1" y="1.68" width="1919.58" height="1079.76"/></g><g id="purple_stars" data-name="purple stars"><polygon class="cls-2" points="935.77 386.28 937.87 390.53 942.56 391.21 939.16 394.52 939.97 399.19 935.77 396.98 931.58 399.19 932.38 394.52 928.99 391.21 933.68 390.53 935.77 386.28"/><polygon class="cls-2" points="713.16 649.11 715.26 653.36 719.95 654.04 716.55 657.34 717.35 662.01 713.16 659.81 708.97 662.01 709.77 657.34 706.38 654.04 711.07 653.36 713.16 649.11"/><polygon class="cls-2" points="571.04 564.72 573.13 568.97 577.82 569.65 574.43 572.95 575.23 577.62 571.04 575.42 566.85 577.62 567.65 572.95 564.25 569.65 568.94 568.97 571.04 564.72"/><polygon class="cls-2" points="738 324.77 740.09 329.02 744.78 329.7 741.39 333.01 742.19 337.68 738 335.47 733.8 337.68 734.6 333.01 731.21 329.7 735.9 329.02 738 324.77"/><polygon class="cls-2" points="546.54 383.72 548.64 387.97 553.32 388.65 549.93 391.95 550.73 396.62 546.54 394.42 542.35 396.62 543.15 391.95 539.76 388.65 544.44 387.97 546.54 383.72"/><polygon class="cls-2" points="1029.43 707.69 1031.52 711.94 1036.21 712.62 1032.82 715.92 1033.62 720.59 1029.43 718.39 1025.23 720.59 1026.04 715.92 1022.64 712.62 1027.33 711.94 1029.43 707.69"/><polygon class="cls-2" points="1095.64 440.46 1097.74 444.71 1102.42 445.39 1099.03 448.69 1099.83 453.36 1095.64 451.16 1091.45 453.36 1092.25 448.69 1088.86 445.39 1093.55 444.71 1095.64 440.46"/><polygon class="cls-2" points="1181.77 236.36 1183.86 240.6 1188.55 241.28 1185.16 244.59 1185.96 249.26 1181.77 247.06 1177.57 249.26 1178.37 244.59 1174.98 241.28 1179.67 240.6 1181.77 236.36"/><polygon class="cls-2" points="1379.13 451.19 1381.23 455.44 1385.91 456.12 1382.52 459.43 1383.32 464.1 1379.13 461.89 1374.94 464.1 1375.74 459.43 1372.35 456.12 1377.04 455.44 1379.13 451.19"/><polygon class="cls-2" points="855.38 642.88 857.48 647.13 862.16 647.81 858.77 651.12 859.57 655.78 855.38 653.58 851.19 655.78 851.99 651.12 848.6 647.81 853.28 647.13 855.38 642.88"/><polygon class="cls-2" points="1042.13 573.72 1044.22 577.97 1048.91 578.65 1045.52 581.96 1046.32 586.63 1042.13 584.42 1037.93 586.63 1038.73 581.96 1035.34 578.65 1040.03 577.97 1042.13 573.72"/><polygon class="cls-2" points="899.6 248.57 901.69 252.82 906.38 253.5 902.99 256.8 903.79 261.47 899.6 259.27 895.4 261.47 896.2 256.8 892.81 253.5 897.5 252.82 899.6 248.57"/><polygon class="cls-2" points="495.89 233.79 497.99 238.04 502.68 238.72 499.29 242.03 500.09 246.7 495.89 244.5 491.7 246.7 492.5 242.03 489.11 238.72 493.8 238.04 495.89 233.79"/><polygon class="cls-2" points="556.31 736.58 558.4 740.82 563.09 741.5 559.7 744.81 560.5 749.48 556.31 747.28 552.12 749.48 552.92 744.81 549.52 741.5 554.21 740.82 556.31 736.58"/><polygon class="cls-3" points="669.9 339.45 670.75 341.01 672.3 341.86 670.75 342.71 669.9 344.26 669.05 342.71 667.49 341.86 669.05 341.01 669.9 339.45"/><polygon class="cls-4" points="938.76 461.62 939.61 463.18 941.16 464.02 939.61 464.87 938.76 466.43 937.91 464.87 936.35 464.02 937.91 463.18 938.76 461.62"/><polygon class="cls-5" points="856.4 418.83 857.25 420.38 858.81 421.23 857.25 422.08 856.4 423.63 855.55 422.08 854 421.23 855.55 420.38 856.4 418.83"/><polygon class="cls-6" points="867.65 555.63 868.5 557.19 870.05 558.04 868.5 558.89 867.65 560.44 866.8 558.89 865.24 558.04 866.8 557.19 867.65 555.63"/><polygon class="cls-7" points="649.82 403.27 650.67 404.82 652.23 405.67 650.67 406.52 649.82 408.07 648.97 406.52 647.42 405.67 648.97 404.82 649.82 403.27"/><polygon class="cls-8" points="1133.59 332.21 1134.44 333.77 1135.99 334.62 1134.44 335.47 1133.59 337.02 1132.74 335.47 1131.19 334.62 1132.74 333.77 1133.59 332.21"/><polygon class="cls-9" points="1236.84 380.73 1237.69 382.28 1239.24 383.13 1237.69 383.98 1236.84 385.54 1235.99 383.98 1234.43 383.13 1235.99 382.28 1236.84 380.73"/><polygon class="cls-10" points="857.91 482.07 858.76 483.63 860.32 484.48 858.76 485.33 857.91 486.88 857.06 485.33 855.51 484.48 857.06 483.63 857.91 482.07"/><polygon class="cls-11" points="535.75 632.7 536.6 634.25 538.16 635.1 536.6 635.95 535.75 637.5 534.9 635.95 533.35 635.1 534.9 634.25 535.75 632.7"/><polygon class="cls-12" points="608.5 711.52 609.36 713.07 610.91 713.92 609.36 714.77 608.5 716.32 607.66 714.77 606.1 713.92 607.66 713.07 608.5 711.52"/><polygon class="cls-13" points="714.05 547.45 714.9 549.01 716.45 549.86 714.9 550.71 714.05 552.26 713.2 550.71 711.64 549.86 713.2 549.01 714.05 547.45"/><polygon class="cls-14" points="1010.71 436.31 1011.56 437.86 1013.12 438.71 1011.56 439.56 1010.71 441.12 1009.87 439.56 1008.31 438.71 1009.87 437.86 1010.71 436.31"/><polygon class="cls-15" points="910.06 331.9 910.91 333.45 912.47 334.3 910.91 335.15 910.06 336.71 909.21 335.15 907.66 334.3 909.21 333.45 910.06 331.9"/><polygon class="cls-16" points="769.48 237.46 770.33 239.02 771.88 239.87 770.33 240.72 769.48 242.27 768.63 240.72 767.08 239.87 768.63 239.02 769.48 237.46"/><polygon class="cls-17" points="609.58 298.63 610.43 300.19 611.98 301.04 610.43 301.89 609.58 303.44 608.73 301.89 607.17 301.04 608.73 300.19 609.58 298.63"/><polygon class="cls-18" points="491.53 350.94 492.38 352.49 493.94 353.34 492.38 354.19 491.53 355.75 490.68 354.19 489.13 353.34 490.68 352.49 491.53 350.94"/><polygon class="cls-19" points="1199.76 439.58 1200.61 441.13 1202.16 441.98 1200.61 442.83 1199.76 444.38 1198.91 442.83 1197.35 441.98 1198.91 441.13 1199.76 439.58"/><polygon class="cls-20" points="910.53 485.22 911.22 486.48 912.48 487.17 911.22 487.86 910.53 489.12 909.84 487.86 908.58 487.17 909.84 486.48 910.53 485.22"/><polygon class="cls-21" points="929.85 472.45 930.54 473.71 931.8 474.4 930.54 475.09 929.85 476.35 929.16 475.09 927.9 474.4 929.16 473.71 929.85 472.45"/><polygon class="cls-22" points="924.3 459.96 924.99 461.22 926.25 461.91 924.99 462.6 924.3 463.86 923.61 462.6 922.35 461.91 923.61 461.22 924.3 459.96"/><polygon class="cls-23" points="799.9 371.17 800.59 372.44 801.85 373.12 800.59 373.81 799.9 375.07 799.21 373.81 797.95 373.12 799.21 372.44 799.9 371.17"/><polygon class="cls-24" points="660.24 415.57 660.93 416.83 662.19 417.52 660.93 418.21 660.24 419.47 659.55 418.21 658.29 417.52 659.55 416.83 660.24 415.57"/><polygon class="cls-25" points="648.22 302.73 648.91 303.99 650.17 304.68 648.91 305.37 648.22 306.63 647.53 305.37 646.27 304.68 647.53 303.99 648.22 302.73"/><polygon class="cls-26" points="568.22 289.32 568.9 290.58 570.16 291.27 568.9 291.96 568.22 293.22 567.53 291.96 566.27 291.27 567.53 290.58 568.22 289.32"/><polygon class="cls-27" points="702.33 573.73 703.01 574.99 704.27 575.67 703.01 576.37 702.33 577.63 701.64 576.37 700.38 575.67 701.64 574.99 702.33 573.73"/><polygon class="cls-28" points="648.22 668.07 648.91 669.33 650.17 670.01 648.91 670.7 648.22 671.96 647.53 670.7 646.27 670.01 647.53 669.33 648.22 668.07"/><polygon class="cls-29" points="575.61 617.2 576.3 618.46 577.56 619.14 576.3 619.83 575.61 621.1 574.92 619.83 573.66 619.14 574.92 618.46 575.61 617.2"/><polygon class="cls-30" points="537.23 488.64 537.92 489.9 539.18 490.58 537.92 491.27 537.23 492.53 536.54 491.27 535.28 490.58 536.54 489.9 537.23 488.64"/><polygon class="cls-31" points="1177.72 430.37 1178.41 431.63 1179.67 432.32 1178.41 433.01 1177.72 434.27 1177.03 433.01 1175.77 432.32 1177.03 431.63 1177.72 430.37"/><polygon class="cls-32" points="1068.12 392.45 1068.81 393.71 1070.07 394.4 1068.81 395.08 1068.12 396.35 1067.43 395.08 1066.17 394.4 1067.43 393.71 1068.12 392.45"/><polygon class="cls-33" points="959.45 414.18 960.13 415.44 961.39 416.13 960.13 416.82 959.45 418.08 958.76 416.82 957.5 416.13 958.76 415.44 959.45 414.18"/><polygon class="cls-34" points="873.43 375.34 874.12 376.6 875.38 377.29 874.12 377.98 873.43 379.24 872.74 377.98 871.48 377.29 872.74 376.6 873.43 375.34"/><polygon class="cls-35" points="993.2 262.5 993.89 263.76 995.15 264.45 993.89 265.14 993.2 266.4 992.51 265.14 991.25 264.45 992.51 263.76 993.2 262.5"/><polygon class="cls-36" points="1233.21 261.11 1233.9 262.37 1235.16 263.06 1233.9 263.75 1233.21 265.01 1232.53 263.75 1231.26 263.06 1232.53 262.37 1233.21 261.11"/><polygon class="cls-37" points="1355.3 268.51 1355.99 269.77 1357.25 270.46 1355.99 271.15 1355.3 272.41 1354.61 271.15 1353.35 270.46 1354.61 269.77 1355.3 268.51"/><polygon class="cls-38" points="1367.42 357.3 1368.11 358.56 1369.37 359.25 1368.11 359.94 1367.42 361.2 1366.73 359.94 1365.47 359.25 1366.73 358.56 1367.42 357.3"/><polygon class="cls-39" points="1327.23 302.84 1327.92 304.11 1329.18 304.79 1327.92 305.48 1327.23 306.74 1326.54 305.48 1325.28 304.79 1326.54 304.11 1327.23 302.84"/><polygon class="cls-40" points="1370.11 282.17 1370.8 283.43 1372.06 284.12 1370.8 284.81 1370.11 286.07 1369.42 284.81 1368.16 284.12 1369.42 283.43 1370.11 282.17"/><polygon class="cls-41" points="798.12 729.35 798.81 730.61 800.07 731.3 798.81 731.99 798.12 733.25 797.43 731.99 796.17 731.3 797.43 730.61 798.12 729.35"/><polygon class="cls-42" points="994.91 698.72 995.6 699.98 996.86 700.67 995.6 701.36 994.91 702.62 994.22 701.36 992.96 700.67 994.22 699.98 994.91 698.72"/><polygon class="cls-43" points="977.3 633.63 977.99 634.89 979.25 635.58 977.99 636.27 977.3 637.53 976.61 636.27 975.35 635.58 976.61 634.89 977.3 633.63"/><polygon class="cls-44" points="870.1 508.06 870.79 509.32 872.05 510 870.79 510.69 870.1 511.95 869.41 510.69 868.15 510 869.41 509.32 870.1 508.06"/><polygon class="cls-45" points="1082.2 489.68 1082.89 490.94 1084.15 491.63 1082.89 492.32 1082.2 493.58 1081.51 492.32 1080.25 491.63 1081.51 490.94 1082.2 489.68"/><polygon class="cls-46" points="1070.71 511.88 1071.4 513.14 1072.66 513.83 1071.4 514.52 1070.71 515.78 1070.03 514.52 1068.77 513.83 1070.03 513.14 1070.71 511.88"/><polygon class="cls-47" points="984.19 586.16 984.88 587.42 986.14 588.11 984.88 588.8 984.19 590.06 983.5 588.8 982.24 588.11 983.5 587.42 984.19 586.16"/><polygon class="cls-48" points="737.63 631.34 738.32 632.6 739.58 633.28 738.32 633.97 737.63 635.23 736.94 633.97 735.68 633.28 736.94 632.6 737.63 631.34"/><polygon class="cls-49" points="566.88 519.54 567.57 520.8 568.83 521.49 567.57 522.18 566.88 523.44 566.19 522.18 564.93 521.49 566.19 520.8 566.88 519.54"/><polygon class="cls-50" points="660.29 249.25 660.98 250.5 662.24 251.19 660.98 251.88 660.29 253.14 659.6 251.88 658.34 251.19 659.6 250.5 660.29 249.25"/><polygon class="cls-51" points="947.59 282.94 948.28 284.2 949.54 284.88 948.28 285.57 947.59 286.83 946.9 285.57 945.64 284.88 946.9 284.2 947.59 282.94"/><polygon class="cls-2" points="242.55 816.41 244.65 820.65 249.34 821.34 245.94 824.64 246.74 829.31 242.55 827.11 238.36 829.31 239.16 824.64 235.77 821.34 240.46 820.65 242.55 816.41"/><polygon class="cls-2" points="218.05 635.41 220.15 639.65 224.84 640.34 221.45 643.64 222.25 648.31 218.05 646.11 213.86 648.31 214.66 643.64 211.27 640.34 215.96 639.65 218.05 635.41"/><polygon class="cls-2" points="227.82 988.26 229.92 992.51 234.6 993.19 231.21 996.5 232.01 1001.17 227.82 998.97 223.63 1001.17 224.43 996.5 221.04 993.19 225.72 992.51 227.82 988.26"/><polygon class="cls-52" points="321.34 654.95 322.19 656.51 323.74 657.36 322.19 658.21 321.34 659.76 320.49 658.21 318.93 657.36 320.49 656.51 321.34 654.95"/><polygon class="cls-53" points="207.27 884.39 208.12 885.94 209.67 886.79 208.12 887.64 207.27 889.19 206.42 887.64 204.87 886.79 206.42 885.94 207.27 884.39"/><polygon class="cls-54" points="280.02 963.21 280.87 964.76 282.42 965.61 280.87 966.46 280.02 968.01 279.17 966.46 277.62 965.61 279.17 964.76 280.02 963.21"/><polygon class="cls-55" points="111.53 736.51 112.38 738.07 113.94 738.92 112.38 739.77 111.53 741.32 110.69 739.77 109.13 738.92 110.69 738.07 111.53 736.51"/><polygon class="cls-56" points="331.76 667.26 332.45 668.52 333.71 669.21 332.45 669.9 331.76 671.16 331.07 669.9 329.81 669.21 331.07 668.52 331.76 667.26"/><polygon class="cls-57" points="152.46 825.6 153.15 826.86 154.41 827.55 153.15 828.24 152.46 829.5 151.77 828.24 150.51 827.55 151.77 826.86 152.46 825.6"/><polygon class="cls-58" points="247.13 868.88 247.82 870.14 249.08 870.83 247.82 871.52 247.13 872.78 246.44 871.52 245.18 870.83 246.44 870.14 247.13 868.88"/><polygon class="cls-59" points="208.75 740.32 209.44 741.59 210.69 742.27 209.44 742.96 208.75 744.22 208.06 742.96 206.8 742.27 208.06 741.59 208.75 740.32"/><polygon class="cls-60" points="157.16 895.23 157.85 896.49 159.11 897.18 157.85 897.87 157.16 899.13 156.47 897.87 155.21 897.18 156.47 896.49 157.16 895.23"/><polygon class="cls-2" points="162.98 399.86 165.08 404.11 169.77 404.79 166.38 408.1 167.18 412.77 162.98 410.56 158.79 412.77 159.59 408.1 156.2 404.79 160.89 404.11 162.98 399.86"/><polygon class="cls-2" points="187.82 75.53 189.91 79.78 194.6 80.46 191.21 83.76 192.01 88.43 187.82 86.23 183.63 88.43 184.43 83.76 181.03 80.46 185.72 79.78 187.82 75.53"/><polygon class="cls-2" points="305.2 393.64 307.3 397.88 311.99 398.56 308.6 401.87 309.4 406.54 305.2 404.34 301.01 406.54 301.81 401.87 298.42 398.56 303.11 397.88 305.2 393.64"/><polygon class="cls-61" points="119.72 90.21 120.57 91.76 122.12 92.61 120.57 93.46 119.72 95.02 118.87 93.46 117.32 92.61 118.87 91.76 119.72 90.21"/><polygon class="cls-62" points="306.23 169.58 307.08 171.13 308.63 171.99 307.08 172.84 306.23 174.39 305.38 172.84 303.82 171.99 305.38 171.13 306.23 169.58"/><polygon class="cls-63" points="317.47 306.39 318.32 307.94 319.87 308.79 318.32 309.64 317.47 311.19 316.62 309.64 315.07 308.79 316.62 307.94 317.47 306.39"/><polygon class="cls-64" points="99.64 154.02 100.5 155.57 102.05 156.43 100.5 157.27 99.64 158.83 98.8 157.27 97.24 156.43 98.8 155.57 99.64 154.02"/><polygon class="cls-65" points="307.74 232.83 308.59 234.38 310.14 235.23 308.59 236.08 307.74 237.63 306.89 236.08 305.33 235.23 306.89 234.38 307.74 232.83"/><polygon class="cls-66" points="163.87 298.21 164.72 299.76 166.27 300.61 164.72 301.46 163.87 303.01 163.02 301.46 161.47 300.61 163.02 299.76 163.87 298.21"/><polygon class="cls-67" points="249.72 121.93 250.41 123.19 251.67 123.88 250.41 124.57 249.72 125.83 249.03 124.57 247.78 123.88 249.03 123.19 249.72 121.93"/><polygon class="cls-68" points="110.06 166.32 110.75 167.59 112.02 168.27 110.75 168.96 110.06 170.22 109.38 168.96 108.12 168.27 109.38 167.59 110.06 166.32"/><polygon class="cls-69" points="152.15 324.48 152.84 325.74 154.1 326.43 152.84 327.12 152.15 328.38 151.46 327.12 150.2 326.43 151.46 325.74 152.15 324.48"/><polygon class="cls-70" points="323.25 126.09 323.94 127.35 325.2 128.04 323.94 128.73 323.25 129.99 322.56 128.73 321.3 128.04 322.56 127.35 323.25 126.09"/><polygon class="cls-71" points="319.92 258.81 320.61 260.07 321.87 260.76 320.61 261.45 319.92 262.71 319.23 261.45 317.97 260.76 319.23 260.07 319.92 258.81"/><polygon class="cls-72" points="187.45 382.09 188.14 383.35 189.4 384.04 188.14 384.73 187.45 385.99 186.76 384.73 185.5 384.04 186.76 383.35 187.45 382.09"/><polygon class="cls-73" points="110.12 0 110.81 1.26 112.07 1.95 110.81 2.64 110.12 3.9 109.43 2.64 108.17 1.95 109.43 1.26 110.12 0"/><polygon class="cls-2" points="1618.82 437.13 1620.92 441.38 1625.61 442.06 1622.22 445.37 1623.02 450.04 1618.82 447.83 1614.63 450.04 1615.43 445.37 1612.04 442.06 1616.73 441.38 1618.82 437.13"/><polygon class="cls-2" points="1643.66 112.8 1645.75 117.05 1650.44 117.73 1647.05 121.04 1647.85 125.7 1643.66 123.5 1639.46 125.7 1640.27 121.04 1636.87 117.73 1641.56 117.05 1643.66 112.8"/><polygon class="cls-2" points="1761.04 430.91 1763.14 435.16 1767.83 435.84 1764.43 439.14 1765.24 443.81 1761.04 441.61 1756.85 443.81 1757.65 439.14 1754.26 435.84 1758.95 435.16 1761.04 430.91"/><polygon class="cls-74" points="1575.56 127.48 1576.41 129.03 1577.96 129.88 1576.41 130.73 1575.56 132.29 1574.71 130.73 1573.16 129.88 1574.71 129.03 1575.56 127.48"/><polygon class="cls-75" points="1762.07 206.85 1762.92 208.41 1764.47 209.26 1762.92 210.11 1762.07 211.66 1761.22 210.11 1759.66 209.26 1761.22 208.41 1762.07 206.85"/><polygon class="cls-76" points="1773.31 343.66 1774.16 345.21 1775.71 346.06 1774.16 346.91 1773.31 348.47 1772.46 346.91 1770.91 346.06 1772.46 345.21 1773.31 343.66"/><polygon class="cls-77" points="1555.48 191.29 1556.33 192.85 1557.89 193.7 1556.33 194.55 1555.48 196.1 1554.63 194.55 1553.08 193.7 1554.63 192.85 1555.48 191.29"/><polygon class="cls-78" points="1763.58 270.1 1764.42 271.65 1765.98 272.5 1764.42 273.35 1763.58 274.91 1762.73 273.35 1761.17 272.5 1762.73 271.65 1763.58 270.1"/><polygon class="cls-79" points="1619.71 335.48 1620.56 337.03 1622.11 337.88 1620.56 338.73 1619.71 340.29 1618.86 338.73 1617.31 337.88 1618.86 337.03 1619.71 335.48"/><polygon class="cls-80" points="1675.14 25.49 1675.99 27.05 1677.54 27.89 1675.99 28.74 1675.14 30.3 1674.29 28.74 1672.74 27.89 1674.29 27.05 1675.14 25.49"/><polygon class="cls-81" points="1705.56 159.2 1706.25 160.46 1707.51 161.15 1706.25 161.84 1705.56 163.1 1704.88 161.84 1703.61 161.15 1704.88 160.46 1705.56 159.2"/><polygon class="cls-82" points="1565.9 203.6 1566.59 204.86 1567.85 205.55 1566.59 206.24 1565.9 207.5 1565.22 206.24 1563.96 205.55 1565.22 204.86 1565.9 203.6"/><polygon class="cls-83" points="1607.99 361.75 1608.68 363.01 1609.94 363.7 1608.68 364.39 1607.99 365.65 1607.3 364.39 1606.04 363.7 1607.3 363.01 1607.99 361.75"/><polygon class="cls-84" points="1779.09 163.36 1779.78 164.62 1781.04 165.31 1779.78 166 1779.09 167.26 1778.4 166 1777.14 165.31 1778.4 164.62 1779.09 163.36"/><polygon class="cls-85" points="1775.76 296.08 1776.45 297.34 1777.71 298.03 1776.45 298.72 1775.76 299.98 1775.07 298.72 1773.81 298.03 1775.07 297.34 1775.76 296.08"/><polygon class="cls-86" points="1643.29 419.36 1643.98 420.62 1645.24 421.31 1643.98 422 1643.29 423.26 1642.6 422 1641.34 421.31 1642.6 420.62 1643.29 419.36"/><polygon class="cls-87" points="1565.96 37.27 1566.64 38.53 1567.9 39.22 1566.64 39.91 1565.96 41.17 1565.27 39.91 1564.01 39.22 1565.27 38.53 1565.96 37.27"/><polygon class="cls-88" points="1370.16 260.98 1372.26 265.23 1376.95 265.91 1373.56 269.21 1374.36 273.88 1370.16 271.68 1365.97 273.88 1366.77 269.21 1363.38 265.91 1368.07 265.23 1370.16 260.98"/><polygon class="cls-2" points="1512.38 254.75 1514.48 259 1519.17 259.68 1515.78 262.99 1516.58 267.65 1512.38 265.45 1508.19 267.65 1508.99 262.99 1505.6 259.68 1510.29 259 1512.38 254.75"/><polygon class="cls-89" points="1513.41 30.7 1514.26 32.25 1515.81 33.1 1514.26 33.95 1513.41 35.5 1512.56 33.95 1511 33.1 1512.56 32.25 1513.41 30.7"/><polygon class="cls-90" points="1524.65 167.5 1525.5 169.06 1527.05 169.91 1525.5 170.75 1524.65 172.31 1523.8 170.75 1522.25 169.91 1523.8 169.06 1524.65 167.5"/><polygon class="cls-91" points="1306.83 15.13 1307.67 16.69 1309.23 17.54 1307.67 18.39 1306.83 19.94 1305.98 18.39 1304.42 17.54 1305.98 16.69 1306.83 15.13"/><polygon class="cls-92" points="1514.92 93.94 1515.77 95.5 1517.32 96.35 1515.77 97.2 1514.92 98.75 1514.07 97.2 1512.51 96.35 1514.07 95.5 1514.92 93.94"/><polygon class="cls-93" points="1371.05 159.32 1371.9 160.88 1373.45 161.73 1371.9 162.57 1371.05 164.13 1370.2 162.57 1368.65 161.73 1370.2 160.88 1371.05 159.32"/><polygon class="cls-94" points="1317.25 27.44 1317.93 28.7 1319.19 29.39 1317.93 30.08 1317.25 31.34 1316.56 30.08 1315.3 29.39 1316.56 28.7 1317.25 27.44"/><polygon class="cls-95" points="1359.33 185.6 1360.02 186.86 1361.28 187.54 1360.02 188.23 1359.33 189.49 1358.64 188.23 1357.38 187.54 1358.64 186.86 1359.33 185.6"/><polygon class="cls-96" points="1527.1 119.92 1527.79 121.19 1529.05 121.88 1527.79 122.56 1527.1 123.82 1526.41 122.56 1525.15 121.88 1526.41 121.19 1527.1 119.92"/><polygon class="cls-97" points="1394.63 243.21 1395.32 244.47 1396.58 245.15 1395.32 245.84 1394.63 247.1 1393.94 245.84 1392.68 245.15 1393.94 244.47 1394.63 243.21"/><polygon class="cls-2" points="352.64 16.55 354.74 20.8 359.42 21.48 356.03 24.78 356.83 29.45 352.64 27.25 348.45 29.45 349.25 24.78 345.86 21.48 350.54 20.8 352.64 16.55"/><polygon class="cls-98" points="455.92 36.09 456.77 37.65 458.32 38.5 456.77 39.35 455.92 40.9 455.07 39.35 453.52 38.5 455.07 37.65 455.92 36.09"/><polygon class="cls-99" points="520.15 180.28 521 181.84 522.55 182.69 521 183.53 520.15 185.09 519.3 183.53 517.74 182.69 519.3 181.84 520.15 180.28"/><polygon class="cls-100" points="246.12 117.66 246.97 119.21 248.52 120.06 246.97 120.91 246.12 122.46 245.27 120.91 243.72 120.06 245.27 119.21 246.12 117.66"/><polygon class="cls-101" points="606 4 606.69 5.26 607.95 5.95 606.69 6.64 606 7.9 605.31 6.64 604.05 5.95 605.31 5.26 606 4"/><polygon class="cls-102" points="466.34 48.4 467.03 49.66 468.29 50.35 467.03 51.04 466.34 52.3 465.65 51.04 464.39 50.35 465.65 49.66 466.34 48.4"/><polygon class="cls-103" points="343.33 121.47 344.02 122.73 345.28 123.42 344.02 124.1 343.33 125.36 342.64 124.1 341.38 123.42 342.64 122.73 343.33 121.47"/><polygon class="cls-104" points="372.98 152.37 373.67 153.63 374.93 154.32 373.67 155.01 372.98 156.27 372.29 155.01 371.03 154.32 372.29 153.63 372.98 152.37"/><polygon class="cls-2" points="845.62 13.37 847.71 17.62 852.4 18.3 849.01 21.61 849.81 26.27 845.62 24.07 841.42 26.27 842.23 21.61 838.83 18.3 843.52 17.62 845.62 13.37"/><polygon class="cls-105" points="948.9 32.92 949.75 34.47 951.3 35.32 949.75 36.17 948.9 37.72 948.05 36.17 946.5 35.32 948.05 34.47 948.9 32.92"/><polygon class="cls-106" points="1013.13 177.1 1013.97 178.66 1015.53 179.51 1013.97 180.36 1013.13 181.91 1012.27 180.36 1010.72 179.51 1012.27 178.66 1013.13 177.1"/><polygon class="cls-107" points="739.1 114.48 739.95 116.03 741.5 116.88 739.95 117.73 739.1 119.28 738.25 117.73 736.7 116.88 738.25 116.03 739.1 114.48"/><polygon class="cls-108" points="1098.98 0.82 1099.67 2.09 1100.93 2.77 1099.67 3.46 1098.98 4.72 1098.29 3.46 1097.03 2.77 1098.29 2.09 1098.98 0.82"/><polygon class="cls-109" points="959.32 45.22 960.01 46.48 961.27 47.17 960.01 47.86 959.32 49.12 958.63 47.86 957.37 47.17 958.63 46.48 959.32 45.22"/><polygon class="cls-110" points="836.31 118.29 837 119.55 838.26 120.24 837 120.92 836.31 122.19 835.62 120.92 834.36 120.24 835.62 119.55 836.31 118.29"/><polygon class="cls-111" points="865.95 149.19 866.64 150.45 867.9 151.14 866.64 151.83 865.95 153.09 865.26 151.83 864 151.14 865.26 150.45 865.95 149.19"/><polygon class="cls-2" points="689.74 22.05 691.83 26.3 696.52 26.98 693.13 30.28 693.93 34.95 689.74 32.75 685.54 34.95 686.35 30.28 682.95 26.98 687.64 26.3 689.74 22.05"/><polygon class="cls-112" points="692.72 97.39 693.57 98.94 695.12 99.79 693.57 100.64 692.72 102.19 691.87 100.64 690.32 99.79 691.87 98.94 692.72 97.39"/><polygon class="cls-113" points="610.37 54.59 611.22 56.15 612.77 57 611.22 57.84 610.37 59.4 609.52 57.84 607.96 57 609.52 56.15 610.37 54.59"/><polygon class="cls-114" points="611.88 117.84 612.73 119.39 614.28 120.24 612.73 121.09 611.88 122.65 611.03 121.09 609.47 120.24 611.03 119.39 611.88 117.84"/><polygon class="cls-115" points="683.81 108.22 684.5 109.48 685.76 110.17 684.5 110.86 683.81 112.11 683.12 110.86 681.86 110.17 683.12 109.48 683.81 108.22"/><polygon class="cls-116" points="678.26 95.73 678.95 96.99 680.21 97.68 678.95 98.37 678.26 99.63 677.57 98.37 676.31 97.68 677.57 96.99 678.26 95.73"/><polygon class="cls-117" points="713.41 49.95 714.1 51.21 715.36 51.9 714.1 52.59 713.41 53.85 712.72 52.59 711.46 51.9 712.72 51.21 713.41 49.95"/><polygon class="cls-2" points="520.48 854.94 522.57 859.19 527.26 859.87 523.87 863.18 524.67 867.85 520.48 865.64 516.28 867.85 517.09 863.18 513.69 859.87 518.38 859.19 520.48 854.94"/><polygon class="cls-118" points="523.46 930.28 524.31 931.83 525.87 932.68 524.31 933.53 523.46 935.09 522.61 933.53 521.06 932.68 522.61 931.83 523.46 930.28"/><polygon class="cls-119" points="441.11 887.49 441.96 889.04 443.51 889.89 441.96 890.74 441.11 892.29 440.26 890.74 438.7 889.89 440.26 889.04 441.11 887.49"/><polygon class="cls-120" points="442.62 950.73 443.47 952.28 445.02 953.13 443.47 953.99 442.62 955.54 441.77 953.99 440.21 953.13 441.77 952.28 442.62 950.73"/><polygon class="cls-121" points="514.55 941.11 515.24 942.37 516.5 943.06 515.24 943.75 514.55 945.01 513.86 943.75 512.6 943.06 513.86 942.37 514.55 941.11"/><polygon class="cls-122" points="509 928.62 509.69 929.88 510.95 930.57 509.69 931.26 509 932.52 508.31 931.26 507.06 930.57 508.31 929.88 509 928.62"/><polygon class="cls-123" points="544.15 882.84 544.84 884.1 546.1 884.79 544.84 885.48 544.15 886.74 543.46 885.48 542.2 884.79 543.46 884.1 544.15 882.84"/><polygon class="cls-2" points="709.91 1006.37 712.01 1010.61 716.7 1011.29 713.31 1014.6 714.11 1019.27 709.91 1017.07 705.72 1019.27 706.52 1014.6 703.13 1011.29 707.82 1010.61 709.91 1006.37"/><polygon class="cls-2" points="685.42 825.37 687.51 829.62 692.2 830.3 688.81 833.6 689.61 838.27 685.42 836.07 681.22 838.27 682.02 833.6 678.63 830.3 683.32 829.62 685.42 825.37"/><polygon class="cls-124" points="788.7 844.91 789.55 846.47 791.1 847.32 789.55 848.17 788.7 849.72 787.85 848.17 786.29 847.32 787.85 846.47 788.7 844.91"/><polygon class="cls-125" points="852.92 989.1 853.77 990.65 855.33 991.5 853.77 992.36 852.92 993.91 852.07 992.36 850.52 991.5 852.07 990.65 852.92 989.1"/><polygon class="cls-126" points="938.78 812.82 939.47 814.08 940.73 814.77 939.47 815.46 938.78 816.72 938.09 815.46 936.83 814.77 938.09 814.08 938.78 812.82"/><polygon class="cls-127" points="799.12 857.22 799.81 858.48 801.07 859.17 799.81 859.86 799.12 861.12 798.43 859.86 797.17 859.17 798.43 858.48 799.12 857.22"/><polygon class="cls-128" points="841.2 1015.38 841.89 1016.63 843.15 1017.33 841.89 1018.01 841.2 1019.27 840.51 1018.01 839.25 1017.33 840.51 1016.63 841.2 1015.38"/><polygon class="cls-129" points="676.11 930.28 676.8 931.54 678.06 932.23 676.8 932.92 676.11 934.18 675.42 932.92 674.16 932.23 675.42 931.54 676.11 930.28"/><polygon class="cls-130" points="705.75 961.19 706.44 962.45 707.7 963.14 706.44 963.83 705.75 965.09 705.06 963.83 703.8 963.14 705.06 962.45 705.75 961.19"/><polygon class="cls-131" points="148.71 489.18 149.56 490.73 151.12 491.58 149.56 492.43 148.71 493.98 147.86 492.43 146.31 491.58 147.86 490.73 148.71 489.18"/><polygon class="cls-132" points="147.91 997.1 148.76 998.66 150.31 999.51 148.76 1000.36 147.91 1001.91 147.06 1000.36 145.51 999.51 147.06 998.66 147.91 997.1"/><polygon class="cls-133" points="158.33 1009.41 159.02 1010.67 160.28 1011.36 159.02 1012.04 158.33 1013.3 157.64 1012.04 156.38 1011.36 157.64 1010.67 158.33 1009.41"/><polygon class="cls-134" points="378.11 919.01 378.96 920.56 380.52 921.41 378.96 922.26 378.11 923.82 377.26 922.26 375.71 921.41 377.26 920.56 378.11 919.01"/><polygon class="cls-135" points="410.22 939.04 410.91 940.3 412.17 940.99 410.91 941.68 410.22 942.94 409.53 941.68 408.27 940.99 409.53 940.3 410.22 939.04"/><polygon class="cls-2" points="340.78 722.84 342.88 727.09 347.56 727.77 344.17 731.08 344.97 735.75 340.78 733.54 336.59 735.75 337.39 731.08 334 727.77 338.68 727.09 340.78 722.84"/><polygon class="cls-136" points="554.77 1016 555.62 1017.55 557.17 1018.4 555.62 1019.25 554.77 1020.8 553.92 1019.25 552.37 1018.4 553.92 1017.55 554.77 1016"/><polygon class="cls-137" points="367.7 607.96 368.55 609.51 370.1 610.36 368.55 611.21 367.7 612.77 366.85 611.21 365.29 610.36 366.85 609.51 367.7 607.96"/><polygon class="cls-138" points="323.16 574.22 324.01 575.78 325.57 576.63 324.01 577.48 323.16 579.03 322.31 577.48 320.76 576.63 322.31 575.78 323.16 574.22"/><polygon class="cls-139" points="200.36 554.66 201.21 556.21 202.77 557.06 201.21 557.91 200.36 559.46 199.51 557.91 197.96 557.06 199.51 556.21 200.36 554.66"/><polygon class="cls-140" points="194.61 837.4 195.46 838.96 197.01 839.81 195.46 840.66 194.61 842.21 193.76 840.66 192.2 839.81 193.76 838.96 194.61 837.4"/><polygon class="cls-141" points="153.13 795.53 153.98 797.09 155.54 797.94 153.98 798.79 153.13 800.34 152.28 798.79 150.73 797.94 152.28 797.09 153.13 795.53"/><polygon class="cls-142" points="297.73 775.56 298.57 777.11 300.13 777.96 298.57 778.81 297.73 780.36 296.88 778.81 295.32 777.96 296.88 777.11 297.73 775.56"/><polygon class="cls-143" points="409.01 754.97 409.86 756.53 411.42 757.38 409.86 758.23 409.01 759.78 408.16 758.23 406.61 757.38 408.16 756.53 409.01 754.97"/><polygon class="cls-144" points="538.48 661.87 539.33 663.42 540.88 664.27 539.33 665.12 538.48 666.67 537.63 665.12 536.08 664.27 537.63 663.42 538.48 661.87"/><polygon class="cls-145" points="676.54 858.51 677.39 860.07 678.95 860.92 677.39 861.77 676.54 863.32 675.69 861.77 674.14 860.92 675.69 860.07 676.54 858.51"/><polygon class="cls-2" points="407.65 337.9 409.75 342.15 414.43 342.83 411.04 346.13 411.84 350.8 407.65 348.6 403.46 350.8 404.26 346.13 400.87 342.83 405.55 342.15 407.65 337.9"/><polygon class="cls-146" points="339.55 352.58 340.4 354.13 341.96 354.98 340.4 355.83 339.55 357.38 338.7 355.83 337.15 354.98 338.7 354.13 339.55 352.58"/><polygon class="cls-147" points="439.13 250.59 439.98 252.14 441.54 252.99 439.98 253.84 439.13 255.4 438.28 253.84 436.73 252.99 438.28 252.14 439.13 250.59"/><polygon class="cls-148" points="469.56 384.3 470.25 385.56 471.51 386.25 470.25 386.94 469.56 388.2 468.87 386.94 467.61 386.25 468.87 385.56 469.56 384.3"/><polygon class="cls-149" points="317.87 315.86 318.56 317.12 319.82 317.81 318.56 318.5 317.87 319.75 317.19 318.5 315.93 317.81 317.19 317.12 317.87 315.86"/><polygon class="cls-150" points="329.95 262.37 330.64 263.63 331.9 264.32 330.64 265.01 329.95 266.27 329.26 265.01 328 264.32 329.26 263.63 329.95 262.37"/><polygon class="cls-151" points="535.61 162.32 536.3 163.58 537.56 164.27 536.3 164.96 535.61 166.22 534.92 164.96 533.66 164.27 534.92 163.58 535.61 162.32"/><polygon class="cls-2" points="1617.23 963.97 1619.33 968.22 1624.01 968.9 1620.62 972.21 1621.42 976.87 1617.23 974.67 1613.04 976.87 1613.84 972.21 1610.44 968.9 1615.13 968.22 1617.23 963.97"/><polygon class="cls-152" points="1549.13 978.65 1549.98 980.2 1551.54 981.05 1549.98 981.9 1549.13 983.46 1548.28 981.9 1546.73 981.05 1548.28 980.2 1549.13 978.65"/><polygon class="cls-153" points="1648.71 876.66 1649.56 878.21 1651.12 879.06 1649.56 879.91 1648.71 881.47 1647.86 879.91 1646.31 879.06 1647.86 878.21 1648.71 876.66"/><polygon class="cls-154" points="1679.13 1010.37 1679.83 1011.63 1681.09 1012.32 1679.83 1013.01 1679.13 1014.27 1678.45 1013.01 1677.19 1012.32 1678.45 1011.63 1679.13 1010.37"/><polygon class="cls-155" points="1527.45 941.93 1528.14 943.19 1529.4 943.88 1528.14 944.57 1527.45 945.83 1526.76 944.57 1525.5 943.88 1526.76 943.19 1527.45 941.93"/><polygon class="cls-156" points="1539.53 888.44 1540.22 889.7 1541.48 890.39 1540.22 891.08 1539.53 892.34 1538.84 891.08 1537.58 890.39 1538.84 889.7 1539.53 888.44"/><polygon class="cls-157" points="1745.19 788.39 1745.88 789.65 1747.14 790.34 1745.88 791.03 1745.19 792.29 1744.5 791.03 1743.24 790.34 1744.5 789.65 1745.19 788.39"/><polygon class="cls-2" points="1693.82 700.78 1695.91 705.03 1700.6 705.71 1697.21 709.02 1698.01 713.68 1693.82 711.48 1689.62 713.68 1690.42 709.02 1687.03 705.71 1691.72 705.03 1693.82 700.78"/><polygon class="cls-158" points="1625.72 715.46 1626.57 717.01 1628.12 717.86 1626.57 718.71 1625.72 720.27 1624.87 718.71 1623.32 717.86 1624.87 717.01 1625.72 715.46"/><polygon class="cls-159" points="1725.3 613.47 1726.15 615.02 1727.7 615.87 1726.15 616.72 1725.3 618.28 1724.45 616.72 1722.89 615.87 1724.45 615.02 1725.3 613.47"/><polygon class="cls-160" points="1755.72 747.18 1756.41 748.44 1757.67 749.13 1756.41 749.82 1755.72 751.08 1755.03 749.82 1753.77 749.13 1755.03 748.44 1755.72 747.18"/><polygon class="cls-161" points="1604.04 678.74 1604.73 680 1605.99 680.69 1604.73 681.38 1604.04 682.64 1603.35 681.38 1602.09 680.69 1603.35 680 1604.04 678.74"/><polygon class="cls-162" points="1616.11 625.25 1616.8 626.51 1618.06 627.2 1616.8 627.89 1616.11 629.15 1615.42 627.89 1614.16 627.2 1615.42 626.51 1616.11 625.25"/><polygon class="cls-163" points="1821.77 525.2 1822.46 526.46 1823.72 527.15 1822.46 527.84 1821.77 529.1 1821.09 527.84 1819.83 527.15 1821.09 526.46 1821.77 525.2"/><polygon class="cls-2" points="1217.85 982.78 1219.95 987.03 1224.63 987.71 1221.24 991.01 1222.04 995.68 1217.85 993.48 1213.66 995.68 1214.46 991.01 1211.07 987.71 1215.76 987.03 1217.85 982.78"/><polygon class="cls-164" points="1149.76 997.46 1150.6 999.01 1152.16 999.86 1150.6 1000.71 1149.76 1002.26 1148.9 1000.71 1147.35 999.86 1148.9 999.01 1149.76 997.46"/><polygon class="cls-165" points="1249.34 895.47 1250.18 897.02 1251.74 897.87 1250.18 898.72 1249.34 900.28 1248.49 898.72 1246.93 897.87 1248.49 897.02 1249.34 895.47"/><polygon class="cls-166" points="1279.76 1029.18 1280.45 1030.44 1281.71 1031.13 1280.45 1031.82 1279.76 1033.08 1279.07 1031.82 1277.81 1031.13 1279.07 1030.44 1279.76 1029.18"/><polygon class="cls-167" points="1128.08 960.74 1128.77 962 1130.03 962.69 1128.77 963.38 1128.08 964.64 1127.39 963.38 1126.13 962.69 1127.39 962 1128.08 960.74"/><polygon class="cls-168" points="1140.15 907.25 1140.84 908.51 1142.1 909.2 1140.84 909.89 1140.15 911.15 1139.46 909.89 1138.2 909.2 1139.46 908.51 1140.15 907.25"/><polygon class="cls-169" points="1345.81 807.2 1346.5 808.46 1347.76 809.15 1346.5 809.84 1345.81 811.1 1345.12 809.84 1343.86 809.15 1345.12 808.46 1345.81 807.2"/><polygon class="cls-170" points="1520.31 339.04 1521.16 340.6 1522.71 341.44 1521.16 342.3 1520.31 343.85 1519.46 342.3 1517.91 341.44 1519.46 340.6 1520.31 339.04"/><polygon class="cls-171" points="1550.73 472.75 1551.42 474.01 1552.68 474.7 1551.42 475.39 1550.73 476.65 1550.05 475.39 1548.79 474.7 1550.05 474.01 1550.73 472.75"/><polygon class="cls-172" points="1399.05 404.31 1399.74 405.57 1401 406.26 1399.74 406.95 1399.05 408.21 1398.36 406.95 1397.1 406.26 1398.36 405.57 1399.05 404.31"/><polygon class="cls-173" points="1411.13 350.82 1411.82 352.08 1413.08 352.77 1411.82 353.46 1411.13 354.72 1410.44 353.46 1409.18 352.77 1410.44 352.08 1411.13 350.82"/><polygon class="cls-174" points="1616.79 250.77 1617.48 252.03 1618.74 252.72 1617.48 253.41 1616.79 254.67 1616.1 253.41 1614.84 252.72 1616.1 252.03 1616.79 250.77"/><polygon class="cls-2" points="1521.16 540.08 1523.26 544.33 1527.94 545.01 1524.55 548.32 1525.35 552.99 1521.16 550.78 1516.97 552.99 1517.77 548.32 1514.38 545.01 1519.06 544.33 1521.16 540.08"/><polygon class="cls-175" points="1583.07 586.48 1583.76 587.74 1585.02 588.43 1583.76 589.12 1583.07 590.38 1582.38 589.12 1581.12 588.43 1582.38 587.74 1583.07 586.48"/></g></g></svg>