<svg xmlns="http://www.w3.org/2000/svg" width="106.408" height="338" viewBox="0 0 106.408 338"><g transform="translate(-901.079 -578)"><g transform="translate(1192.139 611.635) rotate(120)"><g transform="translate(203.632 95.651) rotate(7)"><g transform="translate(0 0)"><path d="M3.674,75.189a3,3,0,0,0,3.269-.071c23.106-15.745,45.675-31.995,65.528-50.8a12.978,12.978,0,0,0,3.3-5.1,13.05,13.05,0,0,0,.359-6.971A15.392,15.392,0,0,0,61.2,0a30.025,30.025,0,0,0-6.777.78A39.557,39.557,0,0,0,48.478,2.6C36.665,7.352,24.043,15.27,11.149,24.256a10.223,10.223,0,0,0-3.335,3.885c-1.226,2.485-.5,3.867,2.65,3.2A8.81,8.81,0,0,0,13.5,30.067c2.5-1.648,8.837-5.851,11.437-7.574a4.92,4.92,0,0,1,3.694-.718,3.316,3.316,0,0,1,2.786,3.284,4.623,4.623,0,0,1-1.441,3.806C15.792,42.125,4.954,44.646.554,52.573A4.728,4.728,0,0,0,.087,53.81c-.281,1.241.107,1.92,1.271,2.138a5.353,5.353,0,0,0,4.1-.9l10.092-7.21a4.111,4.111,0,0,1,5.18.326h0a3.626,3.626,0,0,1-.153,5.467C14.356,58.736,7.942,64.232,3.051,69.91a3.678,3.678,0,0,0-.437,4.118A3.019,3.019,0,0,0,3.674,75.189Z" fill="#f3bc00" fill-rule="evenodd"/></g><g transform="translate(33.487 4.267)"><path d="M1.841,41.841a2.1,2.1,0,0,0,2.248-.157C15.4,33.333,24.448,26.912,34.152,17.089a11.192,11.192,0,0,0,3.137-6.445h0A9.464,9.464,0,0,0,27.088.035C26.356.128,25.6.249,24.833.42a19.262,19.262,0,0,0-2.84.871C15.975,3.645,11.318,4.23,4.753,9a5.077,5.077,0,0,0-1.88,2.642c-.544,1.823.163,3.209,2.358,2.459q.114-.038.228-.072c0-.011,4.964-1.489,6.108-1.829a2.574,2.574,0,0,1,.88-.1c1.019.059,1.2.756,1.1,1.891a4.609,4.609,0,0,1-1.354,2.934C5.352,23.741,2.452,22.991.326,27.318a2.933,2.933,0,0,0-.214.591c-.2.825-.165,1.572.332,1.944a1.386,1.386,0,0,0,1.677-.01L8.6,24.854a2.3,2.3,0,0,1,3.027.2h0a1.889,1.889,0,0,1-.074,2.737A111.659,111.659,0,0,0,1.121,38.328a2.347,2.347,0,0,0,.711,3.509Z" transform="translate(0 0)" fill="#f35000" fill-rule="evenodd"/></g></g><g transform="translate(327.618 30.902) rotate(59)"><path d="M14.813,35.9H2.323l-1.7-8.482A32.353,32.353,0,0,1,.965,13.235h0A32.308,32.308,0,0,1,5.432,3.14L6.946.869a1.952,1.952,0,0,1,3.247,0L11.708,3.14a32.36,32.36,0,0,1,4.467,10.1h0a32.329,32.329,0,0,1,.337,14.187Z" transform="translate(64.011 34.417)" fill="#e6e6e6"/><path d="M14.813,35.9H2.323l-1.7-8.482A32.353,32.353,0,0,1,.965,13.235h0A32.308,32.308,0,0,1,5.432,3.14L6.946.869a1.952,1.952,0,0,1,3.247,0L11.708,3.14a32.36,32.36,0,0,1,4.467,10.1h0a32.329,32.329,0,0,1,.337,14.187Z" transform="translate(0 34.417)" fill="#e6e6e6"/><path d="M21.16,3.539,17.621,0,14.082,3.539A48.1,48.1,0,0,0,6.074,60.951c.008.014.016.028.023.041A27.387,27.387,0,0,1,9.815,74.437v2.128H25.427V74.437A27.425,27.425,0,0,1,29.145,60.99c.006-.012.014-.025.02-.036A48.1,48.1,0,0,0,21.16,3.539Z" transform="translate(22.97 0)" fill="#e6e6e6"/><line y2="3.122" transform="translate(4.682 75.006)" fill="none" stroke="#f29c1f" stroke-linecap="round" stroke-miterlimit="10" stroke-width="2"/><line y2="3.122" transform="translate(12.489 75.006)" fill="none" stroke="#f29c1f" stroke-linecap="round" stroke-miterlimit="10" stroke-width="2"/><line y2="3.122" transform="translate(68.694 75.006)" fill="none" stroke="#f29c1f" stroke-linecap="round" stroke-miterlimit="10" stroke-width="2"/><line y2="3.122" transform="translate(76.5 75.006)" fill="none" stroke="#f29c1f" stroke-linecap="round" stroke-miterlimit="10" stroke-width="2"/><g transform="translate(15.77 47.832)"><path d="M3.5,0A47.888,47.888,0,0,1,0,10.3l11.809,7.382-.735-3.674a32.341,32.341,0,0,1-.456-9.561Z" transform="translate(37.793 0)" fill="#a5a5a4"/><path d="M8.346,0,1.2,4.468A32.352,32.352,0,0,1,.74,14.008L0,17.706,11.85,10.3A47.682,47.682,0,0,1,8.346,0Z" transform="translate(0 0)" fill="#a5a5a4"/></g><ellipse cx="7.806" cy="7.806" rx="7.806" ry="7.806" transform="translate(32.785 14.117)" fill="#556080"/><circle cx="4.684" cy="4.684" r="4.684" transform="translate(35.907 37.536)" fill="#8697cb"/><circle cx="4.684" cy="4.684" r="4.684" transform="translate(35.907 54.709)" fill="#8697cb"/><path d="M18.735,10.929H0L1.561,0H17.174Z" transform="translate(31.224 76.567)" fill="#38454f"/><path d="M1.561,4.684A1.562,1.562,0,0,1,0,3.122V1.561a1.561,1.561,0,0,1,3.122,0V3.122A1.562,1.562,0,0,1,1.561,4.684Z" transform="translate(35.907 79.689)" fill="#546a79"/><path d="M1.561,4.684A1.562,1.562,0,0,1,0,3.122V1.561a1.561,1.561,0,0,1,3.122,0V3.122A1.562,1.562,0,0,1,1.561,4.684Z" transform="translate(42.152 79.689)" fill="#546a79"/></g></g><text transform="translate(960 912)" font-size="20" font-family="CenturyGothic, Century Gothic"><tspan x="-25.435" y="0">more</tspan></text><rect width="7" height="24" rx="3.5" transform="translate(957 666)" fill="#f3bc00"/><rect width="7" height="24" rx="3.5" transform="translate(957 622)" fill="#f3bc00"/><rect width="7" height="24" rx="3.5" transform="translate(957 578)" fill="#f3bc00"/></g></svg>