<?xml version="1.0" encoding="UTF-8" standalone="no"?>
<!DOCTYPE svg PUBLIC "-//W3C//DTD SVG 1.1//EN" "http://www.w3.org/Graphics/SVG/1.1/DTD/svg11.dtd">
<svg width="100%" height="100%" viewBox="0 0 576 500" version="1.1" xmlns="http://www.w3.org/2000/svg" xmlns:xlink="http://www.w3.org/1999/xlink" xml:space="preserve" xmlns:serif="http://www.serif.com/" style="fill-rule:evenodd;clip-rule:evenodd;stroke-linejoin:round;stroke-miterlimit:2;">
    <g id="Layer-1" serif:id="Layer 1" transform="matrix(1,0,0,1,4.7791,3.0004)">
        <g transform="matrix(1,0,0,1,165.017,224.322)">
            <path d="M0,-20.883L0,48.933L24.958,48.933L24.958,-55.524C18.502,-55.524 12.244,-55.616 5.994,-55.449C4.68,-55.413 3.072,-54.745 2.139,-53.822C-8.017,-43.777 -18.067,-33.625 -28.142,-23.498C-28.658,-22.978 -29.139,-22.423 -29.788,-21.72C-24.856,-16.548 -19.999,-11.454 -15.194,-6.415C-10.096,-11.27 -5.221,-15.911 0,-20.883M227.339,-46.216C226.376,-47.044 225.532,-47.833 224.624,-48.54C216.71,-54.709 207.617,-57.629 197.696,-58.062C176.018,-59.01 157.713,-48.647 150.082,-27.273C145.314,-13.922 145.2,-0.271 148.056,13.466C150.252,24.026 154.521,33.676 163.23,40.394C178.197,51.934 194.802,52.866 211.66,45.47C228.497,38.083 236.161,19.706 230.661,2.136C223.577,-20.487 193.479,-28.913 174.361,-13.625C173.609,-13.024 172.853,-12.425 171.911,-11.676C172.984,-22.037 177.948,-30.101 185.941,-33.331C197.203,-37.881 207.145,-35.127 215.757,-26.49C219.671,-33.155 223.458,-39.606 227.339,-46.216M102.623,48.966L102.623,-52.894L138.895,-52.894L138.895,-80.699L34.575,-80.699L34.575,-52.787L71.184,-52.787L71.184,48.966L102.623,48.966ZM-138.47,106.147C-138.611,104.879 -138.787,104.153 -138.757,103.437C-138.294,92.505 -138.424,81.502 -137.148,70.666C-135.838,59.533 -133.763,48.4 -130.888,37.567C-128.109,27.098 -124.296,16.845 -120.206,6.794C-112.172,-12.944 -99.819,-30.795 -86.168,-47.128C-69.141,-68.652 -35.819,-90.703 -33.357,-92.231C-20.03,-100.5 -5.908,-107.216 8.921,-112.164C19.553,-115.712 30.524,-119.408 41.48,-121.841C62.347,-126.474 83.57,-127.03 104.797,-125.743C119.618,-124.844 134.381,-122.954 148.727,-118.834C157.746,-116.244 166.809,-113.734 175.645,-110.603C188.503,-106.048 200.661,-99.951 212.341,-92.852C231.738,-81.062 248.722,-66.533 263.241,-49.089C273.415,-36.866 281.959,-23.611 289.027,-9.366C294.058,0.772 298.225,11.234 301.537,22.043C303.962,29.965 306.647,37.781 310.564,45.119C317.616,58.328 325.702,70.827 335.63,82.093C341.886,89.191 349.567,94.306 357.898,98.575C358.649,98.96 359.31,99.522 359.799,100.416C355.804,99.741 351.817,99.006 347.81,98.405C339.158,97.109 330.513,95.749 321.833,94.66C311.577,93.372 301.291,92.332 291.015,91.204C282.139,90.23 273.269,89.162 264.377,88.353C252.407,87.267 240.426,86.268 228.434,85.459C217.353,84.712 206.253,84.208 195.156,83.694C143.202,81.29 91.223,81.596 39.245,82.514C22.039,82.818 4.834,83.514 -12.353,84.382C-26.777,85.11 -41.214,85.97 -55.573,87.462C-71.505,89.116 -87.405,91.242 -103.222,93.773C-111.725,95.134 -120.085,97.561 -128.382,99.951C-131.203,100.763 -133.638,102.922 -136.233,104.493C-136.85,104.866 -137.4,105.349 -138.47,106.147" style="fill:rgb(111,30,136);"/>
        </g>
        <g transform="matrix(1,0,0,1,26.8134,315.819)">
            <path d="M0,37.568C1.856,30.269 6.457,25.75 12.403,22.856C18.255,20.007 24.437,17.758 30.619,15.68C40.521,12.353 50.772,10.435 61.116,9.059C69.121,7.994 77.114,6.759 85.15,6.028C101.603,4.533 118.061,2.894 134.555,2.082C175.885,0.052 217.254,-0.25 258.626,0.589C282.521,1.074 306.421,1.523 330.304,2.384C353.003,3.201 375.685,4.507 398.373,5.647C408.21,6.141 418.051,6.624 427.872,7.346C445.187,8.616 462.501,9.939 479.792,11.497C487.512,12.193 495.257,13.116 502.846,14.652C512.267,16.558 521.875,18.042 530.579,22.555C531.163,22.858 531.779,23.155 532.262,23.586C533.718,24.888 535.396,26.495 534.46,28.449C533.727,29.98 532.038,31.698 530.476,32.065C526.045,33.107 521.467,34.012 516.937,34.063C488.187,34.385 459.435,34.439 430.684,34.626C391.405,34.879 352.125,35.173 312.846,35.447C262.202,35.8 211.557,36.117 160.913,36.51C113.196,36.879 65.48,37.328 17.763,37.738C12.832,37.781 7.901,37.811 2.97,37.817C2.09,37.818 1.21,37.674 0,37.568" style="fill:rgb(111,30,136);"/>
        </g>
        <g transform="matrix(1,0,0,1,84.7477,71.6484)">
            <path d="M0,89.31C-3.602,86.763 -3.727,86.265 -1.179,83.215C11.048,68.585 23.94,54.571 38.619,42.355C48.117,34.45 58.277,27.462 69.219,21.587C82.951,14.214 97.429,9.044 112.58,5.602C125.628,2.639 138.823,0.664 152.202,0.48C166.22,0.286 180.27,0 194.256,0.722C209.503,1.508 224.488,4.309 239.191,8.758C254.662,13.439 269.097,20.189 282.542,29.013C294.395,36.79 305.421,45.688 315.284,55.904C323.375,64.284 331.185,72.935 339.142,81.446C340.341,82.728 341.005,83.792 339.437,85.398C337.873,87 336.823,86.296 335.412,85.256C325.359,77.849 315.418,70.273 305.134,63.199C291.23,53.634 276.19,46.043 260.643,39.567C252.613,36.222 244.259,33.619 235.958,30.971C226.361,27.91 216.507,25.959 206.533,24.43C188.962,21.737 171.351,21.028 153.644,22.339C148.236,22.74 142.786,22.947 137.443,23.796C129.411,25.073 121.368,26.493 113.493,28.488C105.129,30.607 96.871,33.231 88.715,36.059C73.633,41.288 59.242,48.139 45.737,56.608C34.316,63.771 23.287,71.574 12.242,79.318C7.92,82.349 4.028,85.994 0,89.31" style="fill:rgb(111,30,136);"/>
        </g>
        <g transform="matrix(1,0,0,1,252.605,409.261)">
            <path d="M0,-16.946C1.149,-17.698 1.932,-18.103 2.588,-18.657C7.83,-23.081 16.817,-23.987 22.769,-20.753C27.255,-18.315 28.41,-14.116 28.502,-9.584C28.692,-0.231 28.593,9.128 28.655,18.484C28.667,20.168 28.021,20.959 26.294,20.914C24.123,20.858 21.947,20.833 19.779,20.919C17.921,20.994 17.342,20.235 17.365,18.393C17.453,11.126 17.359,3.857 17.417,-3.41C17.443,-6.685 17.334,-10.2 14.074,-11.682C10.388,-13.359 6.425,-12.911 2.873,-10.579C0.7,-9.153 -0.353,-7.379 -0.278,-4.587C-0.073,3.01 -0.257,10.617 -0.142,18.218C-0.11,20.3 -0.751,21.113 -2.848,20.969C-4.761,20.837 -6.694,20.85 -8.609,20.967C-10.798,21.103 -11.503,20.217 -11.498,18.038C-11.465,3.002 -11.541,-12.036 -11.581,-27.072C-11.589,-29.83 -11.543,-32.588 -11.617,-35.343C-11.665,-37.136 -10.94,-37.971 -9.123,-37.931C-7.035,-37.884 -4.941,-37.831 -2.859,-37.948C-0.885,-38.059 -0.189,-37.257 -0.216,-35.318C-0.292,-29.973 -0.246,-24.626 -0.232,-19.279C-0.231,-18.712 -0.123,-18.146 0,-16.946" style="fill:rgb(111,30,136);"/>
        </g>
        <g transform="matrix(1,0,0,1,180.618,409.56)">
            <path d="M0,-0.11C-0.46,-2.029 -0.768,-4.002 -1.411,-5.858C-2.672,-9.498 -6.53,-12.197 -10.317,-12.35C-14.882,-12.536 -18.319,-10.844 -20.433,-6.625C-22.257,-2.982 -22.277,0.832 -21.248,4.547C-19.789,9.812 -14.73,13.325 -8.956,11.946C-3.284,10.592 -0.316,6.478 0,-0.11M11.304,-0.091C11.428,12.71 2.017,22.174 -11.094,22.229C-24.072,22.284 -33.567,12.934 -33.524,-0.044C-33.481,-13.217 -24.137,-22.228 -11.125,-22.31C2.35,-22.394 11.529,-12.126 11.304,-0.091" style="fill:rgb(111,30,136);"/>
        </g>
        <g transform="matrix(1,0,0,1,318.466,420.724)">
            <path d="M0,-23.451C-3.443,-12.65 -6.633,-2.525 -9.958,7.558C-10.22,8.354 -11.364,9.28 -12.202,9.397C-16.969,10.058 -17.307,9.765 -19.078,4.184C-22.922,-7.922 -26.727,-20.041 -30.543,-32.155C-30.564,-32.222 -30.504,-32.314 -30.338,-32.921C-28.503,-32.921 -26.282,-33.442 -24.569,-32.733C-23.477,-32.283 -22.962,-30.065 -22.491,-28.547C-19.88,-20.137 -17.376,-11.694 -14.795,-3.275C-14.542,-2.45 -14.009,-1.711 -13.263,-0.269C-11.972,-4.149 -10.883,-7.399 -9.81,-10.655C-7.551,-17.512 -5.243,-24.354 -3.078,-31.24C-2.298,-33.721 -0.412,-32.919 1.21,-33.066C2.671,-33.199 3.409,-32.645 3.891,-31.139C6.974,-21.484 10.174,-11.867 13.367,-2.248C13.577,-1.613 14.05,-1.065 14.678,-0.01C16.328,-5.558 17.785,-10.528 19.287,-15.484C20.879,-20.739 22.509,-25.983 24.137,-31.227C24.553,-32.567 25.352,-33.296 26.905,-33.13C28.21,-32.992 29.543,-33.102 31.378,-33.102C30.76,-30.648 30.326,-28.494 29.672,-26.408C26.639,-16.756 23.549,-7.121 20.464,2.514C20.161,3.462 19.677,4.356 19.408,5.312C18.245,9.445 17.017,10.27 12.836,9.357C12.187,9.215 11.386,8.49 11.165,7.856C8.983,1.577 6.882,-4.731 4.812,-11.048C3.68,-14.504 2.679,-18.003 1.548,-21.459C1.367,-22.008 0.809,-22.433 0,-23.451" style="fill:rgb(111,30,136);"/>
        </g>
        <g transform="matrix(1,0,0,1,78.9294,401.599)">
            <path d="M0,-3.473C-0.07,-2.05 -0.167,-0.979 -0.168,0.092C-0.172,8.862 -0.225,17.632 -0.101,26.4C-0.07,28.576 -0.879,29.181 -2.869,29.108C-5.607,29.008 -8.35,29.083 -11.342,29.083C-11.415,27.852 -11.52,26.888 -11.523,25.925C-11.543,17.155 -11.621,8.384 -11.505,-0.384C-11.473,-2.753 -12.102,-3.624 -14.574,-3.518C-18.743,-3.338 -18.749,-3.479 -18.749,-7.762C-18.749,-8.096 -18.752,-8.431 -18.749,-8.765C-18.703,-12.821 -19.514,-13.643 -14.341,-13.355C-11.891,-13.218 -11.558,-14.41 -11.474,-16.519C-11.039,-27.48 -1.928,-32.654 7.48,-29.697C16.142,-26.974 13.873,-26.614 10.562,-21.252C9.763,-19.959 9.15,-19.79 7.789,-20.502C3.659,-22.664 -0.184,-20.144 -0.189,-15.455C-0.19,-14.124 0.171,-13.366 1.62,-13.442C2.036,-13.465 2.455,-13.437 2.872,-13.433C9.015,-13.373 8.064,-14.011 8.119,-8.015C8.17,-2.556 8.337,-3.558 3.572,-3.476C2.497,-3.458 1.422,-3.473 0,-3.473" style="fill:rgb(111,30,136);"/>
        </g>
        <g transform="matrix(1,0,0,1,215.002,432.746)">
            <path d="M0,-46.468C5.359,-46.063 10.237,-44.636 14.732,-41.836C16.237,-40.899 16.949,-39.983 15.678,-38.249C14.561,-36.724 14.075,-34.36 12.647,-33.575C11.719,-33.066 9.621,-34.781 8.012,-35.408C4.256,-36.871 0.464,-38.087 -3.621,-36.702C-5.314,-36.128 -6.68,-35.271 -6.689,-33.263C-6.698,-31.299 -5.127,-30.861 -3.68,-30.485C-0.696,-29.711 2.319,-29.058 5.317,-28.334C9.504,-27.324 13.624,-25.967 16.19,-22.278C20.458,-16.143 18.854,-7.096 10.707,-3.826C1.176,0 -8.273,-0.972 -17.042,-6.57C-17.696,-6.988 -18.543,-8.235 -18.348,-8.662C-17.297,-10.97 -16.011,-13.187 -14.597,-15.296C-14.451,-15.513 -12.816,-14.971 -12.052,-14.495C-7.725,-11.796 -3.176,-9.926 2.051,-10.452C3.015,-10.549 4.206,-10.667 4.841,-11.26C5.908,-12.253 7.36,-13.702 7.258,-14.834C7.155,-15.972 5.53,-17.503 4.265,-17.909C0.32,-19.177 -3.797,-19.899 -7.796,-21.018C-11.281,-21.995 -14.507,-23.516 -16.244,-27.005C-19.832,-34.212 -15.911,-42.63 -7.798,-44.932C-5.258,-45.654 -2.603,-45.968 0,-46.468" style="fill:rgb(111,30,136);"/>
        </g>
        <g transform="matrix(1,0,0,1,491.613,372.898)">
            <path d="M0,56.549C-3.961,58.265 -7.602,57.384 -9.888,54.481C-13.681,49.661 -17.571,44.919 -21.339,40.081C-22.464,38.634 -23.145,38.616 -24.654,39.811C-28.655,42.979 -31.092,46.634 -30.115,51.975C-29.923,53.027 -30.098,54.142 -30.067,55.228C-30.026,56.676 -30.621,57.431 -32.154,57.311C-32.818,57.259 -33.495,57.259 -34.158,57.316C-35.963,57.471 -36.642,56.776 -36.622,54.875C-36.536,46.855 -36.598,38.835 -36.603,30.815C-36.611,21.041 -36.542,11.266 -36.674,1.493C-36.708,-0.975 -35.89,-1.716 -33.509,-1.588C-30.282,-1.416 -30.261,-1.535 -30.245,1.61C-30.19,12.051 -30.141,22.493 -30.071,32.935C-30.065,33.898 -29.932,34.859 -29.858,35.823C-29.633,35.947 -29.408,36.072 -29.182,36.197C-27.147,34.24 -25.063,32.331 -23.085,30.318C-18.457,25.608 -13.898,20.83 -9.271,16.12C-7.714,14.534 -4.678,14.238 -0.044,15.191C-2.091,17.393 -3.925,19.434 -5.834,21.405C-9.293,24.976 -12.736,28.567 -16.308,32.023C-17.818,33.483 -17.904,34.549 -16.528,36.188C-11.151,42.595 -5.9,49.107 -0.607,55.585C-0.41,55.826 -0.271,56.113 0,56.549" style="fill:rgb(111,30,136);"/>
        </g>
        <g transform="matrix(1,0,0,1,424.423,410.739)">
            <path d="M0,-4.64L0,-4.693C3.838,-4.693 7.675,-4.728 11.513,-4.678C13.32,-4.654 14.004,-5.26 13.812,-7.206C13.179,-13.619 7.17,-18.601 0.095,-18.73C-6.893,-18.855 -12.677,-12.7 -13.426,-6.778C-13.654,-4.976 -12.752,-4.62 -11.263,-4.631C-7.509,-4.657 -3.755,-4.64 0,-4.64M3.565,0.298C-1.198,0.298 -5.961,0.268 -10.724,0.309C-13.344,0.332 -13.757,1.033 -13.083,3.553C-9.742,16.036 4.143,17.553 12.89,11.211C14.021,10.391 14.84,9.207 16.04,11.126C16.978,12.625 18.624,13.647 16.17,15.536C6.013,23.361 -11.447,21.968 -17.9,9.551C-24.075,-2.332 -19.12,-17.477 -8.217,-22.339C4.482,-28.001 18.346,-20.41 20.171,-6.634C20.193,-6.467 20.205,-6.3 20.239,-6.136C21.755,1.45 20.932,0.138 14.847,0.23C11.254,0.286 7.66,0.241 4.066,0.241L3.565,0.241L3.565,0.298Z" style="fill:rgb(111,30,136);"/>
        </g>
        <g transform="matrix(1,0,0,1,375.37,409.886)">
            <path d="M0,-3.781L0,-3.817C3.34,-3.817 6.68,-3.813 10.019,-3.819C14.314,-3.827 14.972,-4.927 13.065,-8.869C12.85,-9.316 12.708,-9.798 12.498,-10.248C10.003,-15.596 4.16,-18.571 -2.198,-17.736C-7.174,-17.083 -12.468,-12.038 -13.43,-7.033C-13.969,-4.221 -13.642,-3.801 -10.77,-3.785C-7.181,-3.766 -3.59,-3.781 0,-3.781M3.414,1.148C-1.346,1.148 -6.106,1.133 -10.865,1.154C-13.44,1.164 -13.981,1.735 -13.353,4.099C-10.813,13.658 -2.537,17.374 6.42,15.039C8.824,14.413 11.145,13.037 13.19,11.569C15.356,10.015 15.744,12.025 16.632,12.898C17.675,13.924 17.704,15 16.391,16.06C11.686,19.859 6.207,21.515 0.319,21.26C-8.689,20.871 -15.636,16.91 -19.023,8.167C-23.46,-3.282 -19.488,-19.079 -4.624,-22.776C5.508,-25.296 15.042,-20.755 18.89,-10.112C19.86,-7.424 20.039,-4.448 20.566,-1.603C20.917,0.286 20.274,1.165 18.194,1.122C13.269,1.023 8.341,1.09 3.414,1.09L3.414,1.148Z" style="fill:rgb(111,30,136);"/>
        </g>
        <g transform="matrix(1,0,0,1,130.163,424.516)">
            <path d="M0,-31.805C2.833,-33.439 5.238,-35.359 7.979,-36.292C13.167,-38.055 13.509,-38.117 13.355,-32.669C13.352,-32.587 13.355,-32.503 13.355,-32.419C13.363,-26.917 13.318,-27.178 7.929,-26.242C5.444,-25.811 3.069,-24.305 0.872,-22.924C0.159,-22.476 -0.099,-20.881 -0.11,-19.805C-0.188,-12.04 -0.217,-4.273 -0.105,3.493C-0.073,5.61 -0.783,6.312 -2.833,6.184C-4.995,6.047 -7.173,6.129 -9.344,6.16C-10.737,6.178 -11.5,5.747 -11.498,4.154C-11.477,-8.621 -11.492,-21.399 -11.551,-34.175C-11.559,-35.742 -10.813,-36.268 -9.448,-36.282C-7.11,-36.305 -4.771,-36.262 -2.434,-36.311C-0.71,-36.348 0.003,-35.579 -0.149,-33.87C-0.206,-33.231 -0.062,-32.575 0,-31.805" style="fill:rgb(111,30,136);"/>
        </g>
        <g transform="matrix(1,0,0,1,101.975,411.403)">
            <path d="M0,-39.283C1.504,-39.281 3.013,-39.208 4.511,-39.301C6.243,-39.41 6.943,-38.729 6.856,-36.975C6.377,-27.383 5.948,-17.789 5.5,-8.196C5.399,-6.027 5.246,-3.86 5.2,-1.69C5.171,-0.335 4.64,0.285 3.236,0.239C1.316,0.178 -0.613,0.136 -2.527,0.261C-4.059,0.361 -4.654,-0.379 -4.83,-1.716C-4.971,-2.791 -5.155,-3.869 -5.201,-4.951C-5.637,-15.38 -5.987,-25.814 -6.513,-36.238C-6.635,-38.649 -5.978,-39.644 -3.506,-39.312C-2.357,-39.158 -1.169,-39.285 0,-39.283" style="fill:rgb(111,30,136);"/>
        </g>
        <g transform="matrix(1,0,0,1,54.6403,78.067)">
            <path d="M0,7.14C2.485,4.411 4.949,1.665 7.46,-1.04C9.466,-3.202 9.985,-3.323 12.992,-2.434C10.756,-0.145 8.726,2.101 6.512,4.147C4.735,5.788 4.614,7.184 6.266,8.993C8.219,11.134 9.988,13.445 11.808,15.705C12.294,16.308 12.672,16.997 13.233,17.848C11.116,18.481 9.636,18.415 8.383,16.679C6.789,14.469 4.955,12.436 3.31,10.262C2.306,8.936 1.451,9.003 0.294,10.078C-1.38,11.633 -1.86,13.499 -1.739,15.698C-1.681,16.752 -1.327,18.195 -3.239,18.227C-5.088,18.256 -5.129,17.064 -5.126,15.703C-5.105,7.518 -5.105,-0.669 -5.126,-8.854C-5.129,-10.134 -5.033,-11.209 -3.376,-11.271C-1.494,-11.341 -1.737,-9.959 -1.727,-8.843C-1.685,-4.667 -1.737,-0.489 -1.668,3.686C-1.653,4.661 -1.3,5.632 -1.102,6.604C-0.734,6.782 -0.367,6.961 0,7.14" style="fill:rgb(111,30,136);"/>
        </g>
        <g transform="matrix(1,0,0,1,84.9768,77.8389)">
            <path d="M0,16.791C-2.262,18.214 -4.949,19.596 -8.259,18.712C-11.459,17.857 -12.842,16.4 -13.045,12.399C-13.269,7.984 -13.18,3.546 -13.033,-0.876C-13.011,-1.522 -11.913,-2.131 -11.313,-2.758C-10.741,-2.123 -9.704,-1.508 -9.675,-0.849C-9.51,2.903 -9.621,6.666 -9.569,10.424C-9.519,14.056 -8.122,15.485 -4.818,15.428C-1.262,15.366 1.186,13.272 1.204,10.234C1.225,6.643 1.244,3.05 1.196,-0.541C1.177,-1.911 1.438,-2.805 3.086,-2.778C4.796,-2.751 4.613,-1.587 4.615,-0.508C4.625,4.838 4.68,10.185 4.572,15.529C4.553,16.511 3.862,17.481 3.481,18.456C2.483,17.979 1.485,17.502 0,16.791" style="fill:rgb(111,30,136);"/>
        </g>
        <g transform="matrix(1,0,0,1,116.773,86.3631)">
            <path d="M0,-1.777C1.667,-1.777 3.338,-1.844 5.001,-1.759C6.859,-1.665 7.151,-2.647 6.76,-4.12C5.961,-7.137 3.183,-8.971 -0.306,-8.837C-3.35,-8.721 -5.996,-6.537 -6.55,-3.681C-6.793,-2.431 -6.349,-1.758 -5.001,-1.777C-3.335,-1.8 -1.667,-1.783 0,-1.777M9.881,0.476C5.216,0.476 0.638,0.463 -3.94,0.48C-6.798,0.491 -7.098,0.986 -5.852,3.506C-3.991,7.27 1.323,8.659 5.15,6.377C5.578,6.122 5.981,5.665 6.423,5.628C7.036,5.577 7.82,5.665 8.245,6.028C8.484,6.232 8.366,7.353 8.039,7.644C4.768,10.558 0.901,11.1 -3.144,9.855C-6.522,8.815 -8.786,6.393 -9.687,2.95C-10.849,-1.49 -10.247,-5.585 -6.862,-9.002C-3.714,-12.18 1.04,-12.877 5.069,-10.708C8.694,-8.755 10.807,-4.086 9.881,0.476" style="fill:rgb(111,30,136);"/>
        </g>
        <g transform="matrix(1,0,0,1,42.9287,91.8853)">
            <path d="M0,-12.639C-1.417,-13.313 -2.701,-14.219 -4.112,-14.514C-5.595,-14.825 -7.326,-14.902 -8.713,-14.414C-9.703,-14.066 -10.825,-12.657 -10.91,-11.641C-10.972,-10.885 -9.608,-9.669 -8.625,-9.243C-6.59,-8.359 -4.38,-7.884 -2.252,-7.207C0.299,-6.394 1.755,-4.647 1.939,-1.962C2.109,0.52 0.481,3.271 -1.985,4.141C-5.749,5.469 -9.549,5.304 -13.027,3.224C-13.673,2.837 -13.752,1.504 -14.093,0.607C-13.271,0.723 -12.303,0.599 -11.653,0.996C-9.395,2.374 -6.997,2.871 -4.468,2.317C-2.889,1.97 -1.531,1.146 -1.392,-0.803C-1.249,-2.809 -2.507,-3.603 -4.118,-4.113C-6.252,-4.788 -8.416,-5.372 -10.53,-6.104C-12.981,-6.952 -14.345,-8.607 -14.204,-11.354C-14.065,-14.063 -12.824,-15.727 -10.182,-16.758C-6.718,-18.108 -3.513,-17.517 -0.379,-15.74C1.256,-14.813 1.132,-13.827 0,-12.639" style="fill:rgb(111,30,136);"/>
        </g>
        <g transform="matrix(1,0,0,1,161.065,64.6236)">
            <path d="M0,16.964C-1.766,13.316 0.05,9.094 -1.605,5.197C-3.205,8.995 -4.804,12.792 -6.626,17.117C-9.68,13.512 -9.928,8.849 -12.456,5.463C-12.721,5.49 -12.987,5.517 -13.252,5.545C-13.252,7.358 -13.253,9.172 -13.252,10.986C-13.251,12.405 -13.153,13.834 -13.291,15.24C-13.349,15.839 -13.898,16.39 -14.225,16.962C-14.617,16.353 -15.328,15.755 -15.349,15.133C-15.462,11.88 -15.4,8.621 -15.398,5.364C-15.397,4.278 -15.562,3.157 -15.342,2.118C-15.17,1.309 -14.519,0.601 -14.081,-0.153C-13.259,0.408 -12.062,0.786 -11.683,1.564C-10.411,4.169 -9.471,6.935 -8.308,9.599C-8.013,10.273 -7.36,10.792 -6.872,11.381C-6.473,10.819 -5.96,10.306 -5.694,9.686C-4.652,7.257 -3.7,4.789 -2.686,2.348C-2.431,1.737 -2.2,0.983 -1.714,0.635C-1.178,0.25 -0.359,0.13 0.331,0.146C0.644,0.153 1.205,0.765 1.208,1.108C1.264,6.333 1.247,11.56 1.247,16.786C0.832,16.846 0.416,16.905 0,16.964" style="fill:rgb(111,30,136);"/>
        </g>
        <g transform="matrix(0.0242805,-0.999705,-0.999705,-0.0242805,102.562,417.676)">
            <path d="M-6.891,-6.753C-10.69,-6.799 -13.96,-3.687 -14.026,0.036C-14.099,4.006 -11.041,7.01 -6.891,7.044C-2.886,7.079 0.145,4.199 0.206,0.301C0.267,-3.612 -2.844,-6.703 -6.891,-6.753" style="fill:rgb(111,30,136);"/>
        </g>
        <g transform="matrix(1,0,0,1,95.8972,84.2019)">
            <path d="M0,-3.822C0.001,-7.499 -0.018,-11.176 0.013,-14.852C0.023,-16.004 -0.094,-17.36 1.654,-17.393C3.537,-17.428 3.45,-16.053 3.45,-14.766C3.45,-8.081 3.479,-1.395 3.437,5.29C3.422,7.585 3.828,9.277 6.724,9.115C7.255,9.085 8.232,9.957 8.287,10.486C8.339,11.002 7.587,11.912 6.995,12.134C3.071,13.606 0.282,11.715 0.039,7.458C-0.071,5.542 0.003,3.615 -0.001,1.693C-0.005,-0.145 -0.002,-1.984 0,-3.822" style="fill:rgb(111,30,136);"/>
        </g>
        <g transform="matrix(1,0,0,1,142.706,80.5836)">
            <path d="M0,-14.778C-0.484,-14.612 -0.848,-14.408 -1.229,-14.368C-5.401,-13.941 -5.401,-13.948 -5.401,-9.714C-5.399,-6.964 -5.379,-4.213 -5.41,-1.463C-5.419,-0.668 -5.575,0.126 -5.664,0.921C-5.96,1.004 -6.256,1.086 -6.551,1.168C-6.866,0.373 -7.429,-0.415 -7.451,-1.218C-7.55,-4.715 -7.574,-8.221 -7.455,-11.717C-7.389,-13.665 -8.083,-14.515 -10.037,-14.345C-10.612,-14.295 -11.223,-14.298 -11.772,-14.446C-12.082,-14.529 -12.399,-14.92 -12.517,-15.244C-12.575,-15.405 -12.184,-15.946 -12.004,-15.942C-8.069,-15.855 -4.135,-15.716 -0.202,-15.566C-0.156,-15.564 -0.122,-15.269 0,-14.778" style="fill:rgb(111,30,136);"/>
        </g>
        <g transform="matrix(1,0,0,1,267.64,143.623)">
            <path d="M0,129.665L-31.439,129.665L-31.439,27.912L-68.048,27.912L-68.048,0L36.272,0L36.272,27.806L0,27.806L0,129.665Z" style="fill:rgb(242,235,244);"/>
        </g>
        <g transform="matrix(1,0,0,1,355.351,223.104)">
            <path d="M0,31.01C-20.261,31.01 -20.261,0 0,0C20.257,0 20.257,31.01 0,31.01" style="fill:rgb(242,235,244);"/>
        </g>
        <g transform="matrix(-1,0,0,1,301.532,-53.792)">
            <rect x="104.187" y="217.659" width="93.158" height="118.474" style="fill:rgb(111,30,136);"/>
        </g>
        <g transform="matrix(1,0,0,1,203.581,176.821)">
            <path d="M0,95.936C-21.444,95.964 -42.887,95.992 -64.331,96.019C-64.17,90.039 -64.008,84.058 -63.847,78.077C-62.189,75.897 -59.559,72.459 -56.252,68.236C-52.152,62.999 -51.505,62.292 -49.402,59.486C-47.11,56.429 -47.283,56.474 -40.88,47.201C-37.266,41.966 -35.327,39.224 -33.185,34.829C-31.527,31.43 -30.993,29.588 -31.039,27.459C-31.066,26.207 -31.167,21.468 -35.076,18.979C-37.79,17.25 -40.978,17.473 -42.789,17.601C-43.833,17.674 -46.277,17.871 -48.818,19.23C-52.851,21.385 -54.299,24.954 -55.129,26.998C-56.708,30.89 -56.455,34.383 -56.11,36.396C-61.112,36.312 -66.113,36.229 -71.115,36.145C-71.41,34.255 -71.664,31.57 -71.395,28.377C-71.178,25.805 -70.485,17.588 -64.664,10.834C-60.273,5.74 -54.765,3.639 -52.322,2.69C-50.75,2.08 -44.851,-0.083 -36.759,0.184C-34.253,0.266 -16.251,0.859 -9.726,11.928C-7,16.553 -7.28,21.306 -7.492,24.898C-7.641,27.439 -8.209,31.397 -11.904,39.166C-14.84,45.34 -17.832,49.885 -23.355,57.684C-26.961,62.775 -31.675,69.293 -37.382,76.834C-24.953,76.917 -12.524,77 -0.095,77.083C-0.063,83.367 -0.032,89.652 0,95.936" style="fill:rgb(242,235,244);fill-rule:nonzero;"/>
        </g>
        <g transform="matrix(1,0,0,1,0,-43.158)">
            <rect x="307.84" y="209.358" width="103.122" height="124.442" style="fill:rgb(111,30,136);"/>
        </g>
        <g transform="matrix(0,-1,-1,0,334.911,184.069)">
            <path d="M-41.941,-41.941C-69.018,-41.941 -90.969,-23.164 -90.969,-0.001C-90.969,23.162 -69.018,41.941 -41.941,41.941C-14.863,41.941 7.088,23.162 7.088,-0.001C7.088,-23.164 -14.863,-41.941 -41.941,-41.941" style="fill:rgb(242,235,244);"/>
        </g>
        <g transform="matrix(0,-1,-1,0,334.911,203.7)">
            <path d="M-22.31,-22.31C-38.728,-22.31 -52.04,-12.322 -52.04,0C-52.04,12.322 -38.728,22.31 -22.31,22.31C-5.89,22.31 7.421,12.322 7.421,0C7.421,-12.322 -5.89,-22.31 -22.31,-22.31" style="fill:rgb(111,30,136);"/>
        </g>
    </g>
</svg>
