<svg xmlns="http://www.w3.org/2000/svg" viewBox="0 0 1919.58 1079.76"><defs><style>.cls-1{fill:none;}.cls-2{fill:#a673cd;}.cls-3{fill:#70168a;}.cls-4{fill:#4c227b;}.cls-5{fill:#eaeaea;}.cls-6{fill:#cec3b4;}.cls-7{fill:#d5d5d5;}.cls-8{fill:#909295;}.cls-9{fill:#fff;}</style></defs><title>Asset 27</title><g id="Layer_2" data-name="Layer 2"><g id="background"><rect class="cls-1" width="1919.58" height="1079.76"/></g><g id="spaceship"><path class="cls-2" d="M375.43,509.45h0c.06-.05,48-36.68,62.56-15.43,11.84,17.33-1.45,24.9-23,42.44-19.1,15.57-48.56,36.79-55,41.38a4.87,4.87,0,0,1-2.76.88h0c-.61,0-15.17.82,9.48-19.53l7-5.75s0,0,0,0c1.54-1,6.66-11.59-5-7.94-1.85.59-9.94,6.95-12.28,8.65a7.29,7.29,0,0,1-3.7,1.36c-2.3.16-5.06-.4-1.93-4.93,4.79-6.92,31.17-24.55,31.37-24.68h0l2.46-2.26a8.24,8.24,0,0,0,2.17-3.28c1.32-3.77.84-9.35-8.43-4.34-7.57,4.1-11.11,6.46-12.77,7.8a6.8,6.8,0,0,1-4.93,1.52C356.81,524.89,354.74,521.26,375.43,509.45Z"/><path class="cls-3" d="M402.18,502.45l1.81-.93s22.44-12.26,29.41-4.11c5.67,6.65,2.17,14.29-8.15,21-9.16,6-21.29,20.52-24.36,22.28a17.74,17.74,0,0,1-2.88,1.82,8.6,8.6,0,0,1-2.33,1.1,2.15,2.15,0,0,1-2.09-1.2c-.77-1.4-1.28-1.94,6.11-6.82l2.32-1.69a17,17,0,0,0,3-2.5c1.07-1.22,2.56-2.6,3.44-3.61.38-.44,1.77-1.88,2.21-2.25,4.05-3.35-2.82-10.12-7.72-6.9-.89.22-4.49,3.85-7.67,4.61-2.47.6-2.79,0-3-.09s-1.27-1.29.23-3c2.3-2.65,14-10.48,14.11-10.53h0l1.17-.86a3.19,3.19,0,0,0,1-1.26c.64-1.45.37-5.16-4.07-3.24a57.52,57.52,0,0,0-6.09,2.82,9.42,9.42,0,0,1-3.67,1.21C393.18,508.14,392.26,507,402.18,502.45Z"/><path class="cls-3" d="M392.11,546.2c-3.17,2.25-6.25,4.63-9.15,7.07a1.49,1.49,0,0,1-2-.13,1.33,1.33,0,0,1-.17-1.6,1.93,1.93,0,0,1,.3-.35c3-2.48,6.11-4.9,9.34-7.2a1.48,1.48,0,0,1,2,.28A1.35,1.35,0,0,1,392.11,546.2Z"/><path class="cls-3" d="M391.07,509.19c-1.68.85-3.34,1.76-4.92,2.72a.69.69,0,0,1-.94-.23.68.68,0,0,1,.06-.8.5.5,0,0,1,.17-.15c1.61-1,3.3-1.9,5-2.77a.69.69,0,1,1,.61,1.23Z"/><path class="cls-3" d="M390.4,525.88c-2.12,1.57-4.18,3.23-6.12,4.92a1,1,0,0,1-1.36-.09,1,1,0,0,1-.11-1.11.91.91,0,0,1,.2-.24c2-1.73,4.08-3.42,6.24-5a1,1,0,0,1,1.35.2A1,1,0,0,1,390.4,525.88Z"/><path class="cls-3" d="M379.84,533.75c-1.52,1.12-3,2.31-4.38,3.52a.69.69,0,0,1-1-.86.8.8,0,0,1,.15-.17c1.41-1.24,2.91-2.45,4.46-3.6a.69.69,0,0,1,.82,1.11Z"/><path class="cls-2" d="M477.16,487.48s6,11.23-1.37,21.31c-5.09,7-35.73,19.86-44,18,0,0,34-18.8,28.6-31.35Z"/><path class="cls-4" d="M466.41,493.56l-.58-.68-5.45,2.59c5.35,12.55-28.6,31.35-28.6,31.35S470.94,512.92,466.41,493.56Z"/><path class="cls-2" d="M451.27,457.1s-10.25-7.85-21.91-2.81c-8.07,3.49-23.66,25.21-23.39,33.41,0,0,22.24-23.72,34-16.24Z"/><path class="cls-4" d="M443,466.11l.58.69-3.68,4.66c-11.72-7.48-34,16.24-34,16.24S423.15,459.33,443,466.11Z"/><path class="cls-5" d="M491.43,423.27A61.86,61.86,0,0,1,528,421.79a56.18,56.18,0,0,1-8.52,34.35c-7.56,11.93-18,20.88-39,31.05s-27.67,13.07-27.67,13.07-5.82-2.11-11.55-8.83A36.66,36.66,0,0,1,433.8,478s4.21-5.7,18.59-23.71S477.86,428.15,491.43,423.27Z"/><polygon class="cls-6" points="503.33 428.46 503.33 428.46 503.33 428.46 503.33 428.46"/><path class="cls-4" d="M468.17,469.94c8.74,10.26,15.58,15,16.06,15.35l4.34-2.28a115.38,115.38,0,0,1-30.49-35.5l-3,3.51A106.19,106.19,0,0,0,468.17,469.94Z"/><path class="cls-4" d="M473.69,465.55a111.19,111.19,0,0,0,16.89,16.35l2.48-1.43c-.17-.11-19.37-14.6-31.42-36.87l-1.82,2A118.06,118.06,0,0,0,473.69,465.55Z"/><path class="cls-4" d="M487,425c22,15.54,29.74,34.8,29.8,35l1.66-2.4c-.24-.71-8.18-19-28.65-33.72Z"/><path class="cls-2" d="M495.43,422a61.78,61.78,0,0,1,32.53-.21,56,56,0,0,1-6.54,30.95C521.4,452.67,516.56,437.66,495.43,422Z"/><polygon class="cls-2" points="503.33 428.46 503.33 428.46 503.33 428.46 503.33 428.46"/><path class="cls-2" d="M463.87,471.88s-6,22.54-29.2,21.17C434.67,493.05,446.94,467.45,463.87,471.88Z"/><path class="cls-4" d="M434.67,493.05s12.27-25.6,29.2-21.17C463.87,471.88,439.76,480.91,434.67,493.05Z"/><path class="cls-2" d="M510.18,457.41a1.72,1.72,0,1,1-1.12,2.24A1.77,1.77,0,0,1,510.18,457.41Z"/><path class="cls-2" d="M493.39,472a1.72,1.72,0,1,1-1.12,2.23A1.77,1.77,0,0,1,493.39,472Z"/><path class="cls-2" d="M505.52,462.93a2.5,2.5,0,1,1-1.62,3.25A2.56,2.56,0,0,1,505.52,462.93Z"/><path class="cls-2" d="M499.87,467.64a2.5,2.5,0,1,1-1.62,3.25A2.57,2.57,0,0,1,499.87,467.64Z"/><path class="cls-2" d="M469.86,445.7a1.75,1.75,0,0,1-2.17-1.21,1.79,1.79,0,0,1,1.33-2.13,1.75,1.75,0,0,1,2.17,1.21A1.79,1.79,0,0,1,469.86,445.7Z"/><path class="cls-2" d="M488,432.67a1.74,1.74,0,0,1-2.17-1.2,1.79,1.79,0,0,1,1.33-2.13,1.73,1.73,0,0,1,2.17,1.2A1.79,1.79,0,0,1,488,432.67Z"/><path class="cls-2" d="M475,440.61a2.53,2.53,0,0,1-3.16-1.75,2.6,2.6,0,0,1,1.93-3.09,2.54,2.54,0,0,1,3.17,1.75A2.6,2.6,0,0,1,475,440.61Z"/><path class="cls-2" d="M481.11,436.42a2.53,2.53,0,0,1-3.16-1.75,2.59,2.59,0,0,1,1.93-3.09,2.53,2.53,0,0,1,3.16,1.75A2.6,2.6,0,0,1,481.11,436.42Z"/><path class="cls-2" d="M462.76,467.69s-5.89-5.42-8-12.7l-19.34,23.65,2,4S439.58,473.8,462.76,467.69Z"/><path class="cls-2" d="M468.18,474.75a32.46,32.46,0,0,0,11.36,10.05l-27.75,13.77-3.71-2.63S457.51,495.55,468.18,474.75Z"/><path class="cls-7" d="M477.89,445.13a13.76,13.76,0,1,0,18.8-5A13.76,13.76,0,0,0,477.89,445.13Z"/><path class="cls-8" d="M494.8,441.45a.89.89,0,0,0,1.55.89.89.89,0,0,0-1.55-.89Z"/><path class="cls-8" d="M500.11,448.37a.89.89,0,1,0,1.54.9.91.91,0,0,0-.32-1.23A.9.9,0,0,0,500.11,448.37Z"/><path class="cls-8" d="M486,440.2a.89.89,0,1,0,1.22-.32A.89.89,0,0,0,486,440.2Z"/><path class="cls-8" d="M478,454.5a.9.9,0,0,0,1.55.9.9.9,0,0,0-1.55-.9Z"/><path class="cls-8" d="M492.37,462.86a.89.89,0,0,0,.32,1.22.9.9,0,0,0,.9-1.55A.89.89,0,0,0,492.37,462.86Z"/><path class="cls-8" d="M483.18,461.64a.89.89,0,1,0,1.54.9.89.89,0,1,0-1.54-.9Z"/><path class="cls-8" d="M499.32,457.08a.89.89,0,0,0,.32,1.22.9.9,0,0,0,.9-1.55A.89.89,0,0,0,499.32,457.08Z"/><path class="cls-8" d="M479,445.75a.9.9,0,0,0,1.55.9.9.9,0,0,0-1.55-.9Z"/><path class="cls-2" d="M481.55,447.25a9.53,9.53,0,1,0,13-3.46A9.52,9.52,0,0,0,481.55,447.25Z"/><path class="cls-9" d="M495.66,452a1,1,0,1,0,1.12.74A1,1,0,0,0,495.66,452Z"/><path class="cls-4" d="M488.37,458.25l-1.47,2.09s-9-3.66-4.17-13.08l2.37,1.37S481.41,454.41,488.37,458.25Z"/><rect class="cls-4" x="483.78" y="445.62" width="1.35" height="2.68" transform="translate(-145.29 641.64) rotate(-59.87)"/><path class="cls-9" d="M493.3,446.29a2.67,2.67,0,1,0,3.38.82A2.48,2.48,0,0,0,493.3,446.29Z"/></g></g></svg>