<svg xmlns="http://www.w3.org/2000/svg" viewBox="0 0 1919.58 1079.76"><defs><style>.cls-1{fill:none;}.cls-2{fill:#a673cd;}.cls-3{fill:#4c227b;}</style></defs><title>Asset 38</title><g id="Layer_2" data-name="Layer 2"><g id="background"><rect class="cls-1" width="1919.58" height="1079.76"/></g><g id="planet"><path class="cls-2" d="M631.7,579.77a26.59,26.59,0,1,1-26.59-26.59A26.59,26.59,0,0,1,631.7,579.77Z"/><path class="cls-3" d="M586.34,598.56a26.5,26.5,0,0,0,3.34,2.82c7.07-1.32,21.75,3.89,30.42.31a26.78,26.78,0,0,0,5.17-4.63C614.49,587.72,594.05,596.57,586.34,598.56Z"/><path class="cls-3" d="M622.81,559.9c-11.07,1.93-26.58-.43-33.34-1.66a26.42,26.42,0,0,0-4.53,4.18c10.08,4.42,28.31,11.23,46.22,12A26.51,26.51,0,0,0,622.81,559.9Z"/><path class="cls-3" d="M578.66,577.05a26.42,26.42,0,0,0-.14,2.68c0,.95.06,1.89.15,2.82,16-.27,51,2.85,1.82,7.23a27.13,27.13,0,0,0,2.25,4.31L630,589a26.41,26.41,0,0,0,1.62-8C614.76,574.67,593.5,579.52,578.66,577.05Z"/><path class="cls-2" d="M597.74,572c0-1.57-3.32-2.84-7.42-2.84s-7.42,1.27-7.42,2.84,3.33,2.85,7.42,2.85S597.74,573.61,597.74,572Z"/><path class="cls-2" d="M613.67,557.41c0-.63-1.77-1.14-4-1.14s-4,.51-4,1.14,1.77,1.14,4,1.14S613.67,558,613.67,557.41Z"/><path class="cls-2" d="M602.7,557.94c0-.42-1.17-.75-2.61-.75s-2.6.33-2.6.75,1.16.75,2.6.75S602.7,558.35,602.7,557.94Z"/><path class="cls-2" d="M605.58,604.1c0-.37-1.43-.67-3.2-.67s-3.2.3-3.2.67,1.43.67,3.2.67S605.58,604.47,605.58,604.1Z"/><path class="cls-2" d="M623.31,592.82c0,.81.39,1.47.87,1.47s.87-.66.87-1.47-.39-1.47-.87-1.47S623.31,592,623.31,592.82Z"/><path class="cls-2" d="M601.26,574.45c0,.52,1.37.95,3.06.95s3.06-.43,3.06-.95-1.37-.94-3.06-.94S601.26,573.93,601.26,574.45Z"/></g></g></svg>