<svg xmlns="http://www.w3.org/2000/svg" viewBox="0 0 1919.58 1079.76"><defs><style>.cls-1{fill:none;}.cls-2{fill:#4c227b;}.cls-3{fill:#a573cc;}</style></defs><title>Asset 39</title><g id="Layer_2" data-name="Layer 2"><g id="background"><rect class="cls-1" width="1919.58" height="1079.76"/></g><g id="earth"><circle class="cls-2" cx="1295.39" cy="708.85" r="245.82" transform="translate(-121.82 1123.59) rotate(-45)"/><path class="cls-3" d="M1073.2,633.23c2.64,4.09-1.3,14.67,0,19.33s5.91,13.91,10,16.61c1.7,1.13,6.45,2.39,8.12,1.22,1.2-.84,1.33-4.28,1-5.7-.87-4.21-8.06-10.38-9.58-14.41-1.24-3.31-4.26-11.36-1.87-14,.93-1,4.55-.89,5.62,0,2.85,2.37,1,11,2.38,14.42,2.28,5.54,13.55,13.74,13.86,19.7.09,1.81-3.66,4.55-3.59,6.36.16,3.92,5.52,10.87,8.8,13.14,4.59,3.18,17.43,8.66,21.86,5.27.7-.53-.66-2.88,0-3.45,1.67-1.41,7.41-.5,8.75,1.22,1,1.22-1.75,4.85-.82,6.09s5.16.85,6.86,1.22c2.69.6,10.62,2.84,10.62,2.84s9.91,14.19,15,16.66c4.29,2.09,15.68-1.83,19.15,1.41,2.84,2.65,3.48,11.73,1.87,15.24s-11.18,5.51-13.11,8.93c-1.68,3-.16,10.23-.62,13.61-.28,2.11-1.87,8.32-1.87,8.32s15.8,16.41,18.94,23.16c.85,1.83.08,6.43,1.47,7.91s6.87,1.82,7.7,1.82,15.41,10.78,15.41,10.78-6.48,33.49,0,41.83c.82,1,4.49.31,5.2,1.42,2.67,4.15-4.7,14.52-3.54,19.29.84,3.46,8.75,11.38,8.75,11.38S1226.9,899.27,1228,904c1.26,5.57,7.86,15.4,11.56,19.81,3.12,3.72,10.25,10.91,14.85,12.64,3.48,1.3,11.89,2.4,14.9.27,1-.72,1.82-3.5,1.46-4.67-1-3.35-9.68-5.74-11-9-.41-1.06.37-3.38.64-4.47.35-1.41,1.67-4.06,2-5.48s1.38-4.54.41-5.58c-1.24-1.34-6.79,0-7.4-.2-1.45-.39-3.85-3.13-3.75-4.59.14-2.08,5.15-4,6.16-5.78l.83-4.37-6.87-1.92.4-4.06,9.8-1.44s11.91-4.21,14.9-7c0,0,5.21-9.26,5-8.94L1294,854.12l3.54-4.42L1294,834.51a.11.11,0,0,1,0-.08c.61-2.25,4.77-8.09,4.77-8.09l14.38.42,9.67-7.47c3.65-6.47.28-22.55,3.13-29.4,1.63-3.92,8.88-9.46,10.72-13.29,1-2,3-6.65,1.89-8.54-1.29-2.17-7.77-1.51-9.78-3.06,0,0-5.26-9.22-6.47-10.33,0,0-16.64.79-22.07-.21a50.94,50.94,0,0,1-6.24-2.32L1282.69,748s.07-9.26-.83-12.18c-.85-2.74-5.84-9.95-5.84-9.95l-15.81-.21c-4.26-.06-6-11.24-9.17-14-1.69-1.46-6.15-4.94-8.13-3.86-1,.53.38,3.52-.41,4.26-2.66,2.51-11.44,2.41-14.78.86-2.09-1-3.47-6.12-5.41-7.35-3.31-2.08-11.7-4.29-15.42-3-4.59,1.52-8.13,12.72-12.69,14.32-4.78,1.67-20-3.31-20-3.31s2.33-17.88-1.45-22c-2.47-2.69-13,.81-14.59-2.43-1.38-2.74,5.49-7.75,5.85-10.78.19-1.59-.15-5.63-1.68-6.19-5.39-2-13.56,11.19-19.16,12.5-3,.68-9.61.31-12.06-1.44-2.09-1.49-4.1-6.67-4.31-9.19s1.69-7.19,2.63-9.47c1.3-3.16,6.66-12,6.66-12s11.13-6.59,15.3-7.56c7.19-1.67,24.36-5.13,29.56,0,1.58,1.56-.09,8.79-.09,8.79s8.21,6.42,10.63,4.83c3.2-2.11-2.21-11.51-.84-15,1-2.48,5.55-5.84,7.65-7.51,3.58-2.86,15.46-9.9,15.46-9.9s.25-5.38,1-7c2.44-4.87,11-12.34,15.41-15.64,3.71-2.78,16-4.3,16.39-8.84,0-.46-1.43-.71-1.45-1.17-.12-3.71,7.41-9.27,11.1-10.18a7.31,7.31,0,0,1,4.06,1c.63.4,1.12,2.25,1.87,2.28,1.57,0,2.93-3.66,4.21-4.56.23-.16,1.07-.17,1-.44-.16-1.13-3.48-.37-4.62-.63s-4-.55-4.68-1.52-.48-3.42,0-4.42a5.8,5.8,0,0,1,2.49-2,14,14,0,0,1,5.47,0,6.94,6.94,0,0,1,2.51,1.07c.88.82,1.09,3.72,2.17,4.27a3.14,3.14,0,0,0,2.66-.39c.07-.08-.07-.32,0-.38s.57.23.77.25c1.93.16,6.22.1,7.67-1.16.73-.63.23-3.18,1.08-3.66s3.68.2,4.38,1.07.47,3.09,0,4c-.57,1.06-4.44,1.58-4.07,2.73h0c.85.72-.14,3.51.59,4.35,1.7,2,7.56,2.27,10.09,3,1,.29,3.16.43,3.84,1.16,0,0-.06.09,0,.16a3.41,3.41,0,0,0,3.2-.27c1-1.06,1-4.63.21-5.88-1-1.66-6.19-1.59-7.27-3.24-.83-1.25-.89-4.73,0-5.94.73-1,4-.6,4.77-1.59,1.32-1.71,1.43-6.65.41-8.54-.71-1.31-3.89-2.31-5.18-3.08-1.1-.65-3.73-1.53-4.38-2.6-1.87-3.11-.63-14.41-.63-14.41s-9.55,5.48-13.11,6.29c-1.17.27-4,.87-4.8,0-1.89-2.06,2.88-8.72,1.25-11-2.64-3.66-13.37-5-17.86-4.11-2.26.47-6.36,3.42-7.39,5.44-1.89,3.71,2.52,13.25,0,16.6-2,2.74-10.64,1.88-13.27,4.11-2.32,2-2.86,9-5.32,10.81-1.17.85-4.66,1.83-5.77.91-2.7-2.24,2.33-11.24,0-13.84-2.07-2.32-12.49-1.69-12.49-1.69l-6.25-4s-3.41-6.82-2.51-9c2.45-5.84,16.41-10.22,22.33-12.75,2.62-1.12,8.53-4.73,10.94-3.24,1.57,1-.34,6,1.1,7.16,1.18.94,5,.7,6.09-.32.69-.62-.18-2.95.47-3.6,1.13-1.12,5.26.25,6.36-.89a1.38,1.38,0,0,0,.11-1.25c-.38-.62-2.27-.54-2.72-1.1-.61-.76-1.24-3.05-.63-3.81,1.21-1.51,6,.18,7.82-.64,1.54-.72,3.63-3.54,4.73-4.8.08-.08.17-.33.27-.35l.06,0c.51-.08,1-1.23,1.43-1.46,3.71-1.81,12.49-3.18,16.46-2,2.29.67,7.54,3.72,7.28,6-.58,5.24-19.77,4.69-19.08,9.91.8,6,18.77,8.42,24.28,5.59,1.93-1,1.35-6.72,3.14-7.92.43-.29,1.57,0,2.09,0,2.13,0,6.7,1.07,8.53,0s4.57-5.12,3.75-6.9-6.32-.34-7.51-1.83c-1.38-1.72,1.22-6.9,0-8.73-.71-1.07-3.58-1.55-4.77-2.07-4.69-2-13.68-7.33-18.74-8.09-4-.6-12.35.65-16.26,1.83-2.47.74-7.88,2.48-9.16,4.67-1.44,2.48,2.79,9.46.63,11.37-1.8,1.59-7.8.18-9.58-1.42-1.21-1.1-2-4.75-1.49-6.29.93-2.89,10.24-5.28,9.19-8.13-1.4-3.83-12.52-1.3-16.66-.8-1.24.15-3.87.58-4.79,1.41-1.09,1-2.83,4.22-2.08,5.48s5.35-.25,6.25,1-.06,5.07-1.26,6.08c-2,1.7-8.45-.89-10.61.62-.91.63-.76,3.42-1.68,4-3.16,2.14-12.56,3-15.38.41-1.6-1.44-.45-8.38-1-8.51,0,0-.06,0,0,0h0c.64.1,9.45.84,12.06-.22,3-1.2,9.67-5.65,9.17-8.73-.22-1.35-3.63-2.65-5-2.44-2.29.35-4.48,5.51-6.65,6.3-2.59.94-8.63.69-11.06-.61s-4.13-7.69-6.66-8.94c-3.15-1.57-10.8-1.09-14.16,0-4.38,1.42-16.24,6.49-14.79,10.76,1.07,3.14,10.83-2,13.56,0a4.94,4.94,0,0,1,1.23,3.87c-.31,1.14-4,2.14-3.53,3.24,1.33,3.42,11.89-1.65,15,.41,1.21.81,3.12,4.1,2.29,5.28-2.4,3.38-13.66,2.06-16.88-.61-.81-.67-.08-3.33-.83-4.07-1.9-1.88-8.07-1.3-10.61-2.23-1.5-.55-4.07-2.65-5.62-3-2.66-.66-10.21-.1-12.17.06a246.05,246.05,0,0,0-83.83,102.11v13.78S1071.66,630.85,1073.2,633.23Z"/><path class="cls-3" d="M1444.3,536.36c-1.48,1-4.37,3.48-4.87,5.16-.44,1.47,1.11,6,1.11,6s4.78-.1,6,.81c1.9,1.45,1.37,7.84,3.6,8.76,2.55,1.06,7.88-5.39,10.28-4,2.63,1.47,3.69,9.49,1.7,11.72-.51.57-2.33.06-3.1,0-2.13-.15-6.32-1.24-8.45-1.22-2.38,0-7.36.31-9.37,1.53-3.32,2-5.73,10.48-9.06,12.49-2.79,1.69-10.63-.27-13,2-2,1.93-3.43,8.53-1.87,10.82.77,1.14,4.72.1,5.46,1.26,1,1.51,0,6-1.56,7-2.75,1.75-9.6-2.55-12.89-2.52-3,0-11.81,2.52-11.81,2.52s-2.3,4.71-2.49,6.41c-.37,3.38,0,10.72,2,13.44,1.14,1.5,5.06,2.77,6.94,3.16,2.83.61,8.7.07,11.6-.07,2-.09,6.27.46,7.84-.7,1.34-1,2.41-6.08,2.41-6.08s7.55-13.84,12.26-15.55c1.94-.7,6.09,2.14,8.07,1.61,2.59-.68,5.38-7.75,7.95-7,1.4.41.65,4.33,1.49,5.49,3.42,4.69,18.57,7.2,19.56,12.87.18,1-1.47,2.71-2.38,3.13-2,.92-7.75-2.35-8.82-.46-.71,1.25,2.16,3.9,3.39,4.69a11.6,11.6,0,0,0,5.43,1.16c1.72-.15,5.41-1.18,6.36-2.59,1-1.56-1.11-5.87-.11-7.46.41-.66,2.68-.62,2.82-1.38s-1.62-1.85-2.27-2.35c-2.95-2.24-10.64-4.31-13.06-7.09-1.65-1.92-4.91-7.39-3.43-9.43s8.34-1,10.85,0c1.13.45,2.57,2.54,3.46,3.35,2.27,2,8,5.14,9.35,7.84,1.07,2.14-.55,7.31.4,9.51,1.37,3.18,9.68,10,9.68,10s1.37-11,3.6-13.77c1.18-1.48,5-4.43,6.71-3.57,2.57,1.31.06,8.69,1.25,11.27,1,2.16,4.33,6.07,6.56,7,2.59,1.08,10.38.15,12.51-.14a244.49,244.49,0,0,0-67.88-94.59c-.54,1.18-1.84,3.86-2.72,4.61C1453.51,533.93,1446.86,534.65,1444.3,536.36Z"/><path class="cls-3" d="M1532.38,642.46c-4.65,1.77-15.24,1.54-20,0-3.61-1.16-8.54-7.84-12.2-8.84-3.09-.83-10.64-1.1-12.8,1.22-1.31,1.41,1.38,6.28,0,7.62-.72.71-3.09.31-4.06,0-1.28-.39-3.15-2.49-4.38-3-5.18-2.35-18.67-1.08-22.18-5.48-2.21-2.77,2.64-11.64,0-14-5.18-4.67-21.35.2-28.12,2.14-2.38.68-6.32,4-8.73,4.57-2.7.66-8.37.13-11.16,0-1.37-.07-4.13-.81-5.48-.54-3.79.77-11.58,4.08-13.55,7.34-1.8,3,1.61,10.74,0,13.81-3.89,7.42-24.85,11.64-27.71,19.49-.74,2,.55,7,2.3,8.33,1.12.83,4.72-1,5.61,0,1.33,1.54-.13,6.38-1.46,7.92-.68.79-3.35.58-4,1.42-3.06,4.23-.19,20.72-.19,20.72l23.94,26.59s8.28,1.44,10.41,0c.37-.25.27-1.38.64-1.62,3.85-2.6,14.38,1.66,18.74,0,1.71-.66,3.69-4.22,5.41-4.87,2.47-1,8.17-1,10.62,0,1.91.77,4,4.82,5.83,5.68,3.59,1.67,13.31-1.4,15.83,1.61,3.34,4-2.09,20.52-2.09,20.52l17.6,30.26s-8.27,12.49-9.28,17.27c-.42,2-.24,6.27.63,8.13,1.08,2.28,6.32,4.77,7.31,7.09,1.93,4.51,0,19.54,0,19.54s8.3,8.84,9.56,12.56,0,16.25,0,16.25h7.88a239,239,0,0,0,46-222.46A3.69,3.69,0,0,1,1532.38,642.46Z"/><path class="cls-3" d="M1412.64,558.79c1.39.9,4.74,2.09,5.63,3.46.55.84,1.11,3.15.52,4-.9,1.23-5,.1-6.06,1.22-1.45,1.58-2.28,6.86-.82,8.43,1.23,1.31,5.47.09,7.29,0,2.43-.11,7.53.19,9.68-.91,1.72-.88,5.48-4,5-5.8-.36-1.35-4.15-1.22-5.32-2a18.33,18.33,0,0,1-2.9-3.25,42.47,42.47,0,0,1-4.38-6.9c-1-2.32,0-8.39-2.08-9.76-1.75-1.12-6.49.48-8.22,1.63a8.27,8.27,0,0,0-2.3,3.44,6.8,6.8,0,0,0,0,3.87C1409.24,557.19,1411.63,558.16,1412.64,558.79Z"/><path class="cls-3" d="M1401,572.61c3-.93,8.73-4.44,10.29-7.11.67-1.15,1.14-4.14.44-5.28s-3.5-1.91-4.81-2a13.85,13.85,0,0,0-6.75,1.52c-1.92,1.34-4.35,5.61-5,7.82-.35,1.22-.92,4.18,0,5.08S1399.59,573,1401,572.61Z"/><path class="cls-3" d="M1201.29,513.43h0S1201.24,513.42,1201.29,513.43Z"/></g></g></svg>