<svg xmlns="http://www.w3.org/2000/svg" viewBox="0 0 1919.58 1079.76"><defs><style>.cls-1{fill:none;}.cls-2{fill:#a673cd;}.cls-3{fill:#4c227b;}</style></defs><title>Asset 30</title><g id="Layer_2" data-name="Layer 2"><g id="background"><rect class="cls-1" width="1919.58" height="1079.76"/></g><g id="small_moon" data-name="small moon"><path class="cls-2" d="M734.07,692.66A20.93,20.93,0,1,1,755,713.59,20.92,20.92,0,0,1,734.07,692.66Z"/><path class="cls-3" d="M746.94,688.94a3.07,3.07,0,1,1-3-2.62A2.85,2.85,0,0,1,746.94,688.94Z"/><path class="cls-3" d="M752.27,682.46a1.29,1.29,0,1,1-1.28-1.28A1.28,1.28,0,0,1,752.27,682.46Z"/><path class="cls-3" d="M770.26,698.54a3.84,3.84,0,1,1-3.82-3.44A3.65,3.65,0,0,1,770.26,698.54Z"/><path class="cls-3" d="M765.74,681.17a1,1,0,1,1-1-1.3A1.18,1.18,0,0,1,765.74,681.17Z"/><path class="cls-3" d="M756.69,693.64a.4.4,0,1,1-.4-.4A.4.4,0,0,1,756.69,693.64Z"/><path class="cls-3" d="M751.51,707c0,1-1.3,1.81-2.91,1.81s-2.92-.81-2.92-1.81,1.31-1.8,2.92-1.8S751.51,706,751.51,707Z"/><path class="cls-3" d="M745.88,676.6a.85.85,0,1,1-1.7,0,.85.85,0,1,1,1.7,0Z"/></g></g></svg>