<svg xmlns="http://www.w3.org/2000/svg" viewBox="0 0 1919.58 1079.76"><defs><style>.cls-1{fill:none;}.cls-2{fill:#4c227b;}.cls-3{fill:#d8dee2;}.cls-4{fill:#eaeaea;}</style></defs><title>Asset 33</title><g id="Layer_2" data-name="Layer 2"><g id="background"><rect class="cls-1" width="1919.58" height="1079.76"/></g><g id="big_satellite" data-name="big satellite"><polygon class="cls-2" points="1324.66 424.74 1326.9 427.01 1310.93 425.91 1309.27 421.86 1324.66 424.74"/><polygon class="cls-2" points="1303.88 419.53 1297.88 419.27 1287.75 408.18 1291.38 408.63 1303.88 419.53"/><path class="cls-3" d="M1301.25,424.56l-4.66,3.32c-.66,1.54,6.51,5.47,8.05,4.08l-.12-5.74C1304.49,425.5,1301.81,424.15,1301.25,424.56Z"/><path class="cls-4" d="M1307.45,429.54c-2.51,2.35-10.78-2-10.47-5.3.87-2.18,7.8-19.45,9.3-23.18,2.34-4.25,16.28,2.51,14.23,7.2Z"/><path class="cls-2" d="M1320.16,407.78c-.84,1.39-4.38,1-7.93-.78s-6-4.44-5.34-5.94,4.23-1.3,8,.62S1321,406.35,1320.16,407.78Z"/><path class="cls-3" d="M1318.91,406.48c-3,2.22-10.63-2.07-10.37-5.26,1.25-2.92-.77,1.79.44-1,1.8-3.12,12,1.8,10.49,5.31C1317.89,408.24,1320.5,403.74,1318.91,406.48Z"/><path class="cls-2" d="M1319.15,405.22c-.6,1-3.16.79-5.75-.51s-4.3-3.24-3.82-4.33,3.09-.95,5.79.42S1319.76,404.16,1319.15,405.22Z"/><path class="cls-3" d="M1313,402s.4-6.2.48-7.3c1.09-2.46,8.83.94,7.87,4l-5.58,4.73C1315.2,403.93,1313,402.8,1313,402Z"/><path class="cls-2" d="M1321.16,398.47c-.48.86-2.48.73-4.48-.28s-3.29-2.55-2.88-3.45,2.44-.82,4.5.23S1321.65,397.59,1321.16,398.47Z"/><polygon class="cls-2" points="1297.83 422.05 1299.26 422.32 1299.26 421.98 1297.35 421.63 1295.82 420.26 1274.9 416.26 1279.26 422.59 1299.85 423.86 1297.83 422.05"/><polygon class="cls-2" points="1311.26 427.74 1309.18 427.35 1308.11 426.18 1307.81 426.35 1308.63 427.24 1305.47 426.64 1318.23 440.71 1327.91 442.13 1311.26 427.74"/></g></g></svg>