<svg xmlns="http://www.w3.org/2000/svg" viewBox="0 0 1919.58 1080.66"><defs><style>.cls-1{fill:none;}.cls-2{fill:#b5bcce;}</style></defs><title>Asset 37</title><g id="Layer_2" data-name="Layer 2"><g id="background"><rect class="cls-1" y="0.9" width="1919.58" height="1079.76"/></g><g id="white_stars" data-name="white stars"><polygon class="cls-2" points="981 573.08 981.51 574.01 982.44 574.52 981.51 575.03 981 575.96 980.49 575.03 979.56 574.52 980.49 574.01 981 573.08"/><polygon class="cls-2" points="945.75 607.25 946.26 608.18 947.2 608.69 946.26 609.2 945.75 610.13 945.25 609.2 944.31 608.69 945.25 608.18 945.75 607.25"/><polygon class="cls-2" points="779.02 576.38 779.53 577.31 780.46 577.82 779.53 578.33 779.02 579.26 778.51 578.33 777.58 577.82 778.51 577.31 779.02 576.38"/><polygon class="cls-2" points="683.27 211.97 683.78 212.9 684.71 213.41 683.78 213.92 683.27 214.85 682.76 213.92 681.83 213.41 682.76 212.9 683.27 211.97"/><polygon class="cls-2" points="614.68 386.56 615.19 387.49 616.12 388 615.19 388.51 614.68 389.44 614.17 388.51 613.24 388 614.17 387.49 614.68 386.56"/><polygon class="cls-2" points="456.46 626.62 456.97 627.55 457.9 628.06 456.97 628.57 456.46 629.5 455.95 628.57 455.01 628.06 455.95 627.55 456.46 626.62"/><polygon class="cls-2" points="650.53 578.3 651.04 579.23 651.97 579.74 651.04 580.25 650.53 581.18 650.02 580.25 649.09 579.74 650.02 579.23 650.53 578.3"/><polygon class="cls-2" points="502.44 509.71 502.95 510.64 503.88 511.15 502.95 511.66 502.44 512.59 501.93 511.66 501 511.15 501.93 510.64 502.44 509.71"/><polygon class="cls-2" points="609.45 497.13 609.96 498.06 610.89 498.57 609.96 499.08 609.45 500.01 608.94 499.08 608 498.57 608.94 498.06 609.45 497.13"/><polygon class="cls-2" points="1254.58 420.86 1255.09 421.79 1256.02 422.3 1255.09 422.81 1254.58 423.74 1254.07 422.81 1253.13 422.3 1254.07 421.79 1254.58 420.86"/><polygon class="cls-2" points="1168.06 381.11 1168.57 382.04 1169.5 382.55 1168.57 383.06 1168.06 383.99 1167.55 383.06 1166.62 382.55 1167.55 382.04 1168.06 381.11"/><polygon class="cls-2" points="1255.36 245.49 1255.87 246.42 1256.8 246.93 1255.87 247.44 1255.36 248.37 1254.85 247.44 1253.91 246.93 1254.85 246.42 1255.36 245.49"/><polygon class="cls-2" points="1014.52 153.52 1015.03 154.45 1015.96 154.96 1015.03 155.47 1014.52 156.4 1014.01 155.47 1013.08 154.96 1014.01 154.45 1014.52 153.52"/><polygon class="cls-2" points="759.65 420.86 760.16 421.79 761.09 422.3 760.16 422.81 759.65 423.74 759.14 422.81 758.21 422.3 759.14 421.79 759.65 420.86"/><polygon class="cls-2" points="784.59 141.82 785.1 142.76 786.03 143.27 785.1 143.78 784.59 144.71 784.08 143.78 783.15 143.27 784.08 142.76 784.59 141.82"/><polygon class="cls-2" points="837.59 273.55 838.1 274.48 839.03 274.99 838.1 275.5 837.59 276.43 837.08 275.5 836.15 274.99 837.08 274.48 837.59 273.55"/><polygon class="cls-2" points="778.86 901.78 779.37 902.72 780.3 903.23 779.37 903.74 778.86 904.67 778.35 903.74 777.42 903.23 778.35 902.72 778.86 901.78"/><polygon class="cls-2" points="641.96 715.47 642.47 716.4 643.4 716.91 642.47 717.42 641.96 718.36 641.45 717.42 640.52 716.91 641.45 716.4 641.96 715.47"/><polygon class="cls-2" points="787.71 709.24 788.22 710.17 789.15 710.68 788.22 711.19 787.71 712.12 787.2 711.19 786.27 710.68 787.2 710.17 787.71 709.24"/><polygon class="cls-2" points="1099.47 520.5 1099.98 521.43 1100.91 521.94 1099.98 522.45 1099.47 523.38 1098.96 522.45 1098.03 521.94 1098.96 521.43 1099.47 520.5"/><polygon class="cls-2" points="726.04 302.98 726.55 303.91 727.48 304.42 726.55 304.93 726.04 305.86 725.53 304.93 724.6 304.42 725.53 303.91 726.04 302.98"/><polygon class="cls-2" points="854.81 345.7 855.32 346.63 856.25 347.14 855.32 347.65 854.81 348.58 854.3 347.65 853.37 347.14 854.3 346.63 854.81 345.7"/><polygon class="cls-2" points="1184.17 264.38 1184.68 265.31 1185.61 265.82 1184.68 266.33 1184.17 267.26 1183.66 266.33 1182.73 265.82 1183.66 265.31 1184.17 264.38"/><polygon class="cls-2" points="642.26 284.97 642.77 285.9 643.7 286.41 642.77 286.92 642.26 287.85 641.75 286.92 640.82 286.41 641.75 285.9 642.26 284.97"/><polygon class="cls-2" points="533.67 257.18 534.18 258.11 535.12 258.62 534.18 259.13 533.67 260.06 533.16 259.13 532.23 258.62 533.16 258.11 533.67 257.18"/><polygon class="cls-2" points="485.11 784.52 485.62 785.45 486.55 785.96 485.62 786.47 485.11 787.4 484.6 786.47 483.67 785.96 484.6 785.45 485.11 784.52"/><polygon class="cls-2" points="769.89 519.64 770.4 520.57 771.33 521.08 770.4 521.59 769.89 522.52 769.38 521.59 768.45 521.08 769.38 520.57 769.89 519.64"/><polygon class="cls-2" points="1041.71 285.07 1042.22 286 1043.15 286.51 1042.22 287.02 1041.71 287.95 1041.2 287.02 1040.27 286.51 1041.2 286 1041.71 285.07"/><polygon class="cls-2" points="1169.55 471.22 1170.06 472.15 1170.99 472.66 1170.06 473.17 1169.55 474.1 1169.04 473.17 1168.11 472.66 1169.04 472.15 1169.55 471.22"/><polygon class="cls-2" points="1007.27 225.85 1007.78 226.78 1008.72 227.29 1007.78 227.8 1007.27 228.73 1006.76 227.8 1005.83 227.29 1006.76 226.78 1007.27 225.85"/><polygon class="cls-2" points="750.78 228.47 751.29 229.4 752.22 229.91 751.29 230.42 750.78 231.35 750.27 230.42 749.34 229.91 750.27 229.4 750.78 228.47"/><polygon class="cls-2" points="1016.71 453.15 1017.22 454.08 1018.15 454.59 1017.22 455.1 1016.71 456.03 1016.2 455.1 1015.27 454.59 1016.2 454.08 1016.71 453.15"/><polygon class="cls-2" points="987.47 726.22 987.98 727.15 988.91 727.66 987.98 728.17 987.47 729.1 986.96 728.17 986.03 727.66 986.96 727.15 987.47 726.22"/><polygon class="cls-2" points="834.18 760.3 834.69 761.23 835.62 761.74 834.69 762.25 834.18 763.18 833.67 762.25 832.74 761.74 833.67 761.23 834.18 760.3"/><polygon class="cls-2" points="850.07 698.61 850.58 699.54 851.51 700.05 850.58 700.56 850.07 701.49 849.56 700.56 848.63 700.05 849.56 699.54 850.07 698.61"/><polygon class="cls-2" points="984.66 633.18 985.17 634.11 986.11 634.62 985.17 635.13 984.66 636.07 984.15 635.13 983.22 634.62 984.15 634.11 984.66 633.18"/><polygon class="cls-2" points="836.99 464.01 837.5 464.94 838.43 465.45 837.5 465.96 836.99 466.89 836.48 465.96 835.55 465.45 836.48 464.94 836.99 464.01"/><polygon class="cls-2" points="692.63 395.27 693.14 396.21 694.07 396.72 693.14 397.23 692.63 398.16 692.12 397.23 691.19 396.72 692.12 396.21 692.63 395.27"/><polygon class="cls-2" points="127.97 878.31 128.48 879.24 129.41 879.75 128.48 880.26 127.97 881.19 127.46 880.26 126.53 879.75 127.46 879.24 127.97 878.31"/><polygon class="cls-2" points="232.16 847.5 232.67 848.43 233.61 848.94 232.67 849.45 232.16 850.38 231.66 849.45 230.72 848.94 231.66 848.43 232.16 847.5"/><polygon class="cls-2" points="173.96 761.4 174.47 762.33 175.4 762.84 174.47 763.35 173.96 764.28 173.45 763.35 172.51 762.84 173.45 762.33 173.96 761.4"/><polygon class="cls-2" points="280.96 748.82 281.47 749.75 282.4 750.26 281.47 750.77 280.96 751.7 280.45 750.77 279.52 750.26 280.45 749.75 280.96 748.82"/><polygon class="cls-2" points="313.47 967.16 313.98 968.09 314.91 968.6 313.98 969.11 313.47 970.04 312.96 969.11 312.03 968.6 312.96 968.09 313.47 967.16"/><polygon class="cls-2" points="156.3 676.12 156.81 677.05 157.74 677.56 156.81 678.07 156.3 679 155.79 678.07 154.86 677.56 155.79 677.05 156.3 676.12"/><polygon class="cls-2" points="322.45 883.35 322.96 884.28 323.89 884.79 322.96 885.29 322.45 886.23 321.94 885.29 321.01 884.79 321.94 884.28 322.45 883.35"/><polygon class="cls-2" points="193.04 945.84 193.55 946.77 194.48 947.28 193.55 947.79 193.04 948.72 192.53 947.79 191.6 947.28 192.53 946.77 193.04 945.84"/><polygon class="cls-2" points="228.84 327.13 229.35 328.06 230.28 328.57 229.35 329.08 228.84 330.01 228.33 329.08 227.4 328.57 228.33 328.06 228.84 327.13"/><polygon class="cls-2" points="100.35 329.05 100.86 329.98 101.8 330.49 100.86 331 100.35 331.93 99.84 331 98.91 330.49 99.84 329.98 100.35 329.05"/><polygon class="cls-2" points="209.47 171.61 209.98 172.54 210.91 173.05 209.98 173.56 209.47 174.49 208.96 173.56 208.03 173.05 208.96 172.54 209.47 171.61"/><polygon class="cls-2" points="1208.63 11.36 1209.14 12.29 1210.07 12.8 1209.14 13.3 1208.63 14.24 1208.12 13.3 1207.19 12.8 1208.12 12.29 1208.63 11.36"/><polygon class="cls-2" points="175.87 53.74 176.38 54.67 177.31 55.18 176.38 55.69 175.87 56.62 175.36 55.69 174.43 55.18 175.36 54.67 175.87 53.74"/><polygon class="cls-2" points="1225.85 83.51 1226.36 84.44 1227.29 84.95 1226.36 85.46 1225.85 86.39 1225.34 85.46 1224.41 84.95 1225.34 84.44 1225.85 83.51"/><polygon class="cls-2" points="219.71 270.39 220.22 271.33 221.15 271.84 220.22 272.35 219.71 273.28 219.2 272.35 218.27 271.84 219.2 271.33 219.71 270.39"/><polygon class="cls-2" points="286.81 214.76 287.32 215.69 288.25 216.2 287.32 216.71 286.81 217.65 286.3 216.71 285.37 216.2 286.3 215.69 286.81 214.76"/><polygon class="cls-2" points="153.15 139.56 153.66 140.49 154.59 141 153.66 141.51 153.15 142.44 152.64 141.51 151.71 141 152.64 140.49 153.15 139.56"/><polygon class="cls-2" points="1684.68 364.4 1685.19 365.33 1686.12 365.84 1685.19 366.35 1684.68 367.29 1684.17 366.35 1683.24 365.84 1684.17 365.33 1684.68 364.4"/><polygon class="cls-2" points="1588.93 0 1589.44 0.93 1590.37 1.44 1589.44 1.95 1588.93 2.88 1588.42 1.95 1587.49 1.44 1588.42 0.93 1588.93 0"/><polygon class="cls-2" points="1556.19 366.32 1556.7 367.26 1557.63 367.76 1556.7 368.27 1556.19 369.21 1555.68 368.27 1554.75 367.76 1555.68 367.26 1556.19 366.32"/><polygon class="cls-2" points="1665.31 208.88 1665.82 209.81 1666.75 210.32 1665.82 210.83 1665.31 211.76 1664.8 210.83 1663.87 210.32 1664.8 209.81 1665.31 208.88"/><polygon class="cls-2" points="1743.25 61.57 1743.76 62.51 1744.69 63.02 1743.76 63.52 1743.25 64.46 1742.74 63.52 1741.81 63.02 1742.74 62.51 1743.25 61.57"/><polygon class="cls-2" points="1631.7 91.01 1632.21 91.94 1633.15 92.45 1632.21 92.96 1631.7 93.89 1631.2 92.96 1630.26 92.45 1631.2 91.94 1631.7 91.01"/><polygon class="cls-2" points="1760.47 133.73 1760.98 134.66 1761.91 135.17 1760.98 135.68 1760.47 136.61 1759.96 135.68 1759.03 135.17 1759.96 134.66 1760.47 133.73"/><polygon class="cls-2" points="1675.55 307.67 1676.06 308.6 1676.99 309.11 1676.06 309.62 1675.55 310.55 1675.04 309.62 1674.11 309.11 1675.04 308.6 1675.55 307.67"/><polygon class="cls-2" points="1656.44 16.5 1656.95 17.43 1657.88 17.94 1656.95 18.45 1656.44 19.38 1655.93 18.45 1655 17.94 1655.93 17.43 1656.44 16.5"/><polygon class="cls-2" points="1742.65 252.03 1743.16 252.97 1744.09 253.48 1743.16 253.99 1742.65 254.92 1742.14 253.99 1741.21 253.48 1742.14 252.97 1742.65 252.03"/><polygon class="cls-2" points="1608.99 176.83 1609.5 177.76 1610.43 178.28 1609.5 178.78 1608.99 179.72 1608.48 178.78 1607.55 178.28 1608.48 177.76 1608.99 176.83"/><polygon class="cls-2" points="1436.02 188.25 1436.53 189.18 1437.46 189.69 1436.53 190.19 1436.02 191.13 1435.51 190.19 1434.58 189.69 1435.51 189.18 1436.02 188.25"/><polygon class="cls-2" points="1307.54 190.17 1308.04 191.1 1308.97 191.61 1308.04 192.12 1307.54 193.05 1307.03 192.12 1306.09 191.61 1307.03 191.1 1307.54 190.17"/><polygon class="cls-2" points="1416.65 32.73 1417.16 33.66 1418.09 34.17 1417.16 34.67 1416.65 35.61 1416.14 34.67 1415.21 34.17 1416.14 33.66 1416.65 32.73"/><polygon class="cls-2" points="1426.89 131.51 1427.4 132.44 1428.33 132.95 1427.4 133.46 1426.89 134.39 1426.38 133.46 1425.45 132.95 1426.38 132.44 1426.89 131.51"/><polygon class="cls-2" points="1493.99 75.88 1494.5 76.81 1495.43 77.32 1494.5 77.83 1493.99 78.76 1493.48 77.83 1492.55 77.32 1493.48 76.81 1493.99 75.88"/><polygon class="cls-2" points="1360.33 0.68 1360.84 1.61 1361.77 2.12 1360.84 2.63 1360.33 3.56 1359.82 2.63 1358.89 2.12 1359.82 1.61 1360.33 0.68"/><polygon class="cls-2" points="420.78 19.39 421.29 20.32 422.22 20.83 421.29 21.34 420.78 22.27 420.27 21.34 419.34 20.83 420.27 20.32 420.78 19.39"/><polygon class="cls-2" points="308.54 142.54 309.05 143.47 309.98 143.98 309.05 144.49 308.54 145.42 308.03 144.49 307.1 143.98 308.03 143.47 308.54 142.54"/><polygon class="cls-2" points="415.55 129.96 416.05 130.89 416.99 131.4 416.05 131.91 415.55 132.84 415.04 131.91 414.1 131.4 415.04 130.89 415.55 129.96"/><polygon class="cls-2" points="565.75 53.69 566.26 54.62 567.19 55.13 566.26 55.63 565.75 56.57 565.24 55.63 564.31 55.13 565.24 54.62 565.75 53.69"/><polygon class="cls-2" points="1212.1 44.32 1212.61 45.25 1213.54 45.76 1212.61 46.27 1212.1 47.2 1211.59 46.27 1210.66 45.76 1211.59 45.25 1212.1 44.32"/><polygon class="cls-2" points="575.99 152.47 576.5 153.4 577.43 153.91 576.5 154.42 575.99 155.35 575.48 154.42 574.55 153.91 575.48 153.4 575.99 152.47"/><polygon class="cls-2" points="509.43 21.64 509.94 22.57 510.87 23.08 509.94 23.59 509.43 24.52 508.92 23.59 507.99 23.08 508.92 22.57 509.43 21.64"/><polygon class="cls-2" points="913.75 16.21 914.26 17.14 915.2 17.65 914.26 18.16 913.75 19.09 913.25 18.16 912.31 17.65 913.25 17.14 913.75 16.21"/><polygon class="cls-2" points="908.52 126.78 909.03 127.71 909.96 128.22 909.03 128.73 908.52 129.66 908.01 128.73 907.08 128.22 908.01 127.71 908.52 126.78"/><polygon class="cls-2" points="1058.73 50.51 1059.23 51.44 1060.17 51.95 1059.23 52.46 1058.73 53.39 1058.22 52.46 1057.29 51.95 1058.22 51.44 1058.73 50.51"/><polygon class="cls-2" points="783.86 54.08 784.37 55.02 785.3 55.52 784.37 56.03 783.86 56.97 783.35 56.03 782.42 55.52 783.35 55.02 783.86 54.08"/><polygon class="cls-2" points="1068.97 149.29 1069.48 150.22 1070.41 150.73 1069.48 151.24 1068.97 152.17 1068.46 151.24 1067.53 150.73 1068.46 150.22 1068.97 149.29"/><polygon class="cls-2" points="1002.41 18.46 1002.92 19.39 1003.85 19.9 1002.92 20.41 1002.41 21.34 1001.9 20.41 1000.97 19.9 1001.9 19.39 1002.41 18.46"/><polygon class="cls-2" points="917.89 1018.02 918.4 1018.96 919.34 1019.47 918.4 1019.98 917.89 1020.91 917.38 1019.98 916.45 1019.47 917.38 1018.96 917.89 1018.02"/><polygon class="cls-2" points="753.55 828.21 754.06 829.14 755 829.65 754.06 830.16 753.55 831.09 753.04 830.16 752.11 829.65 753.04 829.14 753.55 828.21"/><polygon class="cls-2" points="789.41 1019.95 789.92 1020.88 790.85 1021.39 789.92 1021.9 789.41 1022.83 788.9 1021.9 787.97 1021.39 788.9 1020.88 789.41 1019.95"/><polygon class="cls-2" points="641.32 951.36 641.83 952.29 642.76 952.8 641.83 953.31 641.32 954.24 640.81 953.31 639.88 952.8 640.81 952.29 641.32 951.36"/><polygon class="cls-2" points="748.32 938.78 748.83 939.71 749.76 940.22 748.83 940.73 748.32 941.66 747.81 940.73 746.88 940.22 747.81 939.71 748.32 938.78"/><polygon class="cls-2" points="405.75 725.97 406.26 726.9 407.19 727.41 406.26 727.92 405.75 728.85 405.24 727.92 404.31 727.41 405.24 726.9 405.75 725.97"/><polygon class="cls-2" points="908.77 961.29 909.27 962.22 910.21 962.73 909.27 963.24 908.77 964.17 908.26 963.24 907.32 962.73 908.26 962.22 908.77 961.29"/><polygon class="cls-2" points="975.86 905.66 976.37 906.59 977.3 907.1 976.37 907.61 975.86 908.54 975.35 907.61 974.42 907.1 975.35 906.59 975.86 905.66"/><polygon class="cls-2" points="842.21 830.46 842.72 831.39 843.65 831.9 842.72 832.41 842.21 833.34 841.7 832.41 840.76 831.9 841.7 831.39 842.21 830.46"/><polygon class="cls-2" points="234.25 453.79 234.76 454.72 235.69 455.23 234.76 455.74 234.25 456.67 233.74 455.74 232.81 455.23 233.74 454.72 234.25 453.79"/><polygon class="cls-2" points="569.21 676.47 569.72 677.4 570.65 677.91 569.72 678.42 569.21 679.36 568.7 678.42 567.77 677.91 568.7 677.4 569.21 676.47"/><polygon class="cls-2" points="112.77 980.4 113.28 981.33 114.21 981.84 113.28 982.35 112.77 983.28 112.26 982.35 111.33 981.84 112.26 981.33 112.77 980.4"/><polygon class="cls-2" points="275.38 906.53 275.88 907.46 276.82 907.97 275.88 908.48 275.38 909.41 274.87 908.48 273.93 907.97 274.87 907.46 275.38 906.53"/><polygon class="cls-2" points="375.88 1029.17 376.39 1030.1 377.32 1030.61 376.39 1031.12 375.88 1032.05 375.38 1031.12 374.44 1030.61 375.38 1030.1 375.88 1029.17"/><polygon class="cls-2" points="423.02 832.15 423.53 833.08 424.46 833.59 423.53 834.1 423.02 835.03 422.51 834.1 421.58 833.59 422.51 833.08 423.02 832.15"/><polygon class="cls-2" points="502.64 963.05 503.15 963.98 504.08 964.49 503.15 965 502.64 965.93 502.13 965 501.2 964.49 502.13 963.98 502.64 963.05"/><polygon class="cls-2" points="570.79 899.62 571.3 900.55 572.23 901.06 571.3 901.57 570.79 902.5 570.28 901.57 569.35 901.06 570.28 900.55 570.79 899.62"/><polygon class="cls-2" points="670.74 796.39 671.25 797.32 672.18 797.83 671.25 798.34 670.74 799.27 670.23 798.34 669.3 797.83 670.23 797.32 670.74 796.39"/><polygon class="cls-2" points="377.57 787.82 378.08 788.75 379.01 789.26 378.08 789.76 377.57 790.7 377.06 789.76 376.13 789.26 377.06 788.75 377.57 787.82"/><polygon class="cls-2" points="145.26 925.62 145.77 926.55 146.7 927.06 145.77 927.57 145.26 928.5 144.75 927.57 143.82 927.06 144.75 926.55 145.26 925.62"/><polygon class="cls-2" points="537.72 877.62 538.23 878.55 539.16 879.06 538.23 879.57 537.72 880.5 537.21 879.57 536.28 879.06 537.21 878.55 537.72 877.62"/><polygon class="cls-2" points="425.78 592.12 426.29 593.05 427.22 593.56 426.29 594.07 425.78 595 425.27 594.07 424.34 593.56 425.27 593.05 425.78 592.12"/><polygon class="cls-2" points="276.61 679.77 277.12 680.7 278.05 681.21 277.12 681.72 276.61 682.65 276.1 681.72 275.17 681.21 276.1 680.7 276.61 679.77"/><polygon class="cls-2" points="322.6 562.86 323.11 563.79 324.04 564.3 323.11 564.81 322.6 565.74 322.08 564.81 321.15 564.3 322.08 563.79 322.6 562.86"/><polygon class="cls-2" points="352.92 225.1 353.43 226.03 354.36 226.54 353.43 227.05 352.92 227.98 352.41 227.05 351.48 226.54 352.41 226.03 352.92 225.1"/><polygon class="cls-2" points="454.25 154.95 454.75 155.88 455.69 156.39 454.75 156.9 454.25 157.83 453.74 156.9 452.8 156.39 453.74 155.88 454.25 154.95"/><polygon class="cls-2" points="507.25 286.67 507.75 287.6 508.69 288.11 507.75 288.62 507.25 289.55 506.74 288.62 505.8 288.11 506.74 287.6 507.25 286.67"/><polygon class="cls-2" points="395.7 316.11 396.21 317.04 397.14 317.55 396.21 318.06 395.7 318.99 395.19 318.06 394.26 317.55 395.19 317.04 395.7 316.11"/><polygon class="cls-2" points="524.46 358.82 524.97 359.75 525.9 360.26 524.97 360.77 524.46 361.71 523.95 360.77 523.02 360.26 523.95 359.75 524.46 358.82"/><polygon class="cls-2" points="311.92 298.09 312.43 299.02 313.36 299.53 312.43 300.04 311.92 300.98 311.41 300.04 310.48 299.53 311.41 299.02 311.92 298.09"/><polygon class="cls-2" points="420.44 241.59 420.94 242.52 421.88 243.03 420.94 243.54 420.44 244.47 419.93 243.54 418.99 243.03 419.93 242.52 420.44 241.59"/><polygon class="cls-2" points="372.99 401.93 373.5 402.86 374.43 403.37 373.5 403.88 372.99 404.81 372.48 403.88 371.54 403.37 372.48 402.86 372.99 401.93"/><polygon class="cls-2" points="1562.5 851.17 1563.01 852.1 1563.94 852.61 1563.01 853.12 1562.5 854.05 1561.99 853.12 1561.06 852.61 1561.99 852.1 1562.5 851.17"/><polygon class="cls-2" points="1663.82 781.02 1664.33 781.95 1665.27 782.46 1664.33 782.97 1663.82 783.9 1663.31 782.97 1662.38 782.46 1663.31 781.95 1663.82 781.02"/><polygon class="cls-2" points="1716.82 912.74 1717.33 913.67 1718.27 914.18 1717.33 914.69 1716.82 915.63 1716.31 914.69 1715.38 914.18 1716.31 913.67 1716.82 912.74"/><polygon class="cls-2" points="1605.28 942.18 1605.79 943.11 1606.72 943.62 1605.79 944.13 1605.28 945.06 1604.77 944.13 1603.84 943.62 1604.77 943.11 1605.28 942.18"/><polygon class="cls-2" points="1734.04 984.9 1734.55 985.83 1735.48 986.34 1734.55 986.85 1734.04 987.78 1733.53 986.85 1732.6 986.34 1733.53 985.83 1734.04 984.9"/><polygon class="cls-2" points="1521.49 924.16 1522 925.1 1522.94 925.61 1522 926.12 1521.49 927.05 1520.98 926.12 1520.05 925.61 1520.98 925.1 1521.49 924.16"/><polygon class="cls-2" points="1630.01 867.66 1630.52 868.6 1631.45 869.11 1630.52 869.62 1630.01 870.55 1629.5 869.62 1628.57 869.11 1629.5 868.6 1630.01 867.66"/><polygon class="cls-2" points="1582.56 1028 1583.07 1028.93 1584.01 1029.44 1583.07 1029.95 1582.56 1030.88 1582.05 1029.95 1581.12 1029.44 1582.05 1028.93 1582.56 1028"/><polygon class="cls-2" points="1639.09 587.98 1639.6 588.91 1640.53 589.42 1639.6 589.93 1639.09 590.86 1638.58 589.93 1637.64 589.42 1638.58 588.91 1639.09 587.98"/><polygon class="cls-2" points="1740.41 517.83 1740.92 518.76 1741.85 519.27 1740.92 519.78 1740.41 520.71 1739.9 519.78 1738.97 519.27 1739.9 518.76 1740.41 517.83"/><polygon class="cls-2" points="1793.41 649.55 1793.92 650.48 1794.85 650.99 1793.92 651.5 1793.41 652.43 1792.9 651.5 1791.97 650.99 1792.9 650.48 1793.41 649.55"/><polygon class="cls-2" points="1681.86 678.99 1682.37 679.92 1683.3 680.43 1682.37 680.94 1681.86 681.87 1681.35 680.94 1680.42 680.43 1681.35 679.92 1681.86 678.99"/><polygon class="cls-2" points="1810.63 721.71 1811.14 722.64 1812.07 723.15 1811.14 723.66 1810.63 724.59 1810.12 723.66 1809.19 723.15 1810.12 722.64 1810.63 721.71"/><polygon class="cls-2" points="1598.08 660.98 1598.59 661.91 1599.52 662.42 1598.59 662.92 1598.08 663.86 1597.57 662.92 1596.64 662.42 1597.57 661.91 1598.08 660.98"/><polygon class="cls-2" points="1706.6 604.48 1707.11 605.41 1708.04 605.92 1707.11 606.42 1706.6 607.36 1706.09 606.42 1705.16 605.92 1706.09 605.41 1706.6 604.48"/><polygon class="cls-2" points="1659.15 764.81 1659.66 765.74 1660.59 766.25 1659.66 766.76 1659.15 767.7 1658.64 766.76 1657.71 766.25 1658.64 765.74 1659.15 764.81"/><polygon class="cls-2" points="1163.12 869.98 1163.63 870.91 1164.56 871.42 1163.63 871.93 1163.12 872.86 1162.61 871.93 1161.68 871.42 1162.61 870.91 1163.12 869.98"/><polygon class="cls-2" points="1264.45 799.83 1264.96 800.76 1265.89 801.27 1264.96 801.78 1264.45 802.71 1263.94 801.78 1263.01 801.27 1263.94 800.76 1264.45 799.83"/><polygon class="cls-2" points="1317.45 931.55 1317.96 932.48 1318.89 932.99 1317.96 933.5 1317.45 934.43 1316.94 933.5 1316.01 932.99 1316.94 932.48 1317.45 931.55"/><polygon class="cls-2" points="1205.9 960.99 1206.41 961.92 1207.34 962.43 1206.41 962.94 1205.9 963.87 1205.39 962.94 1204.46 962.43 1205.39 961.92 1205.9 960.99"/><polygon class="cls-2" points="1334.66 1003.71 1335.17 1004.64 1336.11 1005.15 1335.17 1005.65 1334.66 1006.59 1334.16 1005.65 1333.22 1005.15 1334.16 1004.64 1334.66 1003.71"/><polygon class="cls-2" points="1122.12 942.97 1122.63 943.9 1123.56 944.41 1122.63 944.92 1122.12 945.86 1121.61 944.92 1120.68 944.41 1121.61 943.9 1122.12 942.97"/><polygon class="cls-2" points="1230.64 886.47 1231.15 887.4 1232.08 887.91 1231.15 888.42 1230.64 889.36 1230.13 888.42 1229.19 887.91 1230.13 887.4 1230.64 886.47"/><polygon class="cls-2" points="1183.19 1046.81 1183.7 1047.74 1184.63 1048.25 1183.7 1048.76 1183.19 1049.69 1182.68 1048.76 1181.74 1048.25 1182.68 1047.74 1183.19 1046.81"/><polygon class="cls-2" points="1434.1 313.55 1434.61 314.48 1435.54 314.99 1434.61 315.5 1434.1 316.43 1433.59 315.5 1432.66 314.99 1433.59 314.48 1434.1 313.55"/><polygon class="cls-2" points="1535.42 243.4 1535.93 244.34 1536.86 244.84 1535.93 245.35 1535.42 246.28 1534.91 245.35 1533.98 244.84 1534.91 244.34 1535.42 243.4"/><polygon class="cls-2" points="1588.42 375.12 1588.93 376.06 1589.86 376.56 1588.93 377.07 1588.42 378.01 1587.91 377.07 1586.98 376.56 1587.91 376.06 1588.42 375.12"/><polygon class="cls-2" points="1605.64 447.28 1606.15 448.21 1607.08 448.72 1606.15 449.23 1605.64 450.16 1605.13 449.23 1604.2 448.72 1605.13 448.21 1605.64 447.28"/><polygon class="cls-2" points="1393.09 386.55 1393.6 387.48 1394.54 387.99 1393.6 388.5 1393.09 389.43 1392.58 388.5 1391.65 387.99 1392.58 387.48 1393.09 386.55"/><polygon class="cls-2" points="1501.61 330.05 1502.12 330.98 1503.05 331.49 1502.12 332 1501.61 332.93 1501.1 332 1500.17 331.49 1501.1 330.98 1501.61 330.05"/><polygon class="cls-2" points="1454.16 490.38 1454.67 491.32 1455.6 491.82 1454.67 492.33 1454.16 493.27 1453.65 492.33 1452.72 491.82 1453.65 491.32 1454.16 490.38"/><polygon class="cls-2" points="1588.53 480.06 1589.04 480.99 1589.97 481.5 1589.04 482.01 1588.53 482.94 1588.02 482.01 1587.09 481.5 1588.02 480.99 1588.53 480.06"/><polygon class="cls-2" points="1620.76 488.86 1621.27 489.79 1622.2 490.3 1621.27 490.81 1620.76 491.74 1620.25 490.81 1619.32 490.3 1620.25 489.79 1620.76 488.86"/><polygon class="cls-2" points="1509.21 518.29 1509.72 519.22 1510.65 519.73 1509.72 520.24 1509.21 521.17 1508.7 520.24 1507.77 519.73 1508.7 519.22 1509.21 518.29"/></g></g></svg>